<svg width="23" height="23" viewBox="0 0 23 23" fill="none" xmlns="http://www.w3.org/2000/svg">
<path d="M10.3334 0.132853C7.52686 0.611025 5.47477 1.58846 3.58112 3.36051C1.77046 5.05521 0.699148 6.95383 0.193671 9.34469C0.020149 10.1534 -0.0477509 11.405 0.0352378 12.2629C0.118227 13.1419 0.359648 14.3655 0.525626 14.7241C0.578437 14.8437 0.646337 15.0476 0.676515 15.1812C0.706692 15.3148 0.774592 15.5047 0.827403 15.6031C0.880214 15.7016 0.955659 15.8563 1.00093 15.9547C1.2348 16.4821 1.7101 17.3259 1.89117 17.5088C1.95152 17.565 1.99679 17.6494 1.99679 17.6846C1.99679 17.7197 2.1854 17.9518 2.41173 18.2049C2.63807 18.4581 2.85686 18.7253 2.89458 18.8026C2.9323 18.88 3.14354 19.1121 3.36988 19.3089L3.76973 19.6816L12.4458 11.5949L21.1219 3.50818L20.707 3.12143C20.4807 2.91047 20.2694 2.73467 20.2392 2.73467C20.2015 2.73467 19.9375 2.54481 19.6357 2.31275C19.3414 2.0807 19.0548 1.89084 19.0095 1.89084C18.9567 1.89084 18.8737 1.84161 18.8209 1.77833C18.7605 1.72207 18.5945 1.61659 18.4512 1.54627C18.3003 1.47595 17.991 1.33531 17.7647 1.2228C17.5383 1.11732 17.2818 0.997782 17.1988 0.955589C17.1158 0.913399 16.6783 0.758696 16.218 0.611025C14.4451 0.0344048 12.0762 -0.155457 10.3334 0.132853ZM13.917 2.7417C14.5658 2.90344 15.1316 3.48709 15.3278 4.18325C15.7126 5.56151 14.2791 6.90461 12.7778 6.58114C11.2991 6.25064 10.6276 4.70361 11.4575 3.52928C11.9856 2.77686 12.8985 2.48152 13.917 2.7417ZM7.73056 4.57001C8.37938 4.73174 8.94521 5.31539 9.14137 6.01155C9.52614 7.38981 8.09269 8.73291 6.59135 8.40944C5.11264 8.07894 4.44119 6.53192 5.27107 5.35758C5.79919 4.60517 6.71206 4.30982 7.73056 4.57001ZM5.69356 10.3362C6.34238 10.4979 6.90822 11.0816 7.10437 11.7777C7.48914 13.156 6.0557 14.4991 4.55435 14.1756C3.07564 13.8451 2.40419 12.2981 3.23408 11.1238C3.76219 10.3714 4.67506 10.076 5.69356 10.3362Z" fill="white"/>
<path d="M21.5368 9.77348C20.7522 10.0548 19.2358 10.4134 17.5458 10.7158C16.7612 10.8564 16.2708 11.0814 15.8031 11.5174C15.192 12.087 14.8977 12.7831 14.8977 13.6691V14.1614L11.7517 17.0937L8.59814 20.033L9.76753 21.1229L10.9369 22.2129L14.0679 19.2947L17.1988 16.3764H17.7646C18.753 16.3764 19.4923 16.1092 20.111 15.5326C20.6843 14.9982 20.9484 14.3864 21.1596 13.1066C21.2879 12.3401 21.9141 10.1884 22.1102 9.8227C22.2913 9.4922 22.3064 9.49923 21.5368 9.77348Z" fill="white"/>
</svg>
