<svg width="23" height="23" viewBox="0 0 23 23" fill="none" xmlns="http://www.w3.org/2000/svg">
<path d="M22.0006 12.4161L22.1918 12.3991C22.1946 12.3332 22.1982 12.2667 22.2079 12.2003C22.1653 12.4958 22.2014 12.0665 22.2029 12.0092C22.2054 11.9101 22.2152 11.8096 22.2129 11.7108C22.2088 11.5226 22.19 11.3358 22.1959 11.1474C22.1971 11.1124 22.2043 11.079 22.2082 11.0447L20.5767 11.2571L18.8904 4.89587C20.1554 3.73231 20.154 1.54313 18.8831 0H18.5634H18.0643H16.3454H16.2139C16.2139 0 15.9148 0.193284 15.9148 0.431989V4.78256C15.9148 5.02102 16.0487 5.21455 16.2139 5.21455H16.2459L17.4264 9.66732H10.4819V10.1203H17.5463L17.7777 10.993L17.4805 11.0546L18.9253 16.5054L19.2226 16.4441L19.5043 17.5067L19.6865 17.469V17.5057H21.071C20.7328 18.0046 20.5277 18.647 20.5277 19.3508C20.5277 19.3542 20.5282 19.3569 20.5282 19.3602C20.5171 20.0986 20.7886 20.7734 21.2423 21.2887C21.2736 21.3303 21.3057 21.3716 21.3311 21.4165C21.3499 21.4235 21.3672 21.4325 21.3855 21.4402C21.5926 21.6444 21.8302 21.8186 22.0917 21.9541V21.9621H22.1531V21.0597C22.1565 21.0406 22.1583 21.021 22.1619 21.002C21.8061 20.6917 21.5276 20.2972 21.3576 19.8505L21.3105 19.4219C21.4168 18.6992 21.7368 18.0696 22.1907 17.6432C22.1792 17.5977 22.1708 17.5506 22.1646 17.5035C22.1578 17.4482 22.1531 17.3917 22.1545 17.3342C22.1563 17.2525 22.1642 17.1749 22.1742 17.0983C22.1724 17.0725 22.1674 17.0476 22.1674 17.0213V16.8401C22.1674 16.7946 22.1717 16.75 22.1764 16.7055C22.1812 16.6668 22.1878 16.6287 22.1955 16.5907C22.1887 16.5932 22.1821 16.5965 22.1753 16.5992C22.142 15.6502 22.1708 14.7002 22.1943 13.7458C22.166 13.6487 22.1474 13.5482 22.1433 13.4431L21.1641 13.4736L21.1181 13.2996L22.0006 12.4161Z" fill="white"/>
<path d="M11.6929 12.9836V12.9826L11.6841 12.9836C11.677 12.9836 11.6696 12.9826 11.6614 12.9826C11.3702 12.9802 11.0928 13.0104 10.8345 13.0652L6.56622 13.4772L5.2493 13.5182L5.2033 13.3445L6.08577 12.4607L13.9415 11.7552L13.8746 11.3699C13.7724 10.7478 12.6454 10.3312 11.3493 10.4325V10.4317L11.3405 10.4332C11.333 10.4339 11.326 10.4339 11.3178 10.4344C11.1719 10.4467 11.0307 10.4656 10.895 10.4895L4.66166 11.3015L2.97513 4.94055C4.2406 3.77698 4.23924 1.5878 2.96833 0.0444336H2.64856H2.14976H0.430813H0.299371C0.299371 0.0444336 0 0.237717 0 0.476422V4.82699C0 5.06546 0.133935 5.25898 0.299371 5.25898H0.331325L1.86331 11.0374L1.5662 11.099L3.01093 16.5499L3.30826 16.4885L3.58996 17.5511L3.77194 17.5134V17.5501H5.15163C4.81554 18.05 4.61294 18.6929 4.61294 19.3953C4.61294 19.4008 4.61385 19.4064 4.61385 19.4119C4.60433 20.1582 4.8824 20.841 5.34607 21.3583C5.37122 21.3916 5.39593 21.425 5.41632 21.4612C5.43355 21.4677 5.44941 21.476 5.46618 21.483C5.79093 21.8043 6.19228 22.0495 6.64123 22.1911V22.2126H13.8175V21.502H6.95624C6.2614 21.186 5.71411 20.6088 5.44329 19.8973L5.39479 19.4564C5.51422 18.6555 5.89994 17.9715 6.43477 17.5504H13.8751H13.9141H14.038V14.4025C14.0428 13.6332 12.9969 13.0024 11.6929 12.9836Z" fill="white"/>
<path d="M14.7833 9.49898L15.3306 7.07134L15.3133 7.05273H15.149H14.8861H12.9422H12.5918H12.5002L12.4971 7.05588L13.0319 9.48956L14.7833 9.49898ZM14.5516 9.07448L13.2667 9.0653L13.0933 7.99016L14.7758 7.7198L14.5516 9.07448ZM14.8474 7.28588L14.7837 7.67221L13.0861 7.94522L12.9798 7.28588H14.8474Z" fill="white"/>
<path d="M14.204 8.2161C14.2462 8.2161 14.2803 8.18414 14.2803 8.14492C14.2803 8.10569 14.2462 8.07373 14.204 8.07373C14.1617 8.07373 14.1274 8.10545 14.1274 8.14492C14.1274 8.18438 14.162 8.2161 14.204 8.2161ZM14.204 8.08245C14.236 8.08245 14.2621 8.11053 14.2621 8.14492C14.2621 8.17954 14.236 8.20739 14.204 8.20739C14.1717 8.20739 14.1458 8.17954 14.1458 8.14492C14.1458 8.11029 14.172 8.08245 14.204 8.08245Z" fill="white"/>
<path d="M14.0709 8.31141C14.1002 8.31141 14.1241 8.28762 14.1241 8.25824C14.1241 8.22887 14.1002 8.20508 14.0709 8.20508C14.0413 8.20508 14.0176 8.22887 14.0176 8.25824C14.0176 8.28762 14.0413 8.31141 14.0709 8.31141ZM14.0709 8.21163C14.0934 8.21163 14.1114 8.23251 14.1114 8.25824C14.1114 8.28398 14.0934 8.30486 14.0709 8.30486C14.0483 8.30486 14.0301 8.28398 14.0301 8.25824C14.0303 8.23251 14.0485 8.21163 14.0709 8.21163Z" fill="white"/>
<path d="M14.2037 8.31055C14.1741 8.31055 14.1504 8.33434 14.1504 8.36371C14.1504 8.39309 14.1741 8.41688 14.2037 8.41688C14.2331 8.41688 14.257 8.39309 14.257 8.36371C14.257 8.33434 14.2331 8.31055 14.2037 8.31055ZM14.2037 8.41032C14.1811 8.41032 14.1629 8.38945 14.1629 8.36371C14.1629 8.33798 14.1811 8.3171 14.2037 8.3171C14.2262 8.3171 14.2442 8.33774 14.2442 8.36371C14.2442 8.38945 14.2262 8.41032 14.2037 8.41032Z" fill="white"/>
</svg>
