<svg width="23" height="23" viewBox="0 0 23 23" fill="none" xmlns="http://www.w3.org/2000/svg">
<path d="M5.18322 2.46875C3.95839 2.46875 2.96191 3.46523 2.96191 4.69007C2.96191 5.9149 3.95839 6.91139 5.18322 6.91139C6.40805 6.91139 7.40453 5.9149 7.40453 4.69007C7.40453 3.46523 6.40805 2.46875 5.18322 2.46875Z" fill="white"/>
<path d="M5.18305 0C2.32512 0 0 2.32513 0 5.18308C0 6.31506 0.358421 7.39047 1.03651 8.29307C1.15291 8.44802 1.27982 8.59848 1.41359 8.7402C2.00125 9.36276 2.71192 9.81921 3.49402 10.0874C4.02911 10.2708 4.59762 10.3662 5.18305 10.3662C6.62409 10.3662 7.9628 9.78871 8.95256 8.7402C9.08629 8.59848 9.2132 8.44802 9.32959 8.29307C10.0077 7.39052 10.3661 6.31511 10.3661 5.18308C10.3661 2.32513 8.04099 0 5.18305 0ZM5.18305 7.40439C3.68604 7.40439 2.46812 6.18647 2.46812 4.68945C2.46812 3.19243 3.68604 1.97451 5.18305 1.97451C6.68007 1.97451 7.89799 3.19243 7.89799 4.68945C7.89799 6.18647 6.68007 7.40439 5.18305 7.40439Z" fill="white"/>
<path d="M8.74967 9.60103C8.72494 9.62117 8.70011 9.64116 8.67509 9.66081C8.66166 9.67137 8.64808 9.68169 8.63456 9.6921C8.6119 9.70958 8.5891 9.727 8.56619 9.74408C8.55183 9.7548 8.53736 9.76541 8.52295 9.77597C8.50034 9.79251 8.47764 9.8089 8.45483 9.82509C8.44032 9.83535 8.42581 9.84562 8.41119 9.85579C8.3877 9.87213 8.3641 9.88817 8.34041 9.90412C8.32639 9.91355 8.31237 9.92307 8.29825 9.9324C8.27253 9.94938 8.24657 9.96607 8.22056 9.9826C8.20841 9.99035 8.19632 9.9982 8.18413 10.0059C8.14775 10.0286 8.11112 10.051 8.0743 10.0729C8.07247 10.074 8.07064 10.0751 8.06882 10.0762C8.02972 10.0993 7.99038 10.122 7.95079 10.1442C7.93978 10.1503 7.92868 10.1563 7.91762 10.1623C7.88919 10.178 7.86075 10.1935 7.83207 10.2087C7.81776 10.2162 7.80339 10.2236 7.78903 10.231C7.76331 10.2444 7.7375 10.2576 7.71158 10.2705C7.69613 10.2782 7.68058 10.2858 7.66503 10.2933C7.63976 10.3056 7.61443 10.3177 7.58901 10.3297C7.57322 10.337 7.55747 10.3444 7.54163 10.3516C7.51566 10.3635 7.48955 10.3751 7.46339 10.3866C7.44818 10.3933 7.43303 10.4 7.41778 10.4065C7.38914 10.4188 7.36042 10.4306 7.33159 10.4424C7.31875 10.4476 7.30602 10.453 7.29318 10.4582C7.25207 10.4746 7.2108 10.4906 7.16933 10.506C7.16874 10.5062 7.16815 10.5065 7.16751 10.5067C7.1251 10.5225 7.08241 10.5377 7.03961 10.5524C7.02727 10.5567 7.01493 10.5607 7.00254 10.5648C6.97223 10.575 6.94187 10.5851 6.91142 10.5947C6.89572 10.5997 6.87987 10.6045 6.86413 10.6094C6.83673 10.6178 6.80928 10.6261 6.78174 10.6341C6.76486 10.639 6.74788 10.6438 6.73095 10.6486C6.70409 10.6561 6.67719 10.6634 6.65024 10.6706C6.63306 10.6751 6.61588 10.6797 6.59865 10.684C6.57111 10.691 6.54342 10.6978 6.51573 10.7044C6.49929 10.7083 6.48285 10.7123 6.46636 10.7161C6.43615 10.723 6.4058 10.7295 6.37544 10.7359C6.36137 10.7389 6.3474 10.742 6.33333 10.7449C6.28974 10.7538 6.24596 10.7622 6.20208 10.7701C6.20129 10.7702 6.20055 10.7704 6.19976 10.7705C6.15504 10.7785 6.11012 10.7859 6.06505 10.7928C6.05083 10.795 6.03652 10.7969 6.02225 10.799C5.9914 10.8036 5.96055 10.8079 5.92955 10.8119C5.91232 10.8142 5.89509 10.8162 5.87787 10.8183C5.84958 10.8217 5.82125 10.825 5.79286 10.8279C5.77465 10.8299 5.75638 10.8316 5.73812 10.8334C5.71033 10.836 5.68254 10.8385 5.6547 10.8407C5.63633 10.8422 5.61792 10.8437 5.59951 10.845C5.57108 10.847 5.54255 10.8487 5.51406 10.8503C5.49634 10.8513 5.47862 10.8524 5.4609 10.8533C5.42975 10.8547 5.39851 10.8558 5.36726 10.8568C5.35225 10.8573 5.3373 10.8579 5.32229 10.8582C5.27599 10.8596 5.22964 10.8602 5.18314 10.8602C5.13664 10.8602 5.09029 10.8596 5.04399 10.8585C5.02898 10.8581 5.01402 10.8575 4.99902 10.857C4.96777 10.856 4.93652 10.8549 4.90538 10.8535C4.88766 10.8527 4.86993 10.8516 4.85221 10.8506C4.82368 10.849 4.7952 10.8472 4.76677 10.8452C4.74835 10.8439 4.72994 10.8425 4.71158 10.841C4.68374 10.8387 4.6559 10.8362 4.62816 10.8336C4.60989 10.8319 4.59163 10.8301 4.57341 10.8282C4.54503 10.8252 4.5167 10.8219 4.48841 10.8185C4.47118 10.8164 4.45391 10.8144 4.43673 10.8122C4.40578 10.8082 4.37488 10.8038 4.34403 10.7993C4.32976 10.7972 4.31545 10.7953 4.30123 10.7931C4.25621 10.7861 4.21129 10.7788 4.16657 10.7708C4.16568 10.7706 4.16479 10.7704 4.1639 10.7703C4.12012 10.7624 4.07648 10.754 4.03299 10.7452C4.01893 10.7423 4.00496 10.7391 3.99089 10.7362C3.96053 10.7298 3.93022 10.7232 3.89996 10.7163C3.88348 10.7125 3.86704 10.7085 3.8506 10.7046C3.82291 10.698 3.79522 10.6913 3.76767 10.6842C3.75044 10.6799 3.73327 10.6754 3.71609 10.6708C3.68914 10.6637 3.66223 10.6564 3.63538 10.6488C3.61845 10.644 3.60147 10.6393 3.58459 10.6343C3.55704 10.6263 3.5296 10.618 3.5022 10.6096C3.48645 10.6048 3.47061 10.6 3.45491 10.595C3.42436 10.5853 3.394 10.5752 3.36359 10.565C3.3513 10.5609 3.33896 10.5569 3.32672 10.5527C3.28387 10.5379 3.24122 10.5228 3.19877 10.507C3.19818 10.5068 3.19758 10.5065 3.19699 10.5063C3.15548 10.4908 3.11416 10.4748 3.07304 10.4584C3.06026 10.4533 3.04762 10.4479 3.03489 10.4428C3.00601 10.431 2.97713 10.4191 2.94845 10.4068C2.93325 10.4003 2.91814 10.3935 2.90304 10.3869C2.87683 10.3754 2.85067 10.3638 2.8246 10.3519C2.80881 10.3447 2.79311 10.3374 2.77741 10.33C2.75189 10.3181 2.72647 10.3059 2.7012 10.2936C2.68575 10.2861 2.67025 10.2785 2.65484 10.2708C2.62878 10.2578 2.60287 10.2446 2.577 10.2312C2.56278 10.2238 2.54852 10.2165 2.53435 10.209C2.50547 10.1937 2.47675 10.1781 2.44811 10.1622C2.4373 10.1563 2.42644 10.1505 2.41563 10.1445C2.376 10.1223 2.33656 10.0996 2.29741 10.0764C2.29583 10.0755 2.2943 10.0745 2.29272 10.0735C2.25555 10.0515 2.21868 10.0289 2.18195 10.0059C2.17006 9.9985 2.15831 9.9908 2.14651 9.98325C2.1202 9.96651 2.09389 9.94963 2.06783 9.9324C2.05396 9.92322 2.04018 9.91389 2.02641 9.90461C2.00247 9.88847 1.97858 9.87223 1.95484 9.85569C1.94047 9.84572 1.92616 9.8356 1.91189 9.82548C1.88879 9.80909 1.86579 9.79251 1.84288 9.77572C1.82872 9.76536 1.8146 9.75499 1.80053 9.74448C1.77713 9.727 1.75393 9.70928 1.73078 9.69146C1.7177 9.68139 1.70462 9.67142 1.69159 9.6612C1.66582 9.64097 1.6403 9.62038 1.61483 9.5997C1.60481 9.59155 1.59474 9.58361 1.58482 9.57541C1.54992 9.54663 1.51526 9.51751 1.48096 9.48784V22.2136H8.88532V18.5114V11.6007V9.48779C8.85111 9.51736 8.81656 9.54644 8.78181 9.57512C8.77119 9.58385 8.76038 9.59234 8.74967 9.60103ZM7.40445 19.9923C7.40445 20.1286 7.29392 20.2391 7.15764 20.2391H5.18314C5.04685 20.2391 4.93633 20.1286 4.93633 19.9923V18.0178C4.93633 17.8815 5.04685 17.771 5.18314 17.771H7.15764C7.29392 17.771 7.40445 17.8815 7.40445 18.0178V19.9923Z" fill="white"/>
<path d="M22.2131 11.8462H9.37891V18.2633H22.2131V11.8462Z" fill="white"/>
<path d="M6.91105 18.2642H5.43018V19.745H6.91105V18.2642Z" fill="white"/>
</svg>
