<svg width="23" height="23" viewBox="0 0 23 23" fill="none" xmlns="http://www.w3.org/2000/svg">
<path fill-rule="evenodd" clip-rule="evenodd" d="M17.3619 20.3049C16.5635 19.506 16.5635 18.2107 17.3619 17.4119C18.1603 16.6131 19.4547 16.613 20.253 17.4119C21.0513 18.2109 21.0513 19.5061 20.2529 20.3049C19.4547 21.1037 18.1603 21.1038 17.3619 20.3049ZM6.14164 12.1592L0.501533 17.8028C-0.128038 18.4329 -0.184865 19.407 0.444842 20.037L2.09282 21.686C2.72239 22.3161 3.80997 22.3733 4.43954 21.7434L10.0795 16.0997L9.56468 15.5844L11.0452 14.1029L15.4006 18.4612C15.2961 19.445 15.6205 20.4658 16.374 21.2197C17.6977 22.5441 19.8437 22.5443 21.1674 21.2197C22.4911 19.8952 22.4911 17.7478 21.1675 16.4234C20.4052 15.6607 19.3702 15.3374 18.3768 15.4532L13.2975 10.3708L18.5178 5.14698L19.7596 5.11658L22.2131 2.66156L19.5779 0.0246823L17.1244 2.47957L17.0604 3.68863L11.8402 8.91257L8.38244 5.45274C9.79118 1.59595 5.62382 -1.1993 2.72565 0.515959L5.12771 2.91955C6.66013 4.45295 4.37146 6.74431 2.83835 5.19109L0.446063 2.797C-0.921445 6.13293 1.41944 9.55693 5.29724 8.35127L8.17113 11.2269L6.69051 12.7086L6.14164 12.1592Z" fill="white"/>
</svg>
