<svg width="23" height="23" viewBox="0 0 23 23" fill="none" xmlns="http://www.w3.org/2000/svg">
<path fill-rule="evenodd" clip-rule="evenodd" d="M5.73651 8.64092L10.5487 5.71514L9.12851 4.85171L6.60925 6.3833C6.60494 6.38632 6.60064 6.38908 6.59634 6.39185L4.31676 7.77773L5.73651 8.64092ZM12.5203 6.91429L13.94 7.77748L9.12827 10.703L7.70853 9.83982L12.5203 6.91429ZM7.2019 9.53179L6.24314 8.9487L11.0554 6.02292L11.6612 6.3911V6.3916L12.0139 6.60627L7.2019 9.53179ZM5.99078 10.889L6.94739 11.4706V9.99283L5.99078 9.41125V10.889ZM7.05947 12.1558C7.1001 12.1848 7.14909 12.2016 7.2019 12.2016C7.34242 12.2016 7.45617 12.0816 7.45617 11.9339V10.3024L8.87424 11.1645V17.0161L6.5961 15.631V15.6305L4.06417 14.0908V8.23978L5.48224 9.10196V11.0427C5.48224 11.1487 5.54079 11.2403 5.62563 11.2838L7.05971 12.1556L7.05947 12.1558ZM15.2322 12.6753C15.17 12.6483 15.1055 12.6244 15.0388 12.6033C14.9478 12.5791 14.8727 12.5026 14.8519 12.3992L14.7635 11.9673L14.4732 11.9711C14.4648 11.9721 14.4562 11.9724 14.4474 11.9724C14.4409 11.9724 14.4345 11.9721 14.428 11.9716L14.1095 11.9759L14.0359 12.3841C14.0227 12.4847 13.9553 12.5731 13.8566 12.604C13.7873 12.6259 13.7197 12.6513 13.6537 12.6803C13.5899 12.7085 13.5295 12.7387 13.4724 12.7709C13.3918 12.8235 13.2862 12.8262 13.2011 12.7689L12.8474 12.5285L12.3908 13.0215L12.6175 13.3721C12.6715 13.4524 12.6813 13.5608 12.634 13.6534C12.5989 13.7221 12.5678 13.7906 12.5413 13.8588C12.5157 13.9242 12.493 13.9922 12.473 14.0624C12.45 14.1583 12.3774 14.2373 12.2792 14.2592L11.8688 14.3523L11.877 15.0408L12.2648 15.1183C12.3604 15.1322 12.4443 15.2032 12.4737 15.3071C12.4945 15.3801 12.5186 15.4513 12.5461 15.5207C12.5729 15.5879 12.6015 15.6516 12.6321 15.7118C12.6821 15.7966 12.6849 15.9078 12.6302 15.9974L12.402 16.3701L12.8701 16.851L13.203 16.6124C13.2793 16.5556 13.3823 16.5452 13.4702 16.5951C13.5354 16.6321 13.6004 16.6648 13.6652 16.6927C13.7273 16.7196 13.7919 16.7436 13.8585 16.7647C13.9496 16.7889 14.0246 16.8654 14.0454 16.9688L14.1338 17.4006L14.7877 17.3921L14.8613 16.9836C14.8744 16.883 14.9418 16.7946 15.0405 16.7637C15.1098 16.7418 15.1774 16.7164 15.2434 16.6874C15.3072 16.6593 15.3677 16.6291 15.4248 16.5968C15.5053 16.5442 15.6109 16.5412 15.696 16.5989L16.0499 16.8392L16.5066 16.3462L16.2798 15.9956C16.2258 15.9153 16.216 15.8069 16.2633 15.7143C16.2985 15.6456 16.3295 15.5771 16.3561 15.5089C16.3816 15.4435 16.4043 15.3755 16.4244 15.3053C16.4473 15.2094 16.52 15.1304 16.6182 15.1085L17.0283 15.0154L17.0202 14.3269L16.6323 14.2494C16.5367 14.2355 16.4528 14.1646 16.4234 14.0606C16.4027 13.9876 16.3785 13.9164 16.351 13.847C16.3243 13.7798 16.2956 13.7161 16.265 13.656C16.2151 13.5712 16.2122 13.4599 16.2669 13.3703L16.4951 12.9976L16.027 12.5167L15.6941 12.7555C15.6179 12.8124 15.5149 12.8227 15.4269 12.7729C15.3617 12.7359 15.2969 12.7032 15.2322 12.6753ZM13.5142 13.7244C13.7474 13.4725 14.0722 13.3145 14.4328 13.3097C14.7932 13.3049 15.1213 13.4544 15.36 13.6997C15.5992 13.9454 15.7493 14.2874 15.7538 14.6671C15.7584 15.0466 15.6164 15.3919 15.3834 15.6436C15.1502 15.8955 14.8254 16.0535 14.4648 16.0583C14.1044 16.0631 13.7763 15.9136 13.5376 15.6682C13.2984 15.4226 13.1483 15.0806 13.1438 14.7008C13.1392 14.3213 13.2812 13.9758 13.5142 13.7244ZM11.7713 15.5638L9.38302 17.0158V11.1648L14.1931 8.24028V11.4409L13.9092 11.4446C13.7852 11.4391 13.6731 11.5302 13.6497 11.6623L13.5629 12.1435C13.528 12.1571 13.4936 12.1712 13.4592 12.1863C13.4241 12.2016 13.3889 12.2182 13.3536 12.2359L12.948 11.9603C12.8486 11.8931 12.7148 11.9064 12.6293 11.999L11.8899 12.7973C11.801 12.8859 11.7838 13.0318 11.855 13.1418L12.1174 13.5475C12.1018 13.5827 12.087 13.6187 12.0727 13.6555C12.0581 13.693 12.0442 13.7305 12.0313 13.7682L11.5608 13.8752V13.8757C11.4451 13.9013 11.3586 14.0103 11.3601 14.1399L11.3732 15.2517C11.3679 15.3823 11.4545 15.5004 11.5799 15.525L11.7716 15.5633L11.7713 15.5638ZM4.70319 13.7825L5.54222 14.2927C5.66338 14.3666 5.81872 14.3231 5.88898 14.1953C5.95924 14.0677 5.91789 13.9041 5.79649 13.8301L4.95745 13.32C4.83629 13.246 4.68096 13.2895 4.6107 13.4174C4.54044 13.545 4.58179 13.7086 4.70319 13.7825ZM6.53612 2.21559C6.67162 2.25384 6.75215 2.4003 6.71607 2.54299C6.67998 2.68568 6.54066 2.77049 6.40516 2.73224L4.88146 2.30241C4.81001 2.29285 4.74262 2.25157 4.70032 2.18287C4.65133 2.10335 4.6475 2.00671 4.68239 1.92643L5.08841 0.33092C5.12474 0.18823 5.26382 0.103421 5.39932 0.141421C5.53482 0.179673 5.61535 0.326138 5.57927 0.468828L5.32739 1.45885C7.83686 -0.0475742 10.6883 -0.350319 13.2766 0.379993C15.8834 1.11559 18.2236 2.89834 19.6795 5.55383C19.6821 5.55886 19.6847 5.5639 19.6871 5.56893C19.8346 5.83896 19.9686 6.10899 20.0896 6.37851C20.2145 6.6571 20.3283 6.94223 20.4313 7.23289C20.48 7.37105 20.4134 7.52457 20.2822 7.57616C20.151 7.62749 20.0052 7.55728 19.9562 7.41912C19.8604 7.14859 19.7516 6.87755 19.6302 6.60677C19.512 6.34303 19.3846 6.08558 19.2481 5.83544C19.2453 5.83116 19.2426 5.82663 19.2402 5.82185C17.8544 3.29394 15.6267 1.59701 13.1454 0.896899C10.6718 0.199051 7.94679 0.491226 5.5525 1.93776L6.53636 2.21534L6.53612 2.21559ZM5.2404 19.2101C5.20408 19.0674 5.28461 18.9206 5.42035 18.8826C5.55609 18.8446 5.69517 18.9292 5.73125 19.0721L6.14014 20.6795C6.16714 20.7487 6.16643 20.8295 6.13201 20.9014C6.09043 20.9883 6.01014 21.0409 5.92435 21.0477L4.4145 21.4737C4.27901 21.512 4.13968 21.4272 4.1036 21.2842C4.06727 21.1415 4.14781 20.9948 4.28355 20.9568L5.22009 20.6926C4.53519 20.271 3.89067 19.765 3.30184 19.1783C2.57751 18.4568 1.93921 17.6145 1.41561 16.6598H1.41514C0.298409 14.6231 -0.136285 12.369 0.0367323 10.1914C0.214768 7.95087 1.03565 5.79014 2.41835 4.02878C2.50773 3.91503 2.66784 3.89893 2.7761 3.9933C2.88411 4.08742 2.89941 4.25603 2.80979 4.37003C1.49424 6.04607 0.71303 8.10237 0.543597 10.2354C0.378944 12.3093 0.79213 14.4547 1.85437 16.3925H1.85389L1.85437 16.3935C2.35311 17.3035 2.96082 18.1053 3.64955 18.7915C4.21687 19.3568 4.84036 19.8442 5.50494 20.2497L5.24064 19.2108L5.2404 19.2101ZM19.8647 11.8949L20.5861 11.1351C20.5802 12.8841 20.1615 14.6095 19.3717 16.1466C18.5188 17.8071 17.2324 19.2476 15.5653 20.2612C14.5315 20.8899 13.4365 21.3026 12.3272 21.513C11.1763 21.7312 10.0079 21.7319 8.87472 21.5296C8.73636 21.5054 8.60564 21.6036 8.5827 21.7493C8.55975 21.895 8.65296 22.0327 8.79132 22.0568C9.97902 22.2687 11.2057 22.2677 12.4166 22.0379C13.584 21.8165 14.7346 21.3829 15.8196 20.7233C17.5705 19.6588 18.9219 18.1448 19.8186 16.3995C20.6421 14.7965 21.0813 12.9976 21.0932 11.1726L21.7789 11.8946C21.8783 11.9993 22.0391 11.9993 22.1385 11.8946C22.2379 11.7899 22.2379 11.6206 22.1385 11.5159L21.0361 10.355C20.9881 10.2785 20.9037 10.2301 20.8105 10.2357C20.7365 10.24 20.6717 10.2772 20.6282 10.3331L19.505 11.5159C19.4056 11.6206 19.4056 11.7899 19.505 11.8946C19.6044 11.9993 19.7653 11.9995 19.8647 11.8949Z" fill="white"/>
</svg>
