<svg width="23" height="23" viewBox="0 0 23 23" fill="none" xmlns="http://www.w3.org/2000/svg">
<path fill-rule="evenodd" clip-rule="evenodd" d="M0.924883 7.88757H14.5933V9.34179H0.924883V7.88757ZM13.0834 18.4009C13.562 17.8267 14.2363 17.6306 14.8483 17.8122L18.5451 13.3768C18.3938 12.6425 18.5572 11.8338 19.0357 11.2593C19.4857 10.7198 20.1086 10.5143 20.69 10.6425L20.2761 11.1391C19.9028 11.5869 19.9028 12.32 20.2761 12.7681H20.2763C20.6501 13.2166 21.2606 13.2166 21.6344 12.7681L22.129 12.1743C22.3278 12.9413 22.174 13.8108 21.668 14.4182C21.1892 14.9923 20.5155 15.1878 19.9031 15.0062L16.2064 19.4415C16.3577 20.1762 16.1945 20.9849 15.716 21.5591C15.21 22.1665 14.4851 22.3506 13.8461 22.1122L14.341 21.5187C14.7148 21.0702 14.7148 20.3378 14.341 19.8893C13.9675 19.4412 13.3565 19.4412 12.9833 19.8893L12.5694 20.3859C12.4625 19.6881 12.6337 18.9408 13.0834 18.4009ZM13.932 11.0251C15.6734 11.4037 15.7822 14.1749 14.0647 14.7138C14.2613 13.4938 14.2169 12.2202 13.932 11.0251ZM1.35359 14.7471C-0.530611 14.3241 -0.411855 11.2551 1.48635 11.0038C1.19444 12.216 1.15001 13.5096 1.35359 14.7471ZM13.2151 9.97213C14.9041 14.8175 12.3671 21.0538 7.70255 21.0538C3.03824 21.0538 0.501026 14.8175 2.19026 9.97213H13.2151ZM5.21919 17.4933C4.84812 17.7175 4.56456 17.0403 4.93537 16.8168C7.12547 15.4905 8.99082 18.301 10.0995 16.8956C10.3844 16.5347 10.8414 17.0539 10.5567 17.4148C9.00832 19.3782 7.21111 16.2875 5.21919 17.4933ZM10.0631 11.8448C10.6798 11.8448 11.1839 12.4499 11.1839 13.1895C11.1839 13.9296 10.6798 14.5341 10.0631 14.5341C9.44618 14.5341 8.94235 13.9296 8.94235 13.1895C8.94235 12.4499 9.44618 11.8448 10.0631 11.8448ZM10.0631 12.6043C9.79222 12.6043 9.57544 12.8647 9.57544 13.1895C9.57544 13.5145 9.79222 13.7742 10.0631 13.7742C10.3338 13.7742 10.5505 13.5145 10.5505 13.1895C10.5505 12.8647 10.3338 12.6043 10.0631 12.6043ZM5.34226 11.8448C5.95919 11.8448 6.4633 12.4499 6.4633 13.1895C6.4633 13.9296 5.95919 14.5341 5.34226 14.5341C4.72559 14.5341 4.22149 13.9296 4.22149 13.1895C4.22149 12.4499 4.72559 11.8448 5.34226 11.8448ZM5.34226 12.6043C5.07163 12.6043 4.85512 12.8647 4.85512 13.1895C4.85512 13.5145 5.07163 13.7742 5.34226 13.7742C5.61316 13.7742 5.82967 13.5145 5.82967 13.1895C5.82967 12.8647 5.61316 12.6043 5.34226 12.6043ZM1.69962 7.25657H13.8183V5.845C13.8183 3.59598 12.2231 1.71431 10.145 1.34986V4.58334H9.41064V0H6.10757V4.58334H5.37323V1.34986C3.29514 1.71431 1.69962 3.59598 1.69962 5.845V7.25657ZM4.70701 5.30641H10.8109V6.06632H4.70701V5.30641Z" fill="white"/>
</svg>
