<svg width="23" height="23" viewBox="0 0 23 23" fill="none" xmlns="http://www.w3.org/2000/svg">
<path fill-rule="evenodd" clip-rule="evenodd" d="M16.0603 0C14.5604 0.860156 12.5809 1.84335 10.3642 2.08724C10.1276 2.11337 9.94936 2.34256 9.9552 2.61422C9.96465 3.04865 9.9741 3.5016 9.9849 3.96325C10.1442 3.9921 10.3013 4.05144 10.4511 4.13855C10.9848 4.44777 11.334 4.99979 11.5437 5.63946C11.5284 5.09288 11.5176 4.55011 11.5063 4.04164C11.5023 3.83912 11.635 3.66764 11.8119 3.64804C13.4679 3.46566 14.9461 2.73181 16.0661 2.08942H16.0846C17.2091 2.73399 18.6932 3.46893 20.3559 3.64967C20.5319 3.66873 20.6646 3.83804 20.6619 4.03946C20.6354 6.05321 20.6574 8.30431 20.2637 9.73718C19.6593 11.9409 18.1455 13.6857 16.2236 14.4C16.1665 14.4212 16.1111 14.4256 16.0544 14.412C16.031 14.4958 16.0054 14.5769 15.9761 14.6559C16.1071 15.2237 16.2182 15.8808 16.207 16.5014C16.2281 16.497 16.2497 16.4905 16.2709 16.4829C18.8439 15.5264 20.8707 13.1903 21.6802 10.2397C22.2072 8.32119 22.1775 5.30738 22.213 2.6115C22.2166 2.34147 22.0389 2.115 21.8035 2.08942C19.5774 1.84716 17.5902 0.862878 16.085 0L16.0603 0ZM0.752389 12.727H2.96816C3.38215 12.727 3.72055 13.1364 3.72055 13.6367V21.0793C3.72055 21.5801 3.38215 21.9895 2.96816 21.9895H0.752389C0.338395 21.9895 0 21.5801 0 21.0793V13.6367C0 13.1364 0.338395 12.727 0.752389 12.727ZM1.86027 19.4896C2.23557 19.4896 2.54021 19.8576 2.54021 20.3122C2.54021 20.7662 2.23557 21.1348 1.86027 21.1348C1.48498 21.1348 1.18033 20.7662 1.18033 20.3122C1.18033 19.8576 1.48498 19.4896 1.86027 19.4896ZM15.0649 14.5219C15.46 16.0256 15.5045 17.1389 14.9884 17.5134C15.2791 18.8842 14.7539 19.4341 14.5042 19.7128C14.474 19.7678 14.3111 19.9115 14.3516 20.2044C14.501 21.2829 13.8994 22.0031 13.3216 22.0222L7.63234 22.2116C7.25029 22.2241 6.9218 22.1566 6.56045 22.0069L5.19157 21.4391C4.75328 21.2573 4.47159 20.7804 4.47159 20.2202V13.2649C4.47159 12.7984 4.75148 12.5245 4.99088 12.1587L6.18831 10.3268C6.51996 9.81884 6.86105 9.44048 7.30744 9.0839L8.65337 8.00925L9.16367 5.96229C9.09572 4.22347 11.0991 4.7167 10.9542 7.66845C10.8916 8.94616 10.2459 10.8358 9.74461 11.439C9.48451 11.7515 9.59116 12.2882 10.313 12.1913L10.839 12.1222L13.7644 11.8489C15.7583 11.6633 15.4613 13.9808 15.0649 14.5219ZM14.7391 7.10173L15.6166 8.22265L17.6465 5.81912C17.813 5.62204 18.0821 5.62531 18.245 5.82728L18.8367 6.55841C18.9996 6.75984 18.9969 7.0854 18.83 7.28247L16.1827 10.4171L15.8753 10.7808C15.7907 10.881 15.6881 10.9305 15.5698 10.9272C15.4514 10.924 15.3506 10.869 15.2701 10.7645L14.9753 10.3828L13.507 8.49485C13.3477 8.28961 13.3572 7.9646 13.5273 7.77189L14.1406 7.07668C14.2256 6.98033 14.3273 6.9346 14.4439 6.93895C14.5604 6.94385 14.659 6.99938 14.7391 7.10173Z" fill="white"/>
</svg>
