<svg width="23" height="23" viewBox="0 0 23 23" fill="none" xmlns="http://www.w3.org/2000/svg">
<path d="M19.2832 2.92665C15.5143 -0.840569 9.4816 -0.970882 5.55858 2.53572C5.28599 2.78449 5.08451 3.10435 4.96599 3.45383L4.42079 5.02943L7.84009 4.27124C9.20307 3.96916 10.649 4.25347 11.7987 5.0472C12.9483 5.84092 13.7246 7.09074 13.9202 8.47679C14.2935 11.089 12.6342 13.5057 10.0623 14.098L0.50371 16.3133L0.124446 17.4151C0.0414819 17.652 0 17.8948 0 18.1436V19.9917C0 21.4488 1.38668 22.515 2.79707 22.1359L18.661 18.3332C19.0699 18.2266 19.455 18.0074 19.7336 17.6875C23.1825 13.7663 23.0343 6.67611 19.2832 2.92665Z" fill="white"/>
</svg>
