<svg width="35" height="35" viewBox="0 0 35 35" fill="none" xmlns="http://www.w3.org/2000/svg">
<g clip-path="url(#clip0_164_536)">
<path d="M16.0417 18.9583H4.375C1.95854 18.9583 0 20.9169 0 23.3333V30.625C0 33.0415 1.95854 35 4.375 35H16.0417V18.9583ZM5.10417 24.7917C5.10417 23.9867 5.7575 23.3333 6.5625 23.3333H9.47917C10.2842 23.3333 10.9375 23.9867 10.9375 24.7917C10.9375 25.5967 10.2842 26.25 9.47917 26.25H6.5625C5.7575 26.25 5.10417 25.5967 5.10417 24.7917ZM30.625 18.9583H18.9583V35H30.625C33.0415 35 35 33.0415 35 30.625V23.3333C35 20.9169 33.0415 18.9583 30.625 18.9583ZM28.4375 26.25H25.5208C24.7158 26.25 24.0625 25.5967 24.0625 24.7917C24.0625 23.9867 24.7158 23.3333 25.5208 23.3333H28.4375C29.2425 23.3333 29.8958 23.9867 29.8958 24.7917C29.8958 25.5967 29.2425 26.25 28.4375 26.25ZM21.875 0H13.125C10.7085 0 8.75 1.95854 8.75 4.375V16.0417H26.25V4.375C26.25 1.95854 24.2915 0 21.875 0ZM18.9583 7.29167H16.0417C15.2367 7.29167 14.5833 6.63833 14.5833 5.83333C14.5833 5.02833 15.2367 4.375 16.0417 4.375H18.9583C19.7633 4.375 20.4167 5.02833 20.4167 5.83333C20.4167 6.63833 19.7633 7.29167 18.9583 7.29167Z" fill="white"/>
</g>
<defs>
<clipPath id="clip0_164_536">
<rect width="35" height="35" fill="white"/>
</clipPath>
</defs>
</svg>
