<svg width="33" height="33" viewBox="0 0 33 33" fill="none" xmlns="http://www.w3.org/2000/svg">
<path d="M24.0625 16.4995C26.0682 16.4995 27.9918 17.2963 29.41 18.7145C30.8282 20.1328 31.625 22.0563 31.625 24.062C31.625 26.0677 30.8282 27.9913 29.41 29.4095C27.9918 30.8278 26.0682 31.6245 24.0625 31.6245C22.0568 31.6245 20.1332 30.8278 18.715 29.4095C17.2968 27.9913 16.5 26.0677 16.5 24.062C16.5 22.0563 17.2968 20.1328 18.715 18.7145C20.1332 17.2963 22.0568 16.4995 24.0625 16.4995ZM24.0625 19.2495L23.9387 19.2605C23.8014 19.2856 23.6749 19.352 23.5762 19.4507C23.4774 19.5494 23.4111 19.6759 23.386 19.8133L23.375 19.937V23.3745H19.9348L19.811 23.3869C19.6736 23.412 19.5472 23.4783 19.4484 23.5771C19.3497 23.6758 19.2833 23.8023 19.2582 23.9397L19.2473 24.0634L19.2582 24.1872C19.2833 24.3245 19.3497 24.451 19.4484 24.5497C19.5472 24.6485 19.6736 24.7148 19.811 24.7399L19.9348 24.7509H23.375V28.1925L23.386 28.3163C23.4111 28.4537 23.4774 28.5801 23.5762 28.6789C23.6749 28.7776 23.8014 28.8439 23.9387 28.869L24.0625 28.88L24.1863 28.869C24.3236 28.8439 24.4501 28.7776 24.5488 28.6789C24.6476 28.5801 24.7139 28.4537 24.739 28.3163L24.75 28.1925V24.7495H28.193L28.3167 24.7399C28.4541 24.7148 28.5806 24.6485 28.6793 24.5497C28.7781 24.451 28.8444 24.3245 28.8695 24.1872L28.8805 24.0634L28.8695 23.9397C28.8443 23.8021 28.7778 23.6755 28.6788 23.5767C28.5798 23.478 28.453 23.4118 28.3154 23.3869L28.1916 23.3759H24.75V19.9384L24.739 19.8147C24.7142 19.677 24.6479 19.5503 24.5492 19.4513C24.4504 19.3523 24.3238 19.2857 24.1863 19.2605L24.0625 19.2495ZM19.1469 3.44254C19.6859 3.44249 20.2157 3.5833 20.6835 3.85101C21.1514 4.11872 21.5412 4.50404 21.8144 4.96879L22.9336 6.87591H25.7812C26.9662 6.87591 28.1026 7.34654 28.9406 8.18429C29.7787 9.02205 30.2496 10.1583 30.25 11.3433V17.6133C28.5876 16.0137 26.3695 15.1215 24.0625 15.1245C23.4905 15.1245 22.9309 15.1782 22.3877 15.2813C22.054 14.2493 21.4549 13.3232 20.6505 12.5957C19.846 11.8681 18.8645 11.3648 17.8043 11.1361C16.7441 10.9073 15.6424 10.9613 14.6096 11.2924C13.5768 11.6236 12.6491 12.2203 11.9196 13.0229C11.19 13.8255 10.6842 14.8057 10.4528 15.8653C10.2214 16.925 10.2725 18.0268 10.6011 19.0605C10.9296 20.0941 11.524 21.0233 12.3248 21.7548C13.1255 22.4864 14.1045 22.9947 15.1635 23.2288C14.9788 25.2103 15.4597 27.1969 16.5303 28.8745H7.21875C6.03356 28.8745 4.89692 28.4037 4.05887 27.5657C3.22081 26.7276 2.75 25.591 2.75 24.4058V11.3433C2.75 10.1581 3.22081 9.02146 4.05887 8.1834C4.89692 7.34535 6.03356 6.87454 7.21875 6.87454H10.0787L11.2819 4.91654C11.5585 4.46584 11.9461 4.09357 12.4075 3.83528C12.869 3.57699 13.3889 3.4413 13.9177 3.44116L19.1469 3.44254ZM16.5 13.062C17.3687 13.062 18.2152 13.3362 18.9189 13.8456C19.6225 14.3549 20.1474 15.0734 20.4188 15.8987C19.2914 16.4034 18.2806 17.1356 17.4496 18.0494C16.6186 18.9632 15.9854 20.0389 15.5898 21.2089C14.6028 20.9825 13.7337 20.4009 13.1478 19.575C12.562 18.7491 12.3003 17.7366 12.4128 16.7303C12.5253 15.724 13.0039 14.7942 13.7576 14.118C14.5113 13.4418 15.4874 13.0664 16.5 13.0634" fill="white"/>
</svg>
