<svg width="151" height="193" viewBox="0 0 151 193" fill="none" xmlns="http://www.w3.org/2000/svg">
<path opacity="0.3" d="M65.8139 45.8165L64.1877 43L0 80.0585V155.112L15.7103 164.183L80.7095 126.654V108.516L68.2531 101.324L74.8586 97.5105L87.3166 104.703V130.471L24.755 166.588L26.3812 169.405L90.5689 132.346V102.825L78.1125 95.6322L84.718 91.8189L97.1744 99.0098V136.161L34.6144 172.28L36.2406 175.096L100.427 138.038V97.1332L87.9703 89.9407L94.5758 86.1274L107.032 93.3182V141.853L44.4722 177.971L46.0983 180.788L110.284 143.729V91.4416L97.8281 84.2491L104.434 80.4358L116.892 87.6267V147.544L54.33 183.663L55.9561 186.479L120.144 149.421V85.7501L107.687 78.5576L114.293 74.7442L126.749 81.9351V153.236L64.1877 189.354L65.8139 192.171L130 155.112V80.0585L114.291 70.9878L49.2921 108.516V126.654L61.7485 133.847L55.143 137.66L42.685 130.468V104.701L105.247 68.5827L103.62 65.7662L39.4327 102.825V132.346L51.8891 139.539L45.2836 143.352L32.8256 136.161V99.0098L75.6717 74.2743L95.3872 62.8912L93.761 60.0747L29.5749 97.1332V138.038L42.0329 145.23L35.4275 149.043L22.9711 141.853V93.3182L85.5311 57.1996L83.9049 54.3831L19.7172 91.4416V143.729L32.1735 150.922L25.5681 154.735L13.1101 147.544V87.6267L75.6733 51.5081L74.0471 48.6916L9.8594 85.7501V149.421L22.3158 156.613L15.7103 160.427L3.25232 153.236V81.9351L65.8139 45.8165ZM52.5444 124.778V110.393L65.0008 103.202L77.4572 110.393V124.778L65.0008 131.969L52.5444 124.778Z" fill="#517CF9"/>
<path opacity="0.45" fill-rule="evenodd" clip-rule="evenodd" d="M101.75 23.3493C101.657 22.1739 102.035 21.0102 102.801 20.1133L111.165 10.3117C111.931 9.41477 113.02 8.85867 114.196 8.76569C117.374 8.51431 123.864 8.00095 127.041 7.74957C128.217 7.65659 129.381 8.03436 130.278 8.79976C132.703 10.8688 137.655 15.095 140.079 17.1641C140.976 17.9294 141.533 19.0201 141.626 20.1955C141.877 23.3734 142.39 29.8632 142.642 33.0411C142.735 34.2165 142.357 35.3802 141.591 36.2771C139.522 38.702 135.296 43.6538 133.227 46.0788C132.461 46.9756 131.371 47.5317 130.196 47.6247C127.018 47.8761 120.528 48.3894 117.35 48.6408C116.175 48.7338 115.011 48.356 114.114 47.5906C111.689 45.5216 106.737 41.2954 104.312 39.2263C103.416 38.461 102.859 37.3703 102.766 36.1949C102.515 33.017 102.002 26.5272 101.75 23.3493Z" fill="#517CF9"/>
</svg>
