<svg width="35" height="35" viewBox="0 0 35 35" fill="none" xmlns="http://www.w3.org/2000/svg">
<g clip-path="url(#clip0_164_544)">
<path d="M29.1667 0H5.83333C4.28624 0 2.80251 0.614582 1.70854 1.70854C0.614582 2.80251 0 4.28624 0 5.83333L0 23.3333C0 24.8804 0.614582 26.3642 1.70854 27.4581C2.80251 28.5521 4.28624 29.1667 5.83333 29.1667H10.0625L16.5535 34.6544C16.8169 34.8772 17.1507 34.9995 17.4956 34.9995C17.8406 34.9995 18.1744 34.8772 18.4377 34.6544L24.9375 29.1667H29.1667C30.7138 29.1667 32.1975 28.5521 33.2915 27.4581C34.3854 26.3642 35 24.8804 35 23.3333V5.83333C35 4.28624 34.3854 2.80251 33.2915 1.70854C32.1975 0.614582 30.7138 0 29.1667 0ZM10.2083 7.29167H17.5C17.8868 7.29167 18.2577 7.44531 18.5312 7.7188C18.8047 7.99229 18.9583 8.36323 18.9583 8.75C18.9583 9.13677 18.8047 9.50771 18.5312 9.7812C18.2577 10.0547 17.8868 10.2083 17.5 10.2083H10.2083C9.82156 10.2083 9.45063 10.0547 9.17714 9.7812C8.90365 9.50771 8.75 9.13677 8.75 8.75C8.75 8.36323 8.90365 7.99229 9.17714 7.7188C9.45063 7.44531 9.82156 7.29167 10.2083 7.29167ZM24.7917 21.875H10.2083C9.82156 21.875 9.45063 21.7214 9.17714 21.4479C8.90365 21.1744 8.75 20.8034 8.75 20.4167C8.75 20.0299 8.90365 19.659 9.17714 19.3855C9.45063 19.112 9.82156 18.9583 10.2083 18.9583H24.7917C25.1784 18.9583 25.5494 19.112 25.8229 19.3855C26.0964 19.659 26.25 20.0299 26.25 20.4167C26.25 20.8034 26.0964 21.1744 25.8229 21.4479C25.5494 21.7214 25.1784 21.875 24.7917 21.875ZM24.7917 16.0417H10.2083C9.82156 16.0417 9.45063 15.888 9.17714 15.6145C8.90365 15.341 8.75 14.9701 8.75 14.5833C8.75 14.1966 8.90365 13.8256 9.17714 13.5521C9.45063 13.2786 9.82156 13.125 10.2083 13.125H24.7917C25.1784 13.125 25.5494 13.2786 25.8229 13.5521C26.0964 13.8256 26.25 14.1966 26.25 14.5833C26.25 14.9701 26.0964 15.341 25.8229 15.6145C25.5494 15.888 25.1784 16.0417 24.7917 16.0417Z" fill="white"/>
</g>
<defs>
<clipPath id="clip0_164_544">
<rect width="35" height="35" fill="white"/>
</clipPath>
</defs>
</svg>
