<svg width="13" height="13" viewBox="0 0 13 13" fill="none" xmlns="http://www.w3.org/2000/svg">
<g clip-path="url(#clip0_245_5030)">
<path d="M0.948242 3.4489L12.0746 1.08398" stroke="white" stroke-width="1.1" stroke-linecap="round" stroke-linejoin="round"/>
<path d="M7.36649 0.423824L4.98316 0.930282C4.8785 0.952295 4.77921 0.994754 4.691 1.05522C4.60279 1.11569 4.52738 1.19298 4.4691 1.28266C4.41083 1.37234 4.37083 1.47264 4.3514 1.57781C4.33198 1.68298 4.33351 1.79095 4.35591 1.89553L4.52491 2.6907L8.49857 1.8457L8.32957 1.05107C8.30755 0.946638 8.26516 0.847566 8.20483 0.759517C8.1445 0.671467 8.06742 0.596167 7.97798 0.537917C7.88855 0.479668 7.78851 0.43961 7.68359 0.420034C7.57866 0.400457 7.47091 0.401745 7.36649 0.423824Z" stroke="white" stroke-width="1.1" stroke-linecap="round" stroke-linejoin="round"/>
<path d="M5.82349 9.75V5.6875" stroke="white" stroke-width="1.1" stroke-linecap="round" stroke-linejoin="round"/>
<path d="M8.26099 9.75V5.6875" stroke="white" stroke-width="1.1" stroke-linecap="round" stroke-linejoin="round"/>
<path d="M10.089 3.25H11.5109L10.7607 11.8484C10.7438 12.0521 10.6508 12.2419 10.5002 12.38C10.3496 12.5181 10.1525 12.5944 9.9482 12.5938H4.13341C3.92963 12.5936 3.73333 12.5169 3.58344 12.3789C3.43355 12.2408 3.34101 12.0515 3.32416 11.8484L2.76245 5.07921" stroke="white" stroke-width="1.1" stroke-linecap="round" stroke-linejoin="round"/>
</g>
<defs>
<clipPath id="clip0_245_5030">
<rect width="13" height="13" fill="white"/>
</clipPath>
</defs>
</svg>
