<svg width="25" height="24" viewBox="0 0 25 24" fill="none" xmlns="http://www.w3.org/2000/svg">
<path d="M3.73886 0C2.10439 0 0.467869 1.22586 0.467869 3.67757L3.73886 10.2155L7.00782 3.67757C7.00782 1.22586 5.37334 0 3.73886 0ZM18.158 1.99202C17.8056 2.00683 17.4634 2.07374 17.1773 2.13503L17.3714 3.034C17.6575 2.97015 17.9537 2.9298 18.204 2.91141L18.158 1.99202ZM3.73886 2.0431C4.64293 2.0431 5.37334 2.77503 5.37334 3.67757C5.37334 4.58164 4.64293 5.31205 3.73886 5.31205C2.83633 5.31205 2.10439 4.58164 2.10439 3.67757C2.10439 2.77503 2.83633 2.0431 3.73886 2.0431ZM19.1744 2.05331L19.0212 2.95738C19.2715 3.00999 19.5218 3.07588 19.7414 3.20766L20.1858 2.40064C19.8742 2.23464 19.5269 2.08549 19.1744 2.05331ZM16.2375 2.39553C15.9259 2.51709 15.6144 2.62589 15.3488 2.73264L15.7114 3.57542C15.9923 3.4559 16.2886 3.3517 16.5389 3.26384L16.2375 2.39553ZM21.0235 3.07997L20.3237 3.67757C20.5076 3.88801 20.6506 4.14748 20.763 4.3569L21.5853 3.94317C21.4116 3.60862 21.2584 3.35527 21.0235 3.07997ZM14.4958 3.12594C14.1842 3.28479 13.9288 3.42627 13.653 3.5652L14.1025 4.37222C14.3681 4.21899 14.6592 4.07087 14.8942 3.95339L14.4958 3.12594ZM12.846 4.04022C12.5753 4.19856 12.3097 4.3569 12.0492 4.53056L12.5497 5.29672C12.8 5.13328 13.0605 4.98004 13.3159 4.82681L12.846 4.04022ZM21.902 4.95451C21.6006 5.00558 21.2942 5.04134 20.9928 5.07709C21.0132 5.33248 20.9979 5.6083 20.9468 5.82282L21.8407 6.03224C21.8918 5.66448 21.9377 5.28651 21.902 4.95451ZM11.2728 5.04134C11.0174 5.215 10.7671 5.39377 10.5117 5.56743L11.0429 6.31827C11.2881 6.1395 11.5384 5.97095 11.7887 5.79728L11.2728 5.04134ZM9.76089 6.11907C9.5055 6.30295 9.2399 6.50726 9.02027 6.67581L9.57701 7.40622C9.85793 7.20191 10.052 7.04868 10.3074 6.85969L9.76089 6.11907ZM20.6404 6.52769C20.4871 6.76265 20.3084 6.9976 20.1296 7.17637L20.7987 7.81484C21.0183 7.55435 21.2533 7.28874 21.4167 7.02314L20.6404 6.52769ZM8.28986 7.24788C8.03958 7.44197 7.7893 7.64118 7.56967 7.82506L8.15195 8.53503C8.39201 8.33583 8.63719 8.13152 8.86193 7.96807L8.28986 7.24788ZM19.4962 7.76376C19.2613 7.95275 19.0161 8.13663 18.7914 8.28986L19.3175 9.0458C19.5882 8.86193 19.8538 8.66272 20.0836 8.47885L19.4962 7.76376ZM6.85969 8.42266C6.61963 8.61675 6.38978 8.82106 6.15482 9.02027L6.75243 9.72003C6.98228 9.52082 7.21213 9.32162 7.44708 9.12753L6.85969 8.42266ZM18.0405 8.7802C17.78 8.93343 17.5093 9.09177 17.2642 9.22458L17.7034 10.0367C17.9792 9.86815 18.2908 9.72003 18.5207 9.56679L18.0405 8.7802ZM5.45506 9.62809C5.22522 9.8324 5.00048 10.0367 4.77063 10.2461L5.38866 10.9306C5.6134 10.7263 5.84325 10.5219 6.06799 10.3176L5.45506 9.62809ZM16.4622 9.64852C16.1915 9.78132 15.9208 9.91923 15.6501 10.052L16.0434 10.8795C16.3601 10.7263 16.595 10.5986 16.8811 10.4658L16.4622 9.64852ZM14.8278 10.4351C14.5468 10.5628 14.2761 10.6854 13.9901 10.8029L14.363 11.6456C14.6439 11.5231 14.9248 11.3954 15.2057 11.2677L14.8278 10.4351ZM4.09641 10.8795C3.83591 11.1093 3.65459 11.2881 3.41708 11.518L4.06576 12.182C4.30582 11.9521 4.49992 11.7529 4.72466 11.5588L4.09641 10.8795ZM13.1524 11.1757C12.8715 11.2932 12.5906 11.4158 12.3096 11.5333L12.6672 12.3863C12.9532 12.2688 13.2342 12.1462 13.5151 12.0236L13.1524 11.1757ZM11.4618 11.8908C11.1808 12.0134 10.8999 12.136 10.6139 12.2484L10.9714 13.1013C11.2523 12.9839 11.5384 12.8613 11.8193 12.7438L11.4618 11.8908ZM20.9009 12.2586C19.2664 12.2586 17.6319 13.4844 17.6319 15.9361L20.9009 22.474L24.1698 15.9361C24.1698 13.4844 22.5353 12.2586 20.9009 12.2586ZM9.766 12.6059C9.47486 12.7387 9.16839 12.8613 8.91811 12.9685L9.28076 13.8164C9.58212 13.6887 9.86815 13.5662 10.1235 13.4538L9.766 12.6059ZM8.07023 13.3312C7.79441 13.4589 7.47262 13.6019 7.22745 13.7143L7.60542 14.5519C7.90678 14.4191 8.17238 14.2863 8.43798 14.174L8.07023 13.3312ZM6.38467 14.0974C6.09864 14.2353 5.80239 14.3783 5.547 14.506L5.96073 15.3283C6.23655 15.1853 6.52258 15.0525 6.77286 14.9299L6.38467 14.0974ZM20.9009 14.3017C21.8049 14.3017 22.5353 15.0321 22.5353 15.9361C22.5353 16.8402 21.8049 17.5706 20.9009 17.5706C19.9968 17.5706 19.2664 16.8402 19.2664 15.9361C19.2664 15.0321 19.9968 14.3017 20.9009 14.3017ZM4.71955 14.9299C4.44884 15.078 4.17813 15.2313 3.90231 15.3896L4.36201 16.1864C4.6225 16.0332 4.88811 15.8902 5.15371 15.7472L4.71955 14.9299ZM3.1004 15.8851C2.81385 16.0485 2.53701 16.2681 2.29848 16.4265L2.85523 17.162C3.10908 16.9781 3.38234 16.7891 3.60096 16.6563L3.1004 15.8851ZM1.57318 17.0394C1.32801 17.2642 1.08642 17.5247 0.898962 17.7443L1.59872 18.3419C1.79537 18.1018 1.96648 17.9231 2.19633 17.7187L1.57318 17.0394ZM12.6978 17.1058L12.7796 18.0201C13.0452 17.9741 13.3108 18.0048 13.5764 18.0456L13.7347 17.1416C13.3976 17.0905 13.0401 17.0547 12.6978 17.1058ZM10.7978 17.6166L11.1451 18.4696C11.4107 18.3521 11.6865 18.2602 11.9674 18.1733C11.8704 17.8822 11.7989 17.5859 11.7223 17.2897C11.4005 17.3816 11.0787 17.5042 10.7978 17.6166ZM14.7563 17.5706L14.2353 18.3266C14.4498 18.4849 14.6592 18.6535 14.8278 18.8629L15.5224 18.2602C15.2619 17.9946 15.0627 17.7443 14.7563 17.5706ZM9.92944 18.0303C9.64852 18.1733 9.37781 18.3368 9.1071 18.4951L9.5719 19.2868C9.8375 19.1438 10.098 18.9752 10.3585 18.8373L9.92944 18.0303ZM0.337622 18.5922C0.183368 18.9242 0.0582282 19.2817 0 19.5984L0.90407 19.7567C0.959233 19.4656 1.0384 19.2562 1.15435 19.0059C0.873934 18.8833 0.606289 18.7352 0.337622 18.5922ZM8.31029 18.9906C8.0498 19.1591 7.79441 19.3277 7.53902 19.5013L8.0498 20.2675C8.30518 20.0989 8.55546 19.9253 8.81085 19.7567L8.31029 18.9906ZM16.1098 19.0519L15.3385 19.5524C15.502 19.7976 15.6603 20.053 15.8085 20.3135L16.6053 19.8538C16.4265 19.5677 16.2988 19.3124 16.1098 19.0519ZM6.77797 20.0223C6.52258 20.1909 6.26719 20.3543 6.01692 20.5331L6.52769 21.2993C6.77286 21.1205 7.03336 20.9519 7.29385 20.7783L6.77797 20.0223ZM0.914285 20.5076C0.618547 20.5689 0.320255 20.6199 0.0229849 20.6761C0.0766161 21.0337 0.220144 21.381 0.34988 21.6568L1.17989 21.2584C1.06905 21.003 0.96383 20.7374 0.914285 20.5076ZM17.0598 20.6506L16.263 21.1103C16.4214 21.3861 16.6053 21.6824 16.7534 21.9173L17.5247 21.4219C17.351 21.1511 17.2029 20.8958 17.0598 20.6506ZM5.26097 21.0337C5.00558 21.192 4.7553 21.3452 4.4897 21.4934L4.94429 22.2953C5.215 22.1369 5.48571 21.9786 5.74621 21.81L5.26097 21.0337ZM1.61915 21.8662L0.990901 22.5404C1.27489 22.8112 1.62528 22.9899 2.00734 23.0717L2.21165 22.1778C1.98487 22.1318 1.7729 22.0195 1.61915 21.8662ZM3.71333 21.8816C3.45743 21.999 3.19183 22.091 2.91652 22.1472L3.12594 23.0461C3.45385 22.9797 3.76236 22.8571 4.07087 22.7294L3.71333 21.8816ZM18.0303 22.1267L17.3203 22.7039C17.54 22.9746 17.8107 23.2351 18.0456 23.419L18.6126 22.6937C18.3879 22.52 18.1938 22.3106 18.0303 22.1267ZM19.2613 23.0206L19.0314 23.9144C19.4349 23.9962 19.7363 24.0217 20.1143 23.9808L20.0019 23.0665C19.7516 23.1074 19.5065 23.0819 19.2613 23.0206Z" fill="white"/>
</svg>
