<svg width="20" height="20" viewBox="0 0 20 20" fill="none" xmlns="http://www.w3.org/2000/svg">
<path d="M15.554 5.29639C18.005 5.29639 20 7.35618 20 9.88782V14.9201C20 17.4456 18.01 19.5002 15.564 19.5002L4.448 19.5002C1.996 19.5002 0 17.4414 0 14.9098V9.8775C0 7.35205 1.991 5.29639 4.438 5.29639H5.378L15.554 5.29639Z" fill="#34C8E8"/>
<path d="M10.5464 14.0374L13.4554 11.0695C13.7554 10.7627 13.7554 10.2691 13.4534 9.96338C13.1514 9.65867 12.6644 9.65968 12.3644 9.96541L10.7714 11.5905L10.7714 1.2821C10.7714 0.85042 10.4264 0.5 10.0004 0.5C9.57543 0.5 9.23143 0.85042 9.23143 1.2821L9.23143 11.5905L7.63742 9.96541C7.33742 9.65968 6.85043 9.65867 6.54843 9.96338C6.39743 10.1168 6.32142 10.3168 6.32142 10.518C6.32142 10.717 6.39743 10.9171 6.54643 11.0695L9.45543 14.0374C9.60043 14.1847 9.79643 14.268 10.0004 14.268C10.2054 14.268 10.4014 14.1847 10.5464 14.0374Z" fill="white"/>
</svg>
