<svg width="144" height="152" viewBox="0 0 144 152" fill="none" xmlns="http://www.w3.org/2000/svg">
<g opacity="0.45">
<path d="M122.918 45.3628L96.3853 24.2583C95.0671 23.2098 94.8487 21.2928 95.8971 19.9747L109.887 2.38587C110.936 1.06772 112.853 0.849269 114.171 1.89774L140.705 23.0032C142.022 24.0508 142.241 25.9678 141.192 27.2859L127.201 44.8758C126.153 46.1929 124.236 46.4113 122.918 45.3628Z" fill="#21D457"/>
</g>
<g opacity="0.3">
<path d="M64.9974 104.92L47.0762 86.9988L64.9974 69.0762L82.9172 86.9974L64.9974 104.92ZM51.5308 86.9988L64.9974 100.464L78.4625 86.9988L64.9974 73.5337L51.5308 86.9988Z" fill="#21D457"/>
<path d="M64.9987 114.336L37.6641 86.9997L64.9987 59.6621L92.3377 86.9997L64.9987 114.336ZM42.1187 86.9997L64.9987 109.883L87.8831 86.9997L64.9987 64.1168L42.1187 86.9997Z" fill="#21D457"/>
<path d="M64.9985 123.752L28.2461 87L64.9985 50.2461L101.751 86.9985L64.9985 123.752ZM32.7008 87L64.9985 119.298L97.2949 87L64.9985 54.7008L32.7008 87Z" fill="#21D457"/>
<path d="M64.9994 133.17L18.832 87.0008L64.9994 40.832L111.17 87.0008L64.9994 133.17ZM23.2881 87.0008L64.9994 128.715L106.715 87.0008L64.9994 45.2867L23.2881 87.0008Z" fill="#21D457"/>
<path d="M64.9977 142.583L9.41406 86.9992L64.9977 31.4141L120.581 86.9977L64.9977 142.583ZM13.8687 86.9992L64.9977 138.128L116.127 86.9992L64.9977 35.8687L13.8687 86.9992Z" fill="#21D457"/>
<path d="M64.9986 152L0 87L64.9986 22L130 87L64.9986 152ZM4.45467 87L64.9986 147.545L125.545 87L64.9986 26.4547L4.45467 87Z" fill="#21D457"/>
</g>
</svg>
