<svg width="35" height="35" viewBox="0 0 35 35" fill="none" xmlns="http://www.w3.org/2000/svg">
<g clip-path="url(#clip0_164_542)">
<path d="M32.0833 14.5833H2.91667C2.11458 14.5833 1.45833 15.2396 1.45833 16.0417V27.7083C1.45833 31.7333 4.725 35 8.75 35H26.25C30.275 35 33.5417 31.7333 33.5417 27.7083V16.0417C33.5417 15.2396 32.8854 14.5833 32.0833 14.5833ZM19.5125 30.625H18.9583C18.9583 31.4271 18.3021 32.0833 17.5 32.0833C16.6979 32.0833 16.0417 31.4271 16.0417 30.625H15.6479C14.0875 30.625 12.6438 29.7938 11.8563 28.4375C11.4479 27.7375 11.6958 26.8479 12.3958 26.4396C13.0958 26.0312 13.9854 26.2792 14.3938 26.9646C14.6563 27.4167 15.1375 27.6938 15.6625 27.6938H19.5125C20.0083 27.6938 20.4167 27.2854 20.4167 26.7896C20.4167 26.3375 20.0958 25.9583 19.6583 25.8854L14.8604 25.0833C13.0083 24.7771 11.6667 23.1875 11.6667 21.3063C11.6667 19.1917 13.3875 17.4854 15.4875 17.4854H16.0417C16.0417 16.6833 16.6979 16.0271 17.5 16.0271C18.3021 16.0271 18.9583 16.6833 18.9583 17.4854H19.3521C20.9125 17.4854 22.3563 18.3167 23.1438 19.6729C23.5521 20.3729 23.3042 21.2625 22.6042 21.6708C21.9042 22.0792 21.0146 21.8313 20.6063 21.1458C20.3438 20.6938 19.8625 20.4167 19.3375 20.4167H15.4875C14.9917 20.4167 14.5833 20.825 14.5833 21.3208C14.5833 21.7729 14.9042 22.1521 15.3417 22.225L20.1396 23.0271C21.9917 23.3333 23.3333 24.9229 23.3333 26.8042C23.3333 28.9187 21.6125 30.625 19.5125 30.625ZM35 7.62708C34.8542 9.93125 32.9292 11.7104 30.625 11.6813H4.375C1.95417 11.6813 0 9.72708 0 7.30625C0 3.26667 3.26667 0 7.29167 0C7.29167 0 27.9125 0 28.0146 0C32.0396 0.175 35.1604 3.5875 34.9854 7.6125L35 7.62708Z" fill="white"/>
</g>
<defs>
<clipPath id="clip0_164_542">
<rect width="35" height="35" fill="white"/>
</clipPath>
</defs>
</svg>
