<svg width="30" height="30" viewBox="0 0 30 30" fill="none" xmlns="http://www.w3.org/2000/svg">
<g clip-path="url(#clip0_164_550)">
<path d="M25 10C25.001 8.10224 24.4619 6.24336 23.4458 4.64054C22.4296 3.03772 20.9784 1.75713 19.2616 0.948381C17.5447 0.139631 15.6332 -0.163891 13.7503 0.0732727C11.8674 0.310437 10.0909 1.07849 8.62821 2.28772C7.16556 3.49695 6.0772 5.09741 5.49027 6.90215C4.90333 8.7069 4.84207 10.6414 5.31362 12.4797C5.78518 14.3179 6.77009 15.984 8.15329 17.2834C9.53649 18.5828 11.2609 19.4617 13.125 19.8175V23.75H10V27.5H13.125V30H16.875V27.5H20V23.75H16.875V19.8175C19.1586 19.3792 21.2185 18.1597 22.701 16.3683C24.1836 14.5769 24.9964 12.3253 25 10ZM8.75 10C8.75 8.76389 9.11656 7.55552 9.80331 6.52771C10.4901 5.4999 11.4662 4.69883 12.6082 4.22578C13.7503 3.75273 15.0069 3.62896 16.2193 3.87012C17.4317 4.11127 18.5453 4.70653 19.4194 5.58061C20.2935 6.45469 20.8887 7.56833 21.1299 8.78071C21.3711 9.99309 21.2473 11.2498 20.7742 12.3918C20.3012 13.5338 19.5001 14.51 18.4723 15.1967C17.4445 15.8835 16.2361 16.25 15 16.25C13.343 16.248 11.7544 15.5889 10.5828 14.4173C9.4111 13.2456 8.75198 11.657 8.75 10Z" fill="white"/>
</g>
<defs>
<clipPath id="clip0_164_550">
<rect width="30" height="30" fill="white"/>
</clipPath>
</defs>
</svg>
