<svg width="36" height="36" viewBox="0 0 36 36" fill="none" xmlns="http://www.w3.org/2000/svg">
<path d="M1 8.38889V4.69444C1 2.6625 2.6625 1 4.69444 1H8.38889M26.8611 1H30.5556C32.5875 1 34.25 2.6625 34.25 4.69444V8.38889M34.25 26.8611V30.5556C34.25 32.5875 32.5875 34.25 30.5556 34.25H26.8611M8.38889 34.25H4.69444C2.6625 34.25 1 32.5875 1 30.5556V26.8611" stroke="white" stroke-width="2" stroke-linecap="round" stroke-linejoin="round"/>
<path d="M19.473 8.38867H10.2369C9.21668 8.38867 8.38965 9.2157 8.38965 10.2359V15.7776C8.38965 16.7978 9.21668 17.6248 10.2369 17.6248H19.473C20.4932 17.6248 21.3202 16.7978 21.3202 15.7776V10.2359C21.3202 9.2157 20.4932 8.38867 19.473 8.38867Z" fill="white" stroke="white" stroke-width="2" stroke-linecap="round" stroke-linejoin="round"/>
<path d="M25.014 17.625H15.7779C14.7577 17.625 13.9307 18.452 13.9307 19.4722V25.0139C13.9307 26.0341 14.7577 26.8611 15.7779 26.8611H25.014C26.0342 26.8611 26.8612 26.0341 26.8612 25.0139V19.4722C26.8612 18.452 26.0342 17.625 25.014 17.625Z" fill="white" stroke="white" stroke-width="2" stroke-linecap="round" stroke-linejoin="round"/>
</svg>
