<svg width="148" height="160" viewBox="0 0 148 160" fill="none" xmlns="http://www.w3.org/2000/svg">
<path opacity="0.3" d="M130 81.4736L127.299 80.5968L114.397 120.307H110.018L123.965 77.3829L121.264 76.5061L107.03 120.307H102.652L117.929 73.2908L115.228 72.414L99.6652 120.307H95.2857L111.892 69.1987L109.191 68.3219L92.3 120.307H87.9204L105.856 65.1066L103.155 64.2298L84.9319 120.307H80.5538L99.8183 61.0159L99.7707 61L99.9324 60.7776L64.4554 35L62.7857 37.2967L96.5654 61.8392L95.212 66.005L58.6979 39.4778L57.0281 41.7744L94.2876 68.8462L92.9341 73.0106L52.9418 43.9541L51.272 46.2508L92.0125 75.8503L90.6591 80.0176L47.1842 48.429L45.5144 50.7257L89.7361 82.8559L88.3827 87.0217L41.4267 52.9068L39.7569 55.2034L87.4597 89.8614L86.1062 94.0272L35.672 57.3831L35.6417 57.425L35.4784 57.1997L0 82.9758L1.66978 85.2724L35.4481 60.7299L38.9913 63.3039L2.47867 89.834L4.14844 92.1307L41.4079 65.0603L44.9526 67.6358L4.95733 96.6922L6.62711 98.9889L47.3677 69.3893L50.9109 71.9633L7.43456 103.55L9.10433 105.847L53.326 73.7198L56.8692 76.2938L9.91322 110.41L11.583 112.707L59.2843 78.0488L62.829 80.6242L12.3919 117.268L12.4208 117.309L12.1593 117.394L25.7111 159.101L28.4122 158.224L15.509 118.513L19.0522 115.939L32.9998 158.863L35.7009 157.986L21.4673 114.184L25.0106 111.609L40.2856 158.624L42.9867 157.747L27.4286 109.854L30.9718 107.28L47.5757 158.386L50.2768 157.509L33.3869 105.524L36.9301 102.95L54.8658 158.148L57.5669 157.271L39.3452 101.195L42.8884 98.6206L62.153 157.911L62.2021 157.895V158.172H106.057V155.332H64.3009L62.9474 151.168H108.079V148.328H62.0259L60.6724 144.164H110.107V141.323H59.7494L58.396 137.158H112.132V134.317H57.473L56.1196 130.153H114.159V127.312H55.1966L53.8431 123.147H116.184V123.095L116.447 123.18L130 81.4736ZM45.305 96.8656L65.2456 82.3792L85.1847 96.8656L77.5681 120.306H52.9216L45.305 96.8656Z" fill="#F84BD7"/>
<g opacity="0.45">
<path d="M106.61 14.116L100.99 33.8251C100.571 35.2572 101.126 36.8064 102.383 37.6573L119.376 49.0871C120.633 49.9381 122.25 49.8441 123.433 48.9154L139.529 36.2708C140.711 35.3421 141.15 33.7476 140.656 32.3705L133.575 13.154C133.046 11.7315 131.672 10.8253 130.181 10.8934L109.793 11.6157C108.267 11.6383 106.994 12.6384 106.61 14.116Z" fill="#F84BD7"/>
</g>
</svg>
