<svg width="35" height="35" viewBox="0 0 35 35" fill="none" xmlns="http://www.w3.org/2000/svg">
<g clip-path="url(#clip0_164_540)">
<path d="M22.6042 33.5417C22.6042 34.3467 21.9508 35 21.1458 35H13.8542C13.0492 35 12.3958 34.3467 12.3958 33.5417C12.3958 31.3542 14.929 29.1667 17.5 29.1667C20.071 29.1667 22.6042 31.3542 22.6042 33.5417ZM4.71188 27.7083C6.72583 27.7083 8.35771 26.0765 8.35771 24.0625C8.35771 22.0485 6.72583 20.4167 4.71188 20.4167C2.69792 20.4167 1.06604 22.0485 1.06604 24.0625C1.06604 26.0765 2.69792 27.7083 4.71188 27.7083ZM17.5 27.7083C19.514 27.7083 21.1458 26.0765 21.1458 24.0625C21.1458 22.0485 19.514 20.4167 17.5 20.4167C15.486 20.4167 13.8542 22.0485 13.8542 24.0625C13.8542 26.0765 15.486 27.7083 17.5 27.7083ZM27.7083 0H7.29167C3.26521 0 0 3.26521 0 7.29167V19.514C1.19438 18.2773 2.86125 17.5 4.71188 17.5C7.83708 17.5 10.449 19.6992 11.1067 22.629C11.7644 19.6992 14.3763 17.5 17.5015 17.5C20.6267 17.5 23.2385 19.6992 23.8963 22.629C24.554 19.6992 27.1658 17.5 30.291 17.5C32.1417 17.5 33.8085 18.2773 35.0029 19.514V7.29167C35.0029 3.26521 31.7377 0 27.7113 0H27.7083ZM30.2881 27.7083C32.3021 27.7083 33.934 26.0765 33.934 24.0625C33.934 22.0485 32.3021 20.4167 30.2881 20.4167C28.2742 20.4167 26.6423 22.0485 26.6423 24.0625C26.6423 26.0765 28.2742 27.7083 30.2881 27.7083ZM30.2604 29.1667C27.8294 29.1667 25.6185 31.411 25.5208 33.5417C25.5208 34.3467 26.1742 35 26.9792 35H33.5417C34.3467 35 35 34.3467 35 33.5417C34.8848 31.4154 32.6885 29.1667 30.2604 29.1667ZM4.73958 29.1667C2.30854 29.1667 0.0977083 31.411 0 33.5417C0 34.3467 0.653333 35 1.45833 35H8.02083C8.82583 35 9.47917 34.3467 9.47917 33.5417C9.36396 31.4154 7.16771 29.1667 4.73958 29.1667Z" fill="white"/>
</g>
<defs>
<clipPath id="clip0_164_540">
<rect width="35" height="35" fill="white"/>
</clipPath>
</defs>
</svg>
