<svg width="37" height="36" viewBox="0 0 37 36" fill="none" xmlns="http://www.w3.org/2000/svg">
<path d="M14.8701 32.7826V26.1304C14.8701 25.3463 15.179 24.5943 15.7289 24.0399C16.6258 23.1355 17.8022 22.1414 17.8022 20.8676V17.3871C17.8022 15.4601 16.8215 13.6238 14.9475 13.175C14.1058 12.9734 13.095 12.8261 11.938 12.8261C10.7811 12.8261 9.77028 12.9734 8.92857 13.175C7.0546 13.6238 6.07393 15.4601 6.07393 17.3871V20.8676C6.07393 22.1414 7.2503 23.1355 8.14721 24.0399C8.69708 24.5943 9.00599 25.3463 9.00599 26.1304V32.7826M35.9985 1H1.00147H35.9985ZM36 35H1H36ZM28.0644 4.69565V31.3043V4.69565ZM28.0644 4.69565C28.0644 5.22487 28.3649 5.88417 28.6786 6.4267C29.0965 7.15104 29.6462 7.78374 30.2737 8.31296C30.7604 8.72391 31.341 9.13043 31.7295 9.13043M28.0644 4.69565C28.0644 5.22487 27.7624 5.88417 27.4486 6.4267C27.0308 7.15104 26.4825 7.78374 25.8551 8.31296C25.3669 8.72391 24.7878 9.13043 24.3993 9.13043M28.0644 31.3043C28.0644 30.7751 28.3649 30.1158 28.6786 29.5733C29.0965 28.849 29.6462 28.2163 30.2737 27.687C30.7604 27.2761 31.341 26.8696 31.7295 26.8696M28.0644 31.3043C28.0644 30.7751 27.7624 30.1158 27.4486 29.5733C27.0299 28.8562 26.4907 28.2179 25.8551 27.687C25.3669 27.2761 24.7878 26.8696 24.3993 26.8696M11.9378 9.86957C11.7943 9.86957 11.6547 9.82996 11.5378 9.74683C10.9884 9.35624 9.3725 8.07715 9.3725 6.54348C9.3725 5.85836 9.64241 5.20129 10.1229 4.71684C10.6033 4.23238 11.2549 3.96022 11.9344 3.96022C12.6138 3.96022 13.2655 4.23238 13.7459 4.71684C14.2264 5.20129 14.4963 5.85836 14.4963 6.54348C14.4963 8.07636 12.8871 9.35492 12.3386 9.74622C12.2215 9.82976 12.0816 9.86957 11.9378 9.86957Z" fill="white"/>
<path d="M14.8701 32.7826V26.1304C14.8701 25.3463 15.179 24.5943 15.7289 24.0399V24.0399C16.6258 23.1355 17.8022 22.1414 17.8022 20.8676V17.3871C17.8022 15.4601 16.8215 13.6238 14.9475 13.175C14.1058 12.9734 13.095 12.8261 11.938 12.8261C10.7811 12.8261 9.77028 12.9734 8.92857 13.175C7.0546 13.6238 6.07393 15.4601 6.07393 17.3871V20.8676C6.07393 22.1414 7.2503 23.1355 8.14721 24.0399V24.0399C8.69708 24.5943 9.00599 25.3463 9.00599 26.1304V32.7826M35.9985 1H1.00147M36 35H1M28.0644 4.69565V31.3043M28.0644 4.69565C28.0644 5.22487 28.3649 5.88417 28.6786 6.4267C29.0965 7.15104 29.6462 7.78374 30.2737 8.31296C30.7604 8.72391 31.341 9.13043 31.7295 9.13043M28.0644 4.69565C28.0644 5.22487 27.7624 5.88417 27.4486 6.4267C27.0308 7.15104 26.4825 7.78374 25.8551 8.31296C25.3669 8.72391 24.7878 9.13043 24.3993 9.13043M28.0644 31.3043C28.0644 30.7751 28.3649 30.1158 28.6786 29.5733C29.0965 28.849 29.6462 28.2163 30.2737 27.687C30.7604 27.2761 31.341 26.8696 31.7295 26.8696M28.0644 31.3043C28.0644 30.7751 27.7624 30.1158 27.4486 29.5733C27.0299 28.8562 26.4907 28.2179 25.8551 27.687C25.3669 27.2761 24.7878 26.8696 24.3993 26.8696M9.3725 6.54348C9.3725 8.07715 10.9884 9.35624 11.5378 9.74683C11.6547 9.82996 11.7943 9.86957 11.9378 9.86957V9.86957C12.0816 9.86957 12.2215 9.82976 12.3386 9.74622C12.8871 9.35492 14.4963 8.07636 14.4963 6.54348C14.4963 5.85835 14.2264 5.20129 13.7459 4.71684C13.2655 4.23238 12.6138 3.96022 11.9344 3.96022C11.2549 3.96022 10.6033 4.23238 10.1229 4.71684C9.64241 5.20129 9.3725 5.85835 9.3725 6.54348Z" stroke="white" stroke-width="2" stroke-linecap="round" stroke-linejoin="round"/>
</svg>
