<svg width="35" height="35" viewBox="0 0 35 35" fill="none" xmlns="http://www.w3.org/2000/svg">
<path d="M24.3833 13.9334C24.3833 15.781 23.6494 17.553 22.3429 18.8595C21.0364 20.166 19.2644 20.8999 17.4168 20.8999C15.5691 20.8999 13.7971 20.166 12.4907 18.8595C11.1842 17.553 10.4502 15.781 10.4502 13.9334C10.4502 12.0857 11.1842 10.3137 12.4907 9.00726C13.7971 7.70077 15.5691 6.9668 17.4168 6.9668C19.2644 6.9668 21.0364 7.70077 22.3429 9.00726C23.6494 10.3137 24.3833 12.0857 24.3833 13.9334Z" fill="white"/>
<path fill-rule="evenodd" clip-rule="evenodd" d="M16.7058 34.8189C7.41679 34.4462 0 26.7969 0 17.4164C0 7.79734 7.79734 0 17.4164 0C27.0355 0 34.8329 7.79734 34.8329 17.4164C34.8329 27.0355 27.0355 34.8329 17.4164 34.8329C17.3369 34.8334 17.2574 34.8334 17.1778 34.8329C17.0202 34.8329 16.8626 34.8276 16.7058 34.8189ZM6.24031 28.4062C6.11009 28.0323 6.06577 27.6338 6.11063 27.2403C6.15549 26.8469 6.28838 26.4686 6.49945 26.1336C6.71051 25.7986 6.99432 25.5154 7.32981 25.305C7.66531 25.0947 8.04387 24.9626 8.43739 24.9186C15.2263 24.167 19.6484 24.235 26.4042 24.9342C26.7982 24.9753 27.1777 25.1057 27.5138 25.3156C27.8498 25.5254 28.1335 25.8092 28.3433 26.1453C28.5531 26.4814 28.6834 26.8609 28.7243 27.255C28.7653 27.649 28.7157 28.0472 28.5795 28.4193C31.4749 25.4897 33.0964 21.5354 33.0912 17.4164C33.0912 8.7596 26.0733 1.74164 17.4164 1.74164C8.7596 1.74164 1.74164 8.7596 1.74164 17.4164C1.74164 21.6974 3.45803 25.5778 6.24031 28.4062Z" fill="white"/>
</svg>
