<svg width="19" height="23" viewBox="0 0 19 23" fill="none" xmlns="http://www.w3.org/2000/svg">
<path fill-rule="evenodd" clip-rule="evenodd" d="M4.59111 1.2178C7.43142 -0.432543 10.9226 -0.403698 13.7363 1.29336C16.5223 3.02499 18.2156 6.11543 18.1998 9.43988C18.1349 12.7425 16.3193 15.847 14.0497 18.2469C12.7398 19.6383 11.2744 20.8687 9.68349 21.9129C9.51965 22.0076 9.34017 22.071 9.15393 22.1C8.97468 22.0924 8.80011 22.0394 8.64598 21.9459C6.21715 20.3769 4.08633 18.3742 2.35603 16.0342C0.908164 14.0808 0.0855849 11.7208 0 9.27474C-0.00187959 5.94392 1.75079 2.86815 4.59111 1.2178ZM6.23224 10.6529C6.71002 11.8308 7.83776 12.5991 9.08891 12.5991C9.90856 12.605 10.6965 12.2767 11.2771 11.6873C11.8577 11.0979 12.1828 10.2965 12.1798 9.46157C12.1842 8.18712 11.4339 7.03568 10.2793 6.54488C9.12462 6.05408 7.79338 6.32073 6.90714 7.22033C6.02089 8.11993 5.75446 9.47502 6.23224 10.6529Z" fill="url(#paint0_linear_955_9756)"/>
<defs>
<linearGradient id="paint0_linear_955_9756" x1="0.91" y1="-1.17413e-07" x2="17.9073" y2="27.1453" gradientUnits="userSpaceOnUse">
<stop stop-color="#34C8E8"/>
<stop offset="1" stop-color="#4E4AF2"/>
</linearGradient>
</defs>
</svg>
