<svg width="13" height="15" viewBox="0 0 13 15" fill="none" xmlns="http://www.w3.org/2000/svg">
<path d="M6.46234 4C5.97533 4 5.49927 4.14441 5.09434 4.41498C4.68941 4.68554 4.3738 5.07011 4.18744 5.52004C4.00107 5.96997 3.9523 6.46507 4.04731 6.94271C4.14232 7.42036 4.37684 7.85911 4.7212 8.20347C5.06557 8.54783 5.50431 8.78235 5.98196 8.87736C6.45961 8.97237 6.9547 8.92361 7.40463 8.73724C7.85457 8.55087 8.23913 8.23527 8.5097 7.83034C8.78026 7.42541 8.92467 6.94934 8.92467 6.46234C8.92467 5.80928 8.66525 5.18298 8.20347 4.7212C7.74169 4.25942 7.11539 4 6.46234 4ZM6.46234 7.6935C6.21884 7.6935 5.9808 7.6213 5.77834 7.48601C5.57587 7.35073 5.41807 7.15845 5.32489 6.93348C5.2317 6.70852 5.20732 6.46097 5.25483 6.22215C5.30233 5.98332 5.41959 5.76395 5.59177 5.59177C5.76395 5.41959 5.98333 5.30233 6.22215 5.25482C6.46097 5.20732 6.70852 5.2317 6.93349 5.32489C7.15845 5.41807 7.35073 5.57587 7.48602 5.77834C7.6213 5.9808 7.69351 6.21883 7.69351 6.46234C7.69351 6.78886 7.56379 7.10201 7.3329 7.3329C7.10202 7.56379 6.78886 7.6935 6.46234 7.6935Z" fill="white"/>
<path d="M6.1897 14.7752C5.67134 14.7779 5.15989 14.6563 4.69818 14.4207C4.23646 14.1851 3.83792 13.8423 3.53591 13.421C1.18992 10.1848 0 7.75205 0 6.1897C0 4.54809 0.652127 2.97371 1.81292 1.81292C2.97371 0.652127 4.54809 0 6.1897 0C7.83131 0 9.40568 0.652127 10.5665 1.81292C11.7273 2.97371 12.3794 4.54809 12.3794 6.1897C12.3794 7.75205 11.1895 10.1848 8.84348 13.421C8.54148 13.8423 8.14293 14.1851 7.68122 14.4207C7.2195 14.6563 6.70805 14.7779 6.1897 14.7752ZM6.1897 1.34382C4.90461 1.34529 3.67259 1.85643 2.76389 2.76512C1.8552 3.67382 1.34405 4.90585 1.34259 6.19093C1.34259 7.42825 2.50789 9.71638 4.62304 12.6336C4.8026 12.881 5.03817 13.0823 5.31047 13.2211C5.58277 13.3599 5.88406 13.4322 6.1897 13.4322C6.49533 13.4322 6.79663 13.3599 7.06893 13.2211C7.34123 13.0823 7.5768 12.881 7.75636 12.6336C9.87151 9.71638 11.0368 7.42825 11.0368 6.19093C11.0353 4.90585 10.5242 3.67382 9.6155 2.76512C8.70681 1.85643 7.47478 1.34529 6.1897 1.34382Z" fill="white"/>
</svg>
