<svg width="24" height="24" viewBox="0 0 24 24" fill="none" xmlns="http://www.w3.org/2000/svg">
<g opacity="0.7" clip-path="url(#clip0_164_532)">
<path d="M10.5 23H4.5C2.57 23 1 21.43 1 19.5V12.5C1 10.57 2.57 9 4.5 9H14.5C15.115 9 15.72 9.162 16.25 9.468C16.489 9.607 16.795 9.524 16.933 9.286C17.072 9.047 16.99 8.741 16.751 8.603C16.512 8.465 16.259 8.359 16.001 8.267V6.5C16.001 2.916 13.085 0 9.501 0C5.917 0 3 2.916 3 6.5V8.276C1.258 8.897 0 10.547 0 12.5V19.5C0 21.981 2.019 24 4.5 24H10.5C10.776 24 11 23.776 11 23.5C11 23.224 10.776 23 10.5 23ZM4 6.5C4 3.467 6.467 1 9.5 1C12.533 1 15 3.467 15 6.5V8.033C14.834 8.015 14.668 8 14.5 8H4.5C4.329 8 4.166 8.032 4 8.051V6.5ZM9.5 15C9.776 15 10 15.224 10 15.5V17.5C10 17.776 9.776 18 9.5 18C9.224 18 9 17.776 9 17.5V15.5C9 15.224 9.224 15 9.5 15ZM17.5 11C13.916 11 11 13.916 11 17.5C11 21.084 13.916 24 17.5 24C21.084 24 24 21.084 24 17.5C24 13.916 21.084 11 17.5 11ZM17.5 23C14.467 23 12 20.532 12 17.5C12 14.468 14.467 12 17.5 12C20.533 12 23 14.468 23 17.5C23 20.532 20.533 23 17.5 23ZM20.85 16.143C21.042 16.341 21.037 16.658 20.838 16.85L18.135 19.464C17.775 19.819 17.3 19.997 16.824 19.997C16.348 19.997 15.875 19.82 15.512 19.466L14.148 18.119C13.951 17.926 13.949 17.609 14.143 17.412C14.337 17.217 14.654 17.214 14.85 17.408L16.213 18.753C16.55 19.083 17.099 19.079 17.436 18.749L20.142 16.131C20.342 15.94 20.659 15.944 20.85 16.143Z" fill="white"/>
</g>
<defs>
<clipPath id="clip0_164_532">
<rect width="24" height="24" fill="white"/>
</clipPath>
</defs>
</svg>
