<svg width="17" height="21" viewBox="0 0 17 21" fill="none" xmlns="http://www.w3.org/2000/svg">
<path d="M9.03125 16.3333C9.03125 16.1676 8.97528 16.0086 8.87565 15.8914C8.77602 15.7742 8.6409 15.7083 8.5 15.7083H4.25C4.20303 15.7083 4.15799 15.6864 4.12478 15.6473C4.09157 15.6082 4.07292 15.5553 4.07292 15.5V5.50001C4.07292 5.44475 4.09157 5.39176 4.12478 5.35269C4.15799 5.31362 4.20303 5.29167 4.25 5.29167H8.5C8.6409 5.29167 8.77602 5.22582 8.87565 5.10861C8.97528 4.9914 9.03125 4.83243 9.03125 4.66667C9.03125 4.50091 8.97528 4.34194 8.87565 4.22473C8.77602 4.10752 8.6409 4.04167 8.5 4.04167H4.25C3.56575 4.04167 3.01042 4.695 3.01042 5.50001V15.5C3.01042 15.8868 3.14102 16.2577 3.37348 16.5312C3.60595 16.8047 3.92124 16.9583 4.25 16.9583H8.5C8.6409 16.9583 8.77602 16.8925 8.87565 16.7753C8.97528 16.6581 9.03125 16.4991 9.03125 16.3333Z" fill="#D30000"/>
<path d="M5.9415 11.4292C5.9415 11.6502 6.01613 11.8621 6.14896 12.0184C6.2818 12.1747 6.46197 12.2625 6.64983 12.2625H10.0895C10.1058 12.5592 10.1263 12.8542 10.1504 13.1508L10.1717 13.405C10.1796 13.5008 10.207 13.5929 10.2516 13.6736C10.2963 13.7542 10.3568 13.821 10.4281 13.8683C10.4993 13.9156 10.5792 13.9419 10.661 13.9451C10.7427 13.9483 10.8239 13.9283 10.8977 13.8867C12.1926 13.1566 13.3648 12.1575 14.3579 10.9375L14.3792 10.9117C14.4703 10.7998 14.5212 10.6508 14.5212 10.4958C14.5212 10.3408 14.4703 10.1919 14.3792 10.08L14.3579 10.0542C13.3648 8.83414 12.1926 7.83507 10.8977 7.10499C10.8239 7.06339 10.7427 7.04334 10.661 7.04653C10.5792 7.04973 10.4993 7.07608 10.4281 7.12336C10.3568 7.17063 10.2963 7.23743 10.2516 7.31808C10.207 7.39874 10.1796 7.49087 10.1717 7.58666L10.1504 7.84083C10.1263 8.13666 10.1058 8.43249 10.0895 8.72916H6.64983C6.46197 8.72916 6.2818 8.81696 6.14896 8.97324C6.01613 9.12952 5.9415 9.34148 5.9415 9.56249V11.4292Z" fill="#D30000"/>
</svg>
