<svg width="30" height="30" viewBox="0 0 30 30" fill="none" xmlns="http://www.w3.org/2000/svg">
<g clip-path="url(#clip0_164_548)">
<path d="M26.8724 0.012207H20.0186V3.75066H23.6062L17.7842 9.57266C12.7224 5.97061 5.69899 7.15391 2.09688 12.2157C-1.50523 17.2775 -0.321871 24.301 4.73993 27.9031C9.80172 31.5051 16.8252 30.3218 20.4273 25.26C23.2056 21.3557 23.2056 16.12 20.4273 12.2158L26.2493 6.39377V9.98141H29.9877V3.12758C29.9878 1.40703 28.593 0.012207 26.8724 0.012207ZM11.2956 26.1813C7.16618 26.1813 3.81871 22.8338 3.81871 18.7044C3.81871 14.5751 7.16623 11.2276 11.2956 11.2276C15.4249 11.2276 18.7724 14.5751 18.7724 18.7044C18.7683 22.8321 15.4233 26.1772 11.2956 26.1813Z" fill="white"/>
</g>
<defs>
<clipPath id="clip0_164_548">
<rect width="30" height="30" fill="white"/>
</clipPath>
</defs>
</svg>
