<svg width="24" height="24" viewBox="0 0 24 24" fill="none" xmlns="http://www.w3.org/2000/svg">
<g opacity="0.7" clip-path="url(#clip0_164_525)">
<path d="M15.5 0H8.5C6.019 0 4 2.019 4 4.5V19.5C4 21.981 6.019 24 8.5 24H15.5C17.981 24 20 21.981 20 19.5V4.5C20 2.019 17.981 0 15.5 0ZM14.807 1L14.482 1.974C14.277 2.588 13.705 3 13.059 3H10.942C10.296 3 9.724 2.588 9.519 1.974L9.194 1H14.807ZM19 19.5C19 21.43 17.43 23 15.5 23H8.5C6.57 23 5 21.43 5 19.5V4.5C5 2.69 6.387 1.213 8.151 1.035L8.569 2.29C8.91 3.312 9.863 3.999 10.941 3.999H13.058C14.136 3.999 15.089 3.312 15.43 2.29L15.848 1.035C17.612 1.213 18.999 2.689 18.999 4.5L19 19.5Z" fill="white"/>
<path d="M13.5 20H10.5C10.224 20 10 20.224 10 20.5C10 20.776 10.224 21 10.5 21H13.5C13.776 21 14 20.776 14 20.5C14 20.224 13.776 20 13.5 20Z" fill="white"/>
</g>
<defs>
<clipPath id="clip0_164_525">
<rect width="24" height="24" fill="white"/>
</clipPath>
</defs>
</svg>
