<svg width="146" height="153" viewBox="0 0 146 153" fill="none" xmlns="http://www.w3.org/2000/svg">
<g opacity="0.45">
<path fill-rule="evenodd" clip-rule="evenodd" d="M29.0316 34.8379C29.7221 34.8379 30.3623 34.4681 30.7076 33.8701L39.7411 18.3863C40.0863 17.7883 40.0863 17.0487 39.7411 16.4508L30.7076 0.966871C30.3623 0.368928 29.7221 -0.000872731 29.0316 -0.000872731H10.9671C10.2767 -0.000872731 9.63641 0.368928 9.29119 0.966871L0.258914 16.4508C-0.0863063 17.0487 -0.0863063 17.7883 0.258914 18.3863L9.29119 33.8701C9.63641 34.4681 10.2767 34.8379 10.9671 34.8379H29.0316Z" fill="#FC9355"/>
</g>
<g opacity="0.3">
<path d="M117.238 66.2871L94.6504 50.0371H66.8629L44.4379 66.2871L36.1504 92.4496L44.9254 118.612L67.5129 134.862H95.3004L117.725 118.612L125.85 92.4496L117.238 66.2871ZM113.825 116.012L93.6754 130.637H68.6504L48.3379 116.012L40.5379 92.4496L48.1754 68.8871L68.3254 54.2621H93.3504L113.663 68.8871L121.463 92.4496L113.825 116.012Z" fill="#FC9355"/>
<path d="M133.162 55.4L100.338 32.1625L60.2 32L28.025 54.9125L16 92.125L28.8375 129.5L61.6625 152.737L101.8 152.9L133.975 129.987L146 92.775L133.162 55.4ZM130.4 127.388L100.5 148.675L62.9625 148.512L32.4125 126.737L20.55 91.9625L31.6 57.5125L61.5 36.225L98.875 36.3875L129.425 58L141.287 92.775L130.4 127.388Z" fill="#FC9355"/>
<path d="M126.012 60.5996L97.7371 40.6121L63.1246 40.2871L35.3371 60.1121L25.0996 92.1246L36.1496 124.3L64.4246 144.287L98.8746 144.612L126.662 124.95L136.9 92.9371L126.012 60.5996ZM123.087 122.187L97.5746 140.225L65.7246 140.062L39.5621 121.7L29.3246 92.1246L38.7496 62.7121L64.2621 44.6746L96.1121 44.8371L122.112 63.3621L132.35 92.9371L123.087 122.187Z" fill="#FC9355"/>
<path d="M108.301 72.4629L91.4012 60.2754H70.4387L53.5387 72.6254L47.2012 92.4504L53.7012 112.275L70.6012 124.463H91.5637L108.464 112.113L114.964 92.1254L108.301 72.4629ZM104.889 109.675L90.2637 120.4H72.0637L57.2762 109.838L51.5887 92.4504L57.1137 75.2254L71.7387 64.5004H89.9387L104.726 75.0629L110.414 92.4504L104.889 109.675Z" fill="#FC9355"/>
</g>
</svg>
