<svg width="35" height="35" viewBox="0 0 35 35" fill="none" xmlns="http://www.w3.org/2000/svg">
<g clip-path="url(#clip0_164_538)">
<path d="M26.25 30.625H7.29167C3.26667 30.625 0 27.3583 0 23.3333V13.125C0 12.3229 0.65625 11.6667 1.45833 11.6667C2.26042 11.6667 2.91667 12.3229 2.91667 13.125V23.3333C2.91667 25.7396 4.88542 27.7083 7.29167 27.7083H26.25C27.0521 27.7083 27.7083 28.3646 27.7083 29.1667C27.7083 29.9688 27.0521 30.625 26.25 30.625ZM20.4167 13.125C19.6146 13.125 18.9583 13.7813 18.9583 14.5833C18.9583 15.3854 19.6146 16.0417 20.4167 16.0417C21.2188 16.0417 21.875 15.3854 21.875 14.5833C21.875 13.7813 21.2188 13.125 20.4167 13.125ZM35 10.2083V18.9583C35 22.1813 32.3896 24.7917 29.1667 24.7917H11.6667C8.44375 24.7917 5.83333 22.1813 5.83333 18.9583V10.2083C5.83333 6.98542 8.44375 4.375 11.6667 4.375H29.1667C32.3896 4.375 35 6.98542 35 10.2083ZM24.7917 14.5833C24.7917 12.1771 22.8229 10.2083 20.4167 10.2083C18.0104 10.2083 16.0417 12.1771 16.0417 14.5833C16.0417 16.9896 18.0104 18.9583 20.4167 18.9583C22.8229 18.9583 24.7917 16.9896 24.7917 14.5833Z" fill="white"/>
</g>
<defs>
<clipPath id="clip0_164_538">
<rect width="35" height="35" fill="white"/>
</clipPath>
</defs>
</svg>
