<svg width="30" height="30" viewBox="0 0 30 30" fill="none" xmlns="http://www.w3.org/2000/svg">
<g clip-path="url(#clip0_164_552)">
<path d="M16.25 18.75H13.75C12.3712 18.75 11.25 17.6288 11.25 16.25V13.75C11.25 12.3712 12.3712 11.25 13.75 11.25H16.25C17.6288 11.25 18.75 12.3712 18.75 13.75V16.25C18.75 17.6288 17.6288 18.75 16.25 18.75ZM26.25 18.75H23.75C22.3712 18.75 21.25 17.6288 21.25 16.25V13.75C21.25 12.3712 22.3712 11.25 23.75 11.25H26.25C27.6288 11.25 28.75 12.3712 28.75 13.75V16.25C28.75 17.6288 27.6288 18.75 26.25 18.75ZM6.25 18.75H3.75C2.37125 18.75 1.25 17.6288 1.25 16.25V13.75C1.25 12.3712 2.37125 11.25 3.75 11.25H6.25C7.62875 11.25 8.75 12.3712 8.75 13.75V16.25C8.75 17.6288 7.62875 18.75 6.25 18.75ZM10 28.75C10 28.06 9.44 27.5 8.75 27.5H6.25C4.1825 27.5 2.5 25.8175 2.5 23.75V21.25C2.5 20.56 1.94 20 1.25 20C0.56 20 0 20.56 0 21.25V23.75C0 27.1962 2.80375 30 6.25 30H8.75C9.44 30 10 29.44 10 28.75ZM30 23.75V21.25C30 20.56 29.44 20 28.75 20C28.06 20 27.5 20.56 27.5 21.25V23.75C27.5 25.8175 25.8175 27.5 23.75 27.5H21.25C20.56 27.5 20 28.06 20 28.75C20 29.44 20.56 30 21.25 30H23.75C27.1962 30 30 27.1962 30 23.75ZM30 8.75V6.25C30 2.80375 27.1962 0 23.75 0H21.25C20.56 0 20 0.56 20 1.25C20 1.94 20.56 2.5 21.25 2.5H23.75C25.8175 2.5 27.5 4.1825 27.5 6.25V8.75C27.5 9.44 28.06 10 28.75 10C29.44 10 30 9.44 30 8.75ZM2.5 8.75V6.25C2.5 4.1825 4.1825 2.5 6.25 2.5H8.75C9.44 2.5 10 1.94 10 1.25C10 0.56 9.44 0 8.75 0H6.25C2.80375 0 0 2.80375 0 6.25V8.75C0 9.44 0.56 10 1.25 10C1.94 10 2.5 9.44 2.5 8.75Z" fill="white"/>
</g>
<defs>
<clipPath id="clip0_164_552">
<rect width="30" height="30" fill="white"/>
</clipPath>
</defs>
</svg>
