<svg width="24" height="24" viewBox="0 0 24 24" fill="none" xmlns="http://www.w3.org/2000/svg">
<path fill-rule="evenodd" clip-rule="evenodd" d="M6.56374 5.25099C6.56374 3.85834 7.11696 2.52273 8.10172 1.53798C9.08647 0.553227 10.4221 0 11.8147 0C13.2074 0 14.543 0.553227 15.5277 1.53798C16.5125 2.52273 17.0657 3.85834 17.0657 5.25099C17.0657 6.64364 16.5125 7.97925 15.5277 8.964C14.543 9.94875 13.2074 10.502 11.8147 10.502C10.4221 10.502 9.08647 9.94875 8.10172 8.964C7.11696 7.97925 6.56374 6.64364 6.56374 5.25099ZM6.56374 13.1275C4.82293 13.1275 3.15341 13.819 1.92247 15.0499C0.691534 16.2809 0 17.9504 0 19.6912C0 20.7357 0.414921 21.7374 1.15348 22.476C1.89205 23.2145 2.89375 23.6294 3.93824 23.6294H19.6912C20.7357 23.6294 21.7374 23.2145 22.476 22.476C23.2145 21.7374 23.6294 20.7357 23.6294 19.6912C23.6294 17.9504 22.9379 16.2809 21.707 15.0499C20.476 13.819 18.8065 13.1275 17.0657 13.1275H6.56374Z" fill="white"/>
</svg>
