<svg width="20" height="20" viewBox="0 0 20 20" fill="none" xmlns="http://www.w3.org/2000/svg">
<path d="M0.00206685 6.53782C-0.0209331 6.94882 0.209067 7.33182 0.583067 7.50382L8.08707 10.9458L11.5291 18.4488C11.6931 18.8048 12.0491 19.0318 12.4381 19.0318L12.4951 19.0298C12.6958 19.0186 12.8884 18.9471 13.0479 18.8247C13.2074 18.7024 13.3263 18.5348 13.3891 18.3438L18.9841 1.31182C19.1011 0.953822 19.0071 0.558822 18.7411 0.291822C18.4751 0.0248225 18.0811 -0.0661776 17.7211 0.0488224L0.688067 5.64482C0.497048 5.7072 0.329337 5.82585 0.206922 5.9852C0.0845063 6.14455 0.0131008 6.33718 0.00206685 6.53782Z" fill="white"/>
</svg>
