<svg width="24" height="24" viewBox="0 0 24 24" fill="none" xmlns="http://www.w3.org/2000/svg">
<path d="M17.8374 16.9857L15.6115 14.7778C16.4755 13.7005 16.894 12.3331 16.7807 10.9568C16.6675 9.58048 16.0313 8.29984 15.0029 7.37821C13.9744 6.45657 12.632 5.964 11.2515 6.00178C9.87106 6.03955 8.55754 6.6048 7.58105 7.58129C6.60456 8.55779 6.03931 9.87131 6.00153 11.2518C5.96376 12.6322 6.45633 13.9747 7.37796 15.0031C8.29959 16.0315 9.58024 16.6678 10.9566 16.781C12.3329 16.8942 13.7003 16.4758 14.7776 15.6118L16.9854 17.8196C17.0412 17.8759 17.1076 17.9205 17.1807 17.951C17.2538 17.9814 17.3322 17.9971 17.4114 17.9971C17.4906 17.9971 17.569 17.9814 17.6422 17.951C17.7153 17.9205 17.7816 17.8759 17.8374 17.8196C17.9455 17.7078 18.006 17.5583 18.006 17.4027C18.006 17.2471 17.9455 17.0976 17.8374 16.9857V16.9857ZM11.4118 15.6118C10.5811 15.6118 9.76914 15.3655 9.07849 14.904C8.38784 14.4425 7.84954 13.7866 7.53167 13.0192C7.2138 12.2518 7.13063 11.4073 7.29268 10.5927C7.45473 9.77799 7.85472 9.02966 8.44207 8.44231C9.02942 7.85497 9.77774 7.45498 10.5924 7.29293C11.4071 7.13088 12.2515 7.21405 13.0189 7.53192C13.7863 7.84979 14.4423 8.38808 14.9037 9.07873C15.3652 9.76938 15.6115 10.5814 15.6115 11.412C15.6115 12.5258 15.169 13.5941 14.3814 14.3817C13.5938 15.1693 12.5256 15.6118 11.4118 15.6118V15.6118Z" fill="#FAFEFF"/>
</svg>
