<svg width="24" height="24" viewBox="0 0 24 24" fill="none" xmlns="http://www.w3.org/2000/svg">
<path fill-rule="evenodd" clip-rule="evenodd" d="M14.0272 0.179584C13.5671 -5.28159e-08 12.9826 0 11.8148 0C10.647 0 10.0638 -5.28159e-08 9.60239 0.179584C8.98985 0.41849 8.50226 0.878738 8.24684 1.45912C8.12994 1.72259 8.08517 2.03095 8.06652 2.47873C8.05823 2.80317 7.96297 3.12023 7.78975 3.39995C7.61653 3.67966 7.37108 3.91278 7.0766 4.07726C6.77657 4.2357 6.4393 4.31964 6.09603 4.32129C5.75277 4.32294 5.41462 4.24226 5.11292 4.08671C4.69258 3.87641 4.38789 3.76063 4.08693 3.72282C3.4285 3.64069 2.76257 3.80883 2.23394 4.19068C1.83846 4.4766 1.54621 4.95391 0.962955 5.90736C0.378453 6.86081 0.0874459 7.33694 0.0215339 7.80363C-0.0655195 8.42508 0.113562 9.05362 0.518983 9.55102C0.703039 9.77787 0.962955 9.96808 1.36465 10.2067C1.95785 10.5576 2.3384 11.1555 2.3384 11.8147C2.3384 12.474 1.95785 13.0718 1.36589 13.4215C0.962955 13.6614 0.703038 13.8516 0.517739 14.0784C0.317619 14.3241 0.17073 14.605 0.085561 14.9049C0.000391606 15.2049 -0.02137 15.5179 0.0215339 15.8258C0.0874459 16.2913 0.378453 16.7686 0.962955 17.7221C1.54746 18.6755 1.83846 19.1517 2.23394 19.4388C2.76123 19.8204 3.42781 19.9882 4.08693 19.9066C4.38789 19.8688 4.69258 19.753 5.11292 19.5427C5.41478 19.387 5.75316 19.3062 6.09666 19.3078C6.44016 19.3095 6.77766 19.3935 7.07784 19.5522C7.68224 19.883 8.0404 20.4915 8.06652 21.1507C8.08517 21.5997 8.12994 21.9069 8.24684 22.1703C8.50054 22.7493 8.98804 23.21 9.60239 23.4499C10.0625 23.6294 10.647 23.6295 11.8148 23.6295C12.9826 23.6295 13.5671 23.6294 14.0272 23.4499C14.6397 23.211 15.1273 22.7507 15.3827 22.1703C15.4996 21.9069 15.5444 21.5997 15.5631 21.1507C15.5879 20.4915 15.9473 19.8818 16.553 19.5522C16.853 19.3937 17.1903 19.3098 17.5336 19.3082C17.8768 19.3065 18.215 19.3872 18.5167 19.5427C18.937 19.753 19.2417 19.8688 19.5427 19.9066C20.2018 19.9893 20.8684 19.8204 21.3957 19.4388C21.7911 19.1529 22.0834 18.6755 22.6666 17.7221C23.2511 16.7686 23.5421 16.2925 23.6081 15.8258C23.6508 15.5178 23.6288 15.2048 23.5434 14.9048C23.4581 14.6049 23.3109 14.324 23.1106 14.0784C22.9265 13.8516 22.6666 13.6614 22.2649 13.4227C21.6717 13.0718 21.2912 12.474 21.2912 11.8147C21.2912 11.1555 21.6717 10.5576 22.2637 10.2079C22.6666 9.96808 22.9265 9.77787 23.1118 9.55102C23.312 9.30535 23.4589 9.02443 23.544 8.7245C23.6292 8.42458 23.651 8.11159 23.6081 7.80363C23.5421 7.33813 23.2511 6.86081 22.6666 5.90736C22.0821 4.95391 21.7911 4.47778 21.3957 4.19068C20.867 3.80883 20.2011 3.64069 19.5427 3.72282C19.2417 3.76063 18.937 3.87641 18.5167 4.08671C18.2148 4.24247 17.8764 4.32326 17.5329 4.32161C17.1894 4.31996 16.8519 4.23591 16.5517 4.07726C16.2575 3.91264 16.0123 3.67945 15.8393 3.39975C15.6663 3.12004 15.5712 2.80305 15.5631 2.47873C15.5444 2.02977 15.4996 1.72259 15.3827 1.45912C15.2563 1.17171 15.0716 0.910777 14.839 0.69123C14.6064 0.471683 14.3305 0.297823 14.0272 0.179584ZM11.8148 15.3591C13.8916 15.3591 15.5743 13.7724 15.5743 11.8147C15.5743 9.85703 13.8904 8.27031 11.8148 8.27031C9.73795 8.27031 8.05533 9.85703 8.05533 11.8147C8.05533 13.7724 9.73919 15.3591 11.8148 15.3591Z" fill="white"/>
</svg>
