<svg width="45" height="45" viewBox="0 0 45 45" fill="none" xmlns="http://www.w3.org/2000/svg">
<path d="M22.5 0C18.0499 0 13.6998 1.3196 9.99968 3.79193C6.29957 6.26426 3.41569 9.77828 1.71272 13.8896C0.00974881 18.001 -0.435826 22.525 0.432341 26.8895C1.30051 31.2541 3.44343 35.2632 6.59011 38.4099C9.73679 41.5566 13.7459 43.6995 18.1105 44.5677C22.475 45.4358 26.999 44.9903 31.1104 43.2873C35.2217 41.5843 38.7357 38.7004 41.2081 35.0003C43.6804 31.3002 45 26.9501 45 22.5C44.9887 16.5361 42.6145 10.8197 38.3974 6.60261C34.1803 2.38549 28.4639 0.0113275 22.5 0ZM29.8929 26.8929C30.2024 27.3055 30.3526 27.816 30.316 28.3305C30.2795 28.845 30.0585 29.3291 29.6938 29.6938C29.3291 30.0585 28.845 30.2795 28.3305 30.316C27.816 30.3526 27.3055 30.2023 26.8929 29.8929L22.5 25.4946L18.1071 29.8929C17.6945 30.2023 17.1841 30.3526 16.6695 30.316C16.155 30.2795 15.6709 30.0585 15.3062 29.6938C14.9415 29.3291 14.7205 28.845 14.684 28.3305C14.6474 27.816 14.7977 27.3055 15.1072 26.8929L19.5054 22.5L15.1072 18.1071C14.7977 17.6945 14.6474 17.184 14.684 16.6695C14.7205 16.155 14.9415 15.6709 15.3062 15.3062C15.6709 14.9415 16.155 14.7205 16.6695 14.684C17.1841 14.6474 17.6945 14.7977 18.1071 15.1071L22.5 19.5054L26.8929 15.1071C27.3055 14.7977 27.816 14.6474 28.3305 14.684C28.845 14.7205 29.3291 14.9415 29.6938 15.3062C30.0585 15.6709 30.2795 16.155 30.316 16.6695C30.3526 17.184 30.2024 17.6945 29.8929 18.1071L25.4946 22.5L29.8929 26.8929Z" fill="white"/>
</svg>
