<svg width="45" height="45" viewBox="0 0 45 45" fill="none" xmlns="http://www.w3.org/2000/svg">
<path d="M22.5 0C10.0781 0 0 10.0781 0 22.5C0 34.9219 10.0781 45 22.5 45C34.9219 45 45 34.9219 45 22.5C45 10.0781 34.9219 0 22.5 0ZM34.0781 17.0625L20.8594 30.3281C20.4375 30.75 19.8281 31.0312 19.2188 31.0312C18.6094 31.0312 18 30.7969 17.5781 30.3281L10.9219 23.6719C9.98438 22.7344 9.98438 21.2812 10.9219 20.3438C11.8594 19.4062 13.3125 19.4062 14.25 20.3438L19.2188 25.3125L30.7969 13.7344C31.7344 12.7969 33.1875 12.7969 34.125 13.7344C35.0156 14.6719 35.0156 16.125 34.0781 17.0625Z" fill="white"/>
</svg>
