<svg width="40" height="50" viewBox="0 0 40 50" fill="none" xmlns="http://www.w3.org/2000/svg">
<path d="M38.3877 35.5039H25.8877C25.3377 35.5039 24.8877 35.9539 24.8877 36.5039V49.0039C24.8877 49.4039 25.1377 49.7738 25.5077 49.924C25.6277 49.9739 25.7577 50.0039 25.8877 50.0039C26.1477 50.0039 26.4077 49.8939 26.5977 49.7039L39.0877 37.2139C39.3777 36.924 39.4677 36.4939 39.3077 36.1239C39.1577 35.7539 38.7877 35.5039 38.3877 35.5039Z" fill="white"/>
<path d="M38.3848 10.6152H35.916V20.3545C35.916 24.5908 32.4697 28.0371 28.2334 28.0371C24.6104 28.0371 21.5645 25.5156 20.7588 22.1348C20.2432 22.5557 19.584 22.8076 18.8682 22.8076C17.2139 22.8076 15.8682 21.4619 15.8682 19.8076V10.6152H1C0.447266 10.6152 0 11.0625 0 11.6152V49C0 49.5527 0.447266 50 1 50H23.0687C22.9552 49.6835 22.8877 49.3486 22.8877 49.0039V36.5039C22.8877 34.8496 24.2334 33.5039 25.8877 33.5039H38.3877C38.733 33.5039 39.0681 33.5714 39.3848 33.6853V11.6152C39.3848 11.0625 38.9375 10.6152 38.3848 10.6152Z" fill="white"/>
<path d="M18.8682 20.8076C19.4209 20.8076 19.8682 20.3604 19.8682 19.8076V8.4375L25.8916 2.41406L31.916 8.4375V20.3545C31.916 22.3848 30.2637 24.0371 28.2334 24.0371C26.2031 24.0371 24.5508 22.3848 24.5508 20.3545V9.35059C24.5508 8.61133 25.1523 8.00977 25.8916 8.00977C26.6318 8.00977 27.2334 8.61133 27.2334 9.35059V11.6152C27.2334 12.168 27.6807 12.6152 28.2334 12.6152C28.7861 12.6152 29.2334 12.168 29.2334 11.6152V9.35059C29.2334 7.50879 27.7344 6.00977 25.8916 6.00977C24.0498 6.00977 22.5508 7.50879 22.5508 9.35059V20.3545C22.5508 23.4883 25.0996 26.0371 28.2334 26.0371C31.3672 26.0371 33.916 23.4883 33.916 20.3545V8.02344C33.916 7.75781 33.8105 7.50391 33.623 7.31641L26.5986 0.292969C26.208 -0.0976562 25.5752 -0.0976562 25.1846 0.292969L18.1611 7.31641C17.9736 7.50391 17.8682 7.75781 17.8682 8.02344V19.8076C17.8682 20.3604 18.3154 20.8076 18.8682 20.8076Z" fill="white"/>
</svg>
