<svg width="36" height="36" viewBox="0 0 36 36" fill="none" xmlns="http://www.w3.org/2000/svg">
<path fill-rule="evenodd" clip-rule="evenodd" d="M2.91224 0C1.31269 0 0 1.31813 0 2.91849V13.5307C0 15.1311 1.31269 16.4492 2.91224 16.4492H13.4928C15.0924 16.4492 16.4051 15.131 16.4051 13.5307V2.91849C16.4051 1.31815 15.0924 0 13.4928 0H2.91224Z" fill="white"/>
<path fill-rule="evenodd" clip-rule="evenodd" d="M22.5069 0C20.9099 0 19.5947 1.31622 19.5947 2.91849V13.5307C19.5947 15.133 20.9099 16.4492 22.5069 16.4492H33.0917C34.6887 16.4492 35.9999 15.131 35.9999 13.5307V2.91849C35.9999 1.31815 34.6887 0 33.0917 0H22.5069Z" fill="white"/>
<path fill-rule="evenodd" clip-rule="evenodd" d="M2.91224 19.5469C1.31073 19.5469 0 20.8675 0 22.4654V33.0817C0 34.6795 1.31073 36.0001 2.91224 36.0001H13.4928C15.0944 36.0001 16.4051 34.6795 16.4051 33.0817V22.4654C16.4051 20.8675 15.0944 19.5469 13.4928 19.5469H2.91224Z" fill="white"/>
<path fill-rule="evenodd" clip-rule="evenodd" d="M22.5069 19.5469C20.9079 19.5469 19.5947 20.8656 19.5947 22.4654V33.0817C19.5947 34.6814 20.9079 36.0001 22.5069 36.0001H33.0917C34.6907 36.0001 35.9999 34.6795 35.9999 33.0817V22.4654C35.9999 20.8675 34.6907 19.5469 33.0917 19.5469H22.5069Z" fill="white"/>
</svg>
