<svg width="33" height="33" viewBox="0 0 33 33" fill="none" xmlns="http://www.w3.org/2000/svg">
<path d="M10.154 0C9.45592 0 8.88477 0.571154 8.88477 1.26923V5.07692C8.88477 5.775 9.45592 6.34615 10.154 6.34615C10.8521 6.34615 11.4232 5.775 11.4232 5.07692V1.26923C11.4232 0.571154 10.8521 0 10.154 0Z" fill="white"/>
<path d="M22.8464 0C22.1483 0 21.5771 0.571154 21.5771 1.26923V5.07692C21.5771 5.775 22.1483 6.34615 22.8464 6.34615C23.5445 6.34615 24.1156 5.775 24.1156 5.07692V1.26923C24.1156 0.571154 23.5445 0 22.8464 0Z" fill="white"/>
<path d="M0 13.326V29.1914C0 31.2856 1.71346 32.9991 3.80769 32.9991H11.4231C13.5681 32.9991 15.4592 31.9329 16.6142 30.3083C17.3377 29.2676 17.7692 28.011 17.7692 26.6529V21.576C17.7692 19.4691 19.47 17.7683 21.5769 17.7683H26.6538C28.0119 17.7683 29.2685 17.3368 30.3092 16.6133C31.4642 15.7883 32.3273 14.6079 32.7335 13.2118C32.8096 12.9453 32.5938 12.6914 32.3273 12.6914H0.634615C0.279231 12.6914 0 12.9706 0 13.326Z" fill="white"/>
<path d="M29.1923 2.53906H27.2885C26.9331 2.53906 26.6538 2.81829 26.6538 3.17368V4.91252C26.6538 6.75291 25.4227 8.45368 23.6077 8.80906C21.1835 9.29137 19.0385 7.4256 19.0385 5.07752V3.17368C19.0385 2.81829 18.7592 2.53906 18.4038 2.53906H14.5962C14.2408 2.53906 13.9615 2.81829 13.9615 3.17368V4.91252C13.9615 6.75291 12.7304 8.45368 10.9154 8.80906C8.49115 9.29137 6.34615 7.4256 6.34615 5.07752V3.17368C6.34615 2.81829 6.06692 2.53906 5.71154 2.53906H3.80769C1.71346 2.53906 0 4.25252 0 6.34675V9.51983C0 9.87522 0.279231 10.1544 0.634615 10.1544H32.3654C32.7208 10.1544 33 9.87522 33 9.51983V6.34675C33 4.25252 31.2865 2.53906 29.1923 2.53906Z" fill="white"/>
<path d="M29.5093 19.825C28.6208 20.1424 27.6562 20.3074 26.6535 20.3074H21.5766C20.8785 20.3074 20.3074 20.8785 20.3074 21.5766V26.6535C20.3074 27.6562 20.1424 28.6208 19.825 29.5093C19.5458 30.347 19.1524 31.1212 18.6447 31.8193C18.4416 32.0985 18.6954 32.5047 19.0381 32.4158C22.2366 31.6035 25.1685 29.9408 27.5547 27.5547C29.9408 25.1685 31.6035 22.2366 32.4158 19.0381C32.5047 18.6954 32.1112 18.4416 31.8193 18.6447C31.1212 19.1524 30.347 19.5458 29.5093 19.825Z" fill="white"/>
</svg>
