<svg width="39" height="35" viewBox="0 0 39 35" fill="none" xmlns="http://www.w3.org/2000/svg">
<path d="M9.75 0H4.875C3.58207 0 2.34209 0.513614 1.42785 1.42785C0.513614 2.34209 0 3.58207 0 4.875V29.25C0 30.5429 0.513614 31.7829 1.42785 32.6971C2.34209 33.6114 3.58207 34.125 4.875 34.125H9.75C11.0429 34.125 12.2829 33.6114 13.1971 32.6971C14.1114 31.7829 14.625 30.5429 14.625 29.25V4.875C14.625 3.58207 14.1114 2.34209 13.1971 1.42785C12.2829 0.513614 11.0429 0 9.75 0ZM39 6.09375C39.0001 5.93368 38.9686 5.77515 38.9074 5.62724C38.8462 5.47934 38.7564 5.34495 38.6432 5.23176C38.5301 5.11857 38.3957 5.0288 38.2478 4.96758C38.0998 4.90637 37.9413 4.87491 37.7812 4.875H20.7188C20.3955 4.875 20.0855 5.0034 19.857 5.23196C19.6284 5.46052 19.5 5.77052 19.5 6.09375C19.5 6.41698 19.6284 6.72698 19.857 6.95554C20.0855 7.1841 20.3955 7.3125 20.7188 7.3125H37.7812C37.9413 7.31259 38.0998 7.28113 38.2478 7.21992C38.3957 7.1587 38.5301 7.06893 38.6432 6.95574C38.7564 6.84255 38.8462 6.70816 38.9074 6.56026C38.9686 6.41235 39.0001 6.25382 39 6.09375ZM39 13.4062C39.0001 13.2462 38.9686 13.0877 38.9074 12.9397C38.8462 12.7918 38.7564 12.6574 38.6432 12.5443C38.5301 12.4311 38.3957 12.3413 38.2478 12.2801C38.0998 12.2189 37.9413 12.1874 37.7812 12.1875H20.7188C20.3955 12.1875 20.0855 12.3159 19.857 12.5445C19.6284 12.773 19.5 13.083 19.5 13.4062C19.5 13.7295 19.6284 14.0395 19.857 14.268C20.0855 14.4966 20.3955 14.625 20.7188 14.625H37.7812C37.9413 14.6251 38.0998 14.5936 38.2478 14.5324C38.3957 14.4712 38.5301 14.3814 38.6432 14.2682C38.7564 14.1551 38.8462 14.0207 38.9074 13.8728C38.9686 13.7248 39.0001 13.5663 39 13.4062ZM39 20.7188C39.0001 20.5587 38.9686 20.4002 38.9074 20.2522C38.8462 20.1043 38.7564 19.9699 38.6432 19.8568C38.5301 19.7436 38.3957 19.6538 38.2478 19.5926C38.0998 19.5314 37.9413 19.4999 37.7812 19.5H20.7188C20.3955 19.5 20.0855 19.6284 19.857 19.857C19.6284 20.0855 19.5 20.3955 19.5 20.7188C19.5 21.042 19.6284 21.352 19.857 21.5805C20.0855 21.8091 20.3955 21.9375 20.7188 21.9375H37.7812C37.9413 21.9376 38.0998 21.9061 38.2478 21.8449C38.3957 21.7837 38.5301 21.6939 38.6432 21.5807C38.7564 21.4676 38.8462 21.3332 38.9074 21.1853C38.9686 21.0373 39.0001 20.8788 39 20.7188ZM39 28.0312C39.0001 27.8712 38.9686 27.7127 38.9074 27.5647C38.8462 27.4168 38.7564 27.2824 38.6432 27.1693C38.5301 27.0561 38.3957 26.9663 38.2478 26.9051C38.0998 26.8439 37.9413 26.8124 37.7812 26.8125H20.7188C20.3955 26.8125 20.0855 26.9409 19.857 27.1695C19.6284 27.398 19.5 27.708 19.5 28.0312C19.5 28.3545 19.6284 28.6645 19.857 28.893C20.0855 29.1216 20.3955 29.25 20.7188 29.25H37.7812C37.9413 29.2501 38.0998 29.2186 38.2478 29.1574C38.3957 29.0962 38.5301 29.0064 38.6432 28.8932C38.7564 28.7801 38.8462 28.6457 38.9074 28.4978C38.9686 28.3498 39.0001 28.1913 39 28.0312Z" fill="white"/>
</svg>
