<svg width="38" height="42" viewBox="0 0 38 42" fill="none" xmlns="http://www.w3.org/2000/svg">
<path d="M17.3852 29.2037C17.9468 30.3031 19.5846 30.3031 20.1462 29.2037C20.1462 29.2037 26.6976 17.1984 28.195 14.384C29.6925 11.5696 29.7393 8.35939 28.195 5.45701C25.5745 0.575744 19.2103 -1.40315 14.0159 1.05947C8.82161 3.52209 6.7626 9.67865 9.33637 14.384C11.8633 19.0894 17.3852 29.2037 17.3852 29.2037ZM18.7891 4.97328C21.8308 4.97328 24.311 7.30398 24.311 10.1624C24.311 13.0208 21.8308 15.3515 18.7891 15.3515C15.7474 15.3515 13.2672 13.0208 13.2672 10.1624C13.2672 7.26 15.7474 4.97328 18.7891 4.97328Z" fill="white"/>
<path d="M37.0856 34.0418L31.6573 28.9406C31.1893 28.5009 30.4874 28.3689 29.8791 28.5888C29.2707 28.8087 28.8495 29.3804 28.8495 29.996V33.558H8.7274V29.996C8.7274 29.3804 8.30624 28.8087 7.69789 28.5888C7.08955 28.325 6.38761 28.5009 5.91966 28.9406L0.491355 34.0418C-0.163785 34.6574 -0.163785 35.6249 0.491355 36.2405L5.91966 41.3417C6.24723 41.6495 6.66839 41.7814 7.08955 41.7814C7.32353 41.7814 7.51071 41.7375 7.69789 41.6495C8.30624 41.4296 8.7274 40.8579 8.7274 40.2423V36.6803H28.8495V40.2423C28.8495 40.8579 29.2707 41.4296 29.8791 41.6495C30.0662 41.7375 30.3002 41.7814 30.4874 41.7814C30.9086 41.7814 31.3297 41.6055 31.6573 41.3417L37.0856 36.2405C37.7407 35.6249 37.7407 34.6574 37.0856 34.0418Z" fill="white"/>
</svg>
