<svg width="42" height="43" viewBox="0 0 42 43" fill="none" xmlns="http://www.w3.org/2000/svg">
<path d="M4.76278 27.6325L6.36243 25.9238H2.61779C2.3633 25.9238 2.18152 26.1783 2.29059 26.4328L2.72686 27.4144C2.79957 27.5598 2.90864 27.6325 3.05406 27.6325H4.76278Z" fill="white"/>
<path d="M38.9373 27.4144L39.3736 26.4328C39.4826 26.1783 39.3008 25.9238 39.0464 25.9238H35.229L36.8287 27.6325H38.5737C38.7555 27.6325 38.9009 27.5598 38.9373 27.4144Z" fill="white"/>
<path d="M41.1183 41.4456H36.9374C37.2282 41.2638 37.41 40.9366 37.41 40.5731V39.0098H31.3023V40.5731C31.3023 40.9366 31.484 41.2638 31.7749 41.4456H9.8524C10.1432 41.2638 10.325 40.9366 10.325 40.5731V39.0098H4.18091V40.5731C4.18091 40.9366 4.36268 41.2638 4.65353 41.4456H0.545336C0.25449 41.4456 0 41.7001 0 41.9909C0 42.2818 0.25449 42.5363 0.545336 42.5363H41.1547C41.4455 42.5363 41.7 42.2818 41.7 41.9909C41.7 41.7001 41.4455 41.4456 41.1183 41.4456Z" fill="white"/>
<path d="M37.737 29.5573L31.302 22.7225C30.8294 22.2135 30.175 21.959 29.4842 21.959H21.3769H20.2862H12.1789C11.4881 21.959 10.8337 22.2498 10.3611 22.7225L3.96251 29.5573C3.52624 29.9936 3.30811 30.5753 3.30811 31.1933L4.217 38.2827H37.5188L38.4277 31.1933C38.3914 30.6116 38.1369 30.03 37.737 29.5573ZM12.2153 23.8131C12.288 23.7404 12.397 23.7041 12.5061 23.7041H29.1934C29.3024 23.7041 29.4115 23.7404 29.4842 23.8131L32.32 27.0488H9.41586L12.2153 23.8131ZM13.7422 32.8293H7.92528C7.70715 32.8293 7.56172 32.6476 7.56172 32.4658V31.666C7.56172 31.4478 7.7435 31.266 7.96164 31.3024L13.7422 32.0659C13.8876 32.1022 13.9967 32.1749 14.033 32.3204V32.3567C14.1421 32.5749 13.9967 32.8293 13.7422 32.8293ZM34.1741 32.4658C34.1741 32.6476 33.9923 32.8293 33.8105 32.8293H27.9936C27.7391 32.8293 27.5574 32.5749 27.6301 32.3567V32.3204C27.6664 32.1749 27.7755 32.1022 27.9209 32.0659L33.7015 31.3024C33.9196 31.266 34.1014 31.4478 34.1014 31.666V32.4658H34.1741Z" fill="white"/>
<path d="M33.738 17.2331H32.2474C32.102 13.9247 30.5387 11.0163 28.1756 9.0167C28.0665 9.38025 27.812 9.6711 27.5575 9.92559C29.6662 11.707 31.0113 14.3246 31.1931 17.2694H23.522C23.4493 16.9786 23.3766 16.7241 23.2312 16.4696L26.2487 14.87C26.5032 14.7245 26.6123 14.3973 26.4669 14.1429C26.3214 13.8884 25.9942 13.7793 25.7397 13.9247L22.5041 15.6334C22.0315 15.3062 21.4861 15.0881 20.8681 15.0881C19.5593 15.0881 18.4322 16.0333 18.1777 17.2694H10.4703C10.6885 13.1976 13.2697 9.70746 16.8689 8.25323V7.08984C12.6517 8.65314 9.5978 12.6159 9.37967 17.3058H7.88909C7.59824 17.3058 7.34375 17.5603 7.34375 17.8511C7.34375 18.142 7.59824 18.3965 7.88909 18.3965H33.738C34.0288 18.3965 34.2833 18.142 34.2833 17.8511C34.2833 17.5603 34.0652 17.2331 33.738 17.2331Z" fill="white"/>
<path d="M27.3756 2.43583L25.9214 1.19974C25.7032 1.01796 25.3397 1.01796 25.1579 1.27245C24.9761 1.49058 24.9761 1.85414 25.2306 2.03592L26.4667 3.09024V8.32546C26.4667 8.43453 26.3577 8.50724 26.2486 8.50724C26.1395 8.50724 26.0305 8.43453 26.0305 8.32546V5.78056C26.0305 5.05344 25.4488 4.50811 24.7216 4.50811H24.249V1.52694C24.249 0.690759 23.5583 0 22.7221 0H19.0865C18.2503 0 17.5596 0.690759 17.5596 1.52694V9.5252C17.5596 10.325 18.214 10.9794 19.0138 10.9794H22.7948C23.5946 10.9794 24.249 10.325 24.249 9.5252V5.63514H24.7216C24.8307 5.63514 24.9398 5.70785 24.9398 5.81691V8.36181C24.9398 9.08893 25.5215 9.63426 26.2486 9.63426C26.9757 9.63426 27.5574 9.05257 27.5574 8.36181V2.8721C27.5937 2.69032 27.521 2.5449 27.3756 2.43583ZM19.341 2.07228C19.341 1.85414 19.4864 1.70872 19.7046 1.70872H22.2131C22.4312 1.70872 22.5767 1.85414 22.5767 2.07228V4.03548C22.5767 4.25362 22.4312 4.39904 22.2131 4.39904H19.7046C19.4864 4.39904 19.341 4.25362 19.341 4.03548V2.07228Z" fill="white"/>
</svg>
