<svg width="42" height="40" viewBox="0 0 42 40" fill="none" xmlns="http://www.w3.org/2000/svg">
<path d="M4.7418 24.9065L6.33461 23.2051H2.606C2.3526 23.2051 2.1716 23.4585 2.2802 23.7119L2.7146 24.6893C2.787 24.8341 2.8956 24.9065 3.0404 24.9065H4.7418Z" fill="white"/>
<path d="M38.7696 24.6893L39.204 23.7119C39.3126 23.4585 39.1316 23.2051 38.8782 23.2051H35.0771L36.67 24.9065H38.4076C38.5886 24.9065 38.7334 24.8341 38.7696 24.6893Z" fill="white"/>
<path d="M40.9423 38.6617H36.7793C37.0689 38.4807 37.2499 38.1549 37.2499 37.7929V36.2363H31.1683V37.7929C31.1683 38.1549 31.3493 38.4807 31.6389 38.6617H9.81022C10.0998 38.4807 10.2808 38.1549 10.2808 37.7929V36.2363H4.16301V37.7929C4.16301 38.1549 4.34401 38.4807 4.63361 38.6617H0.543001C0.253401 38.6617 0 38.9151 0 39.2047C0 39.4943 0.253401 39.7477 0.543001 39.7477H40.9785C41.2681 39.7477 41.5215 39.4943 41.5215 39.2047C41.4853 38.9151 41.2681 38.6617 40.9423 38.6617Z" fill="white"/>
<path d="M37.5759 26.8607L31.2047 20.0551C30.7341 19.5483 30.0825 19.2949 29.3947 19.2949H21.2859H20.1999H12.1273C11.4395 19.2949 10.7879 19.5845 10.3172 20.0551L3.94604 26.8607C3.51163 27.2951 3.29443 27.8743 3.29443 28.4897L4.19944 35.5488H37.3587L38.2637 28.4897C38.2275 27.8743 37.9741 27.2951 37.5759 26.8607ZM12.1635 21.1049C12.2359 21.0325 12.3445 20.9963 12.4531 20.9963H29.0689C29.1775 20.9963 29.2861 21.0325 29.3585 21.1049L32.1821 24.3267H9.37605L12.1635 21.1049ZM13.6839 30.0825H7.89184C7.67464 30.0825 7.52984 29.9015 7.52984 29.7205V28.9241C7.52984 28.7069 7.71084 28.5259 7.92804 28.5621L13.6839 29.3223C13.8287 29.3585 13.9373 29.4309 13.9735 29.5757V29.6119C14.0821 29.8291 13.9373 30.0825 13.6839 30.0825ZM34.0283 29.7205C34.0283 29.9015 33.8473 30.0825 33.6663 30.0825H27.8743C27.6209 30.0825 27.4399 29.8291 27.5123 29.6119V29.5757C27.5485 29.4309 27.6571 29.3585 27.8019 29.3223L33.5577 28.5621C33.7749 28.5259 33.9559 28.7069 33.9559 28.9241V29.7205H34.0283Z" fill="white"/>
<path d="M34.8243 6.80562V14.299C34.8243 14.5524 34.6433 14.7696 34.3899 14.842L31.9645 15.2402C31.8197 15.2764 31.6387 15.2402 31.5301 15.1316C31.4215 15.023 31.3491 14.8782 31.3491 14.7334V14.1542L30.6251 14.3352V15.1316C30.6251 15.4212 30.3717 15.6746 30.0821 15.6746H12.9595C12.7423 15.6746 12.5613 15.566 12.4527 15.3488L10.8961 12.0908H9.26705C8.97745 12.0908 8.72405 11.8374 8.72405 11.5478V8.76042H7.74665V11.5478C7.74665 11.8374 7.49325 12.0908 7.20365 12.0908C6.91405 12.0908 6.66064 11.8374 6.66064 11.5478V4.85081C6.66064 4.56121 6.91405 4.30781 7.20365 4.30781C7.49325 4.30781 7.74665 4.56121 7.74665 4.85081V7.63822H8.72405V4.85081C8.72405 4.56121 8.97745 4.30781 9.26705 4.30781H10.9685L12.4889 2.2806C12.5975 2.1358 12.7423 2.0634 12.9233 2.0634H18.6067V1.086H15.8193C15.5297 1.086 15.2763 0.832602 15.2763 0.543001C15.2763 0.253401 15.5297 0 15.8193 0H22.4801C22.7697 0 23.0231 0.253401 23.0231 0.543001C23.0231 0.832602 22.7697 1.086 22.4801 1.086H19.6927V2.0634H25.1227C25.2675 2.0634 25.4123 2.1358 25.5209 2.2444L28.3083 5.43001H30.0459C30.3355 5.43001 30.5889 5.68341 30.5889 5.97301V6.76941L31.3129 6.95041V6.37121C31.3129 6.22641 31.3853 6.04541 31.4939 5.97301C31.6025 5.86441 31.7835 5.82821 31.9283 5.86441L34.3537 6.26261C34.6433 6.29881 34.8243 6.55221 34.8243 6.80562Z" fill="white"/>
</svg>
