<svg width="36" height="36" viewBox="0 0 36 36" fill="none" xmlns="http://www.w3.org/2000/svg">
<path d="M34.0778 24.7831C33.0337 23.7391 31.6977 23.095 30.2543 22.9152V13.087C31.6977 12.9072 33.0337 12.2639 34.0778 11.2192C36.64 8.65654 36.64 4.48797 34.0778 1.92533C32.8366 0.684314 31.1857 0.000745843 29.4296 0.000745843C27.6742 0.000745843 26.024 0.684314 24.7814 1.92533C23.7096 2.99621 23.0931 4.34916 22.9177 5.7469H13.0854C12.9056 4.30439 12.2615 2.96934 11.2173 1.92459C9.97617 0.683568 8.32526 0 6.56986 0C4.81447 0 3.16356 0.683568 1.92239 1.92459C-0.639802 4.48722 -0.639802 8.65654 1.92239 11.2184C2.96652 12.2624 4.30248 12.9064 5.74516 13.0863V22.9145C4.30248 23.0943 2.96652 23.7383 1.92164 24.7823C-0.640548 27.345 -0.640548 31.5143 1.92164 34.0762C3.16281 35.3172 4.81297 36 6.56912 36C8.32526 36 9.97542 35.3172 11.2166 34.0762C12.2607 33.0322 12.9048 31.6971 13.0847 30.2539H22.9185C23.0939 31.6523 23.7119 33.0053 24.7829 34.0769C26.024 35.3172 27.6742 36 29.4303 36C31.1865 36 32.8359 35.3172 34.0778 34.0762C36.6407 31.515 36.6407 27.3457 34.0778 24.7831ZM29.4296 22.8585C27.7988 22.8585 26.2636 23.4547 25.0583 24.5323L22.8976 22.3712C25.1157 19.8854 25.1157 16.1153 22.8976 13.6311L25.059 11.4699C26.2643 12.5475 27.7996 13.1438 29.4296 13.1438C29.4557 13.1438 29.4811 13.1408 29.5072 13.14V22.8615C29.4818 22.8622 29.4564 22.8585 29.4296 22.8585ZM24.5313 10.9423L22.3707 13.1035C21.1653 12.0259 19.6301 11.4304 18.0001 11.4304C16.3693 11.4304 14.8341 12.0259 13.6288 13.1042L11.4681 10.9438C12.5466 9.7386 13.1429 8.20356 13.1429 6.57374C13.1429 6.54688 13.1392 6.52151 13.1392 6.49464H22.864C22.8446 8.08565 23.4036 9.67965 24.5313 10.9423ZM6.57136 13.1445C8.20137 13.1445 9.73585 12.549 10.9404 11.4714L13.1011 13.6318C12.0234 14.837 11.4271 16.3713 11.4278 18.0019C11.4278 19.6324 12.0241 21.1667 13.1019 22.3719L10.9412 24.5323C9.73585 23.4547 8.20062 22.8585 6.56986 22.8585C6.54374 22.8585 6.51837 22.8622 6.49224 22.8622V13.14C6.51837 13.1408 6.54449 13.1445 6.57136 13.1445ZM11.4689 25.0599L13.6295 22.8995C14.8341 23.9764 16.3686 24.5719 17.9993 24.5719C19.6301 24.5719 21.1646 23.9764 22.3699 22.8988L24.5313 25.0599C23.4036 26.3226 22.8453 27.9151 22.8655 29.5076H13.1384C13.1384 29.4815 13.1422 29.4561 13.1422 29.43C13.1429 27.7994 12.5466 26.2651 11.4689 25.0599Z" fill="white"/>
</svg>
