<svg width="42" height="42" viewBox="0 0 42 42" fill="none" xmlns="http://www.w3.org/2000/svg">
<path d="M13.9482 25.3828H10.6733V27.9403H13.9482V25.3828Z" fill="white"/>
<path d="M29.7329 25.3828H26.458V27.9403H29.7329V25.3828Z" fill="white"/>
<path d="M29.7329 28.6113H26.458V31.1687H29.7329V28.6113Z" fill="white"/>
<path d="M13.9482 28.6113H10.6733V31.1687H13.9482V28.6113Z" fill="white"/>
<path d="M10.0025 28.6113H6.72754V31.1687H10.0025V28.6113Z" fill="white"/>
<path d="M13.9482 31.8398H10.6733V34.3972H13.9482V31.8398Z" fill="white"/>
<path d="M10.0025 31.8398H6.72754V34.3972H10.0025V31.8398Z" fill="white"/>
<path d="M29.7329 31.8398H26.458V34.3972H29.7329V31.8398Z" fill="white"/>
<path d="M10.0025 25.3828H6.72754V27.9403H10.0025V25.3828Z" fill="white"/>
<path d="M3.24936 19.0615C4.3667 18.5928 5.63254 18.826 6.50432 19.6326L10.0097 16.2865C10.1382 13.6105 11.7998 11.2267 14.2767 10.1875C17.822 8.70004 21.9162 10.3739 23.4035 13.919C23.9792 15.291 24.0942 16.8053 23.7548 18.233L25.8904 16.1945C26.0201 16.0707 26.2242 16.0708 26.3538 16.1945L29.0361 18.7555C29.6036 18.6548 30.1823 18.7151 30.7214 18.9354L32.6532 19.7252C32.8433 18.7739 32.9455 17.819 32.9611 16.8645V16.3807C32.9464 15.3718 32.8354 14.3644 32.6257 13.3634L30.6995 14.1717C29.1456 14.8236 27.351 14.0899 26.699 12.5362C26.3831 11.7833 26.3794 10.9528 26.6883 10.1972C26.9973 9.44161 27.5819 8.85156 28.3346 8.53568L30.2608 7.72742C29.0663 5.93579 27.5484 4.43251 25.7404 3.25074L24.9506 5.18264C24.3128 6.74238 22.5249 7.4925 20.9654 6.8548C20.2098 6.54589 19.6197 5.96138 19.3039 5.20857C18.988 4.45584 18.9841 3.62517 19.2931 2.86959L20.0829 0.93777C17.965 0.514424 15.8286 0.523485 13.721 0.965288L14.5294 2.89149C14.8452 3.6443 14.849 4.47488 14.5401 5.23046C14.2311 5.98604 13.6465 6.57609 12.8938 6.89197C11.3396 7.54385 9.54535 6.81017 8.8933 5.25647L8.08503 3.33019C6.29365 4.52447 4.79038 6.0425 3.60869 7.85049L5.54051 8.6403C6.29609 8.94921 6.88614 9.53381 7.20201 10.2865C7.51788 11.0393 7.52174 11.8699 7.21275 12.6255C6.57505 14.1852 4.78745 14.9354 3.22754 14.2978L1.29572 13.5079C0.872292 15.6259 0.881437 17.7623 1.32316 19.8698L3.24936 19.0615Z" fill="white"/>
<path d="M18.4616 24.211C18.332 24.3348 18.1278 24.3348 17.9982 24.211L10.3378 16.8989L2.78125 24.112V39.417H39.4183V5.29102H33.6322V23.2848C33.6322 23.4191 33.5521 23.5405 33.4286 23.5934C33.305 23.6462 33.162 23.6202 33.0649 23.5276L26.122 16.899L18.4616 24.211ZM14.6194 34.7303C14.6194 34.9156 14.4692 35.0658 14.2838 35.0658H6.39161C6.20628 35.0658 6.05602 34.9156 6.05602 34.7303V25.0445C6.05602 24.8591 6.20628 24.7089 6.39161 24.7089H14.2837C14.4691 24.7089 14.6193 24.8591 14.6193 25.0445V34.7303H14.6194ZM30.4036 25.0445V34.7303C30.4036 34.9156 30.2534 35.0658 30.068 35.0658H22.1759C21.9906 35.0658 21.8403 34.9156 21.8403 34.7303V25.0445C21.8403 24.8591 21.9906 24.7089 22.1759 24.7089H30.068C30.2534 24.7089 30.4036 24.8591 30.4036 25.0445Z" fill="white"/>
<path d="M39.754 40.0898H2.4457H0.628906V41.5711H41.5708V40.0898H39.754Z" fill="white"/>
<path d="M25.7862 25.3828H22.5112V27.9403H25.7862V25.3828Z" fill="white"/>
<path d="M25.7862 31.8398H22.5112V34.3972H25.7862V31.8398Z" fill="white"/>
<path d="M25.7862 28.6113H22.5112V31.1687H25.7862V28.6113Z" fill="white"/>
</svg>
