<svg width="39" height="39" viewBox="0 0 39 39" fill="none" xmlns="http://www.w3.org/2000/svg">
<path d="M19.5 38.9976C8.74819 38.9976 0 30.2494 0 19.4976C0 8.74819 8.74819 0 19.5 0C30.2518 0 39 8.74819 39 19.4976C39 30.2494 30.2518 38.9976 19.5 38.9976ZM19.5 2.12306C9.91941 2.12306 2.12428 9.91697 2.12428 19.4976C2.12428 29.0782 9.91941 36.8745 19.5 36.8745C29.0806 36.8745 36.8745 29.0794 36.8745 19.4976C36.8745 9.91575 29.0806 2.12306 19.5 2.12306Z" fill="white"/>
<path d="M19.4997 3.3125C10.5626 3.3125 3.31592 10.5604 3.31592 19.4963C3.31592 28.4346 10.5626 35.6825 19.4997 35.6825C28.438 35.6825 35.6835 28.4346 35.6835 19.4963C35.6835 10.5604 28.438 3.3125 19.4997 3.3125ZM28.7914 8.99187L30.0053 10.2082L28.0663 12.1484L26.85 10.9346L28.7914 8.99187ZM18.6417 5.50016H20.3601V8.24478H18.6417V5.50016ZM8.24576 20.3579H5.50114V18.6395H8.24576V20.3579ZM10.2104 30.0056L8.99529 28.7893L10.9355 26.849L12.1494 28.0629L10.2104 30.0056ZM10.9343 12.1484L8.99407 10.2082L10.2104 8.99187L12.1494 10.9321L10.9343 12.1484ZM20.3601 33.4973H18.6417V30.7527H20.3601V33.4973ZM22.0871 21.9435C20.7038 23.3244 18.465 23.3244 17.0817 21.9435C15.7009 20.5651 15.7009 18.3202 17.0817 16.9406C18.4662 15.5597 26.0127 12.3483 26.3466 12.6798C26.6781 13.0125 23.4679 20.5602 22.0871 21.9435ZM28.7914 30.0031L26.85 28.0629L28.0663 26.849L30.0065 28.7893L28.7914 30.0031ZM30.7536 20.3579V18.6395H33.4983V20.3555L30.7536 20.3579Z" fill="white"/>
<path d="M19.4934 20.8853C20.2406 20.8853 20.8462 20.2796 20.8462 19.5325C20.8462 18.7854 20.2406 18.1797 19.4934 18.1797C18.7463 18.1797 18.1406 18.7854 18.1406 19.5325C18.1406 20.2796 18.7463 20.8853 19.4934 20.8853Z" fill="white"/>
</svg>
