<svg width="38" height="38" viewBox="0 0 38 38" fill="none" xmlns="http://www.w3.org/2000/svg">
<path d="M21.0598 0.51238V2.93816C22.432 3.21204 23.5691 3.83805 24.4316 4.81618C25.255 5.7552 25.6863 6.92896 25.7647 8.33748C25.8039 8.68961 25.4903 8.96349 25.1374 8.96349L21.9223 9.00261C21.6087 9.00261 21.3342 8.76786 21.295 8.45486C21.2166 7.7506 21.0598 7.24197 20.7461 6.85071C20.354 6.3812 19.8835 6.14645 19.2562 6.14645C18.6289 6.14645 18.1584 6.34208 17.8447 6.73333C17.5311 7.12459 17.3742 7.63322 17.3742 8.2201C17.3742 8.84611 17.5311 9.31562 17.8447 9.70687C18.1584 10.0981 18.7857 10.4894 19.6483 10.8806C21.7263 11.7414 23.2162 12.6413 24.1964 13.502C25.1766 14.3628 25.6471 15.6148 25.6471 17.2581C25.6471 18.784 25.1766 20.036 24.1964 20.975C23.373 21.7575 22.2752 22.3053 20.9814 22.54V24.7702C20.9814 25.0832 20.7461 25.3179 20.4324 25.3179H18.4721C18.1584 25.3179 17.9231 25.0832 17.9231 24.7702V22.5792C16.2764 22.3835 14.9041 21.7967 13.8063 20.8185C12.7869 19.8795 12.238 18.5884 12.1596 16.906C12.1596 16.5538 12.4341 16.28 12.7869 16.28L15.9628 16.2408C16.2764 16.2408 16.5509 16.4756 16.5901 16.7886C16.6685 17.6102 16.9037 18.1971 17.2958 18.5884C17.7663 19.0579 18.3936 19.3317 19.1778 19.3317C19.8051 19.3317 20.3148 19.1361 20.6285 18.784C20.9422 18.3927 21.1382 17.9232 21.1382 17.3363C21.1382 16.6321 20.9814 16.0843 20.6285 15.6931C20.2756 15.3018 19.6875 14.9106 18.8249 14.5584C16.7077 13.7368 15.2178 12.876 14.2376 12.0153C13.2966 11.1545 12.7869 9.9025 12.7869 8.25923C12.7869 6.77246 13.2966 5.52044 14.316 4.54231C15.2178 3.64242 16.4333 3.13379 17.9231 2.89904V0.551505C17.9231 0.238501 18.1584 0.00374826 18.4721 0.00374826H20.4324C20.8245 -0.0353772 21.0598 0.238501 21.0598 0.51238ZM37.0958 30.1695L26.3528 36.4296L25.9608 36.6252C24.5493 37.3686 23.0986 37.5251 21.4911 37.3686L7.29783 36.7426C7.06258 37.3295 6.51367 37.7207 5.80793 37.7599L2.59289 37.9946C1.53428 38.0729 0.593288 37.2903 0.514872 36.234L0.00517021 29.1522C-0.0732454 28.135 0.750119 27.2351 1.80873 27.1568L5.02377 26.9221C5.69031 26.883 6.31763 27.2351 6.63129 27.7437C8.08198 27.1177 10.7873 25.8266 15.6491 27.2351C16.1196 27.3916 16.943 27.509 17.4527 27.509L24.9806 27.6264C25.9215 27.509 26.8233 28.2524 26.9017 29.2305C26.9802 30.2086 26.2744 31.0694 25.3334 31.1868L16.9037 31.9693C16.6293 32.0084 16.4333 32.2432 16.4725 32.517C16.5117 32.7518 16.7469 32.9474 16.9822 32.9083H17.2958C17.2958 32.9083 22.981 32.83 26.8625 32.0084C27.5683 31.8519 28.1956 31.6172 28.8229 31.2259C28.9013 31.1476 29.0582 31.0694 29.1366 31.0303C30.4697 30.0913 32.5085 28.9566 33.9591 28.2132C34.3512 28.0176 35.8803 27.196 36.5861 27.2351C37.6055 27.3133 38.0368 28.0959 37.9976 28.8392C37.9976 29.3479 37.6447 29.8565 37.0958 30.1695ZM4.90615 35.2949C4.90615 34.7081 4.39645 34.2386 3.80833 34.2386C3.181 34.2386 2.71051 34.7081 2.71051 35.2949C2.71051 35.8818 3.22021 36.3513 3.80833 36.3513C4.39645 36.3513 4.90615 35.8818 4.90615 35.2949ZM28.9798 29.387C30.0776 28.6045 32.3124 27.3916 33.5671 26.7656C33.9591 26.57 34.3512 26.3743 34.7825 26.2178C34.2336 25.8657 33.6455 25.8266 33.0182 26.0613C31.8027 26.5308 29.6071 27.5872 28.4701 28.2132V28.2524C28.5485 28.4871 28.6269 28.7219 28.6269 28.9957C28.6661 29.1914 28.6269 29.387 28.6269 29.5826C28.7445 29.5435 28.8621 29.4653 28.9798 29.387ZM30.156 25.2397C29.411 25.5527 27.7643 26.0613 27.0194 26.4526C27.333 26.6482 27.6075 26.883 27.8427 27.1568C27.8819 27.1177 27.9211 27.0786 27.9996 27.0395L28.5485 26.7265C29.3326 26.2961 31.0186 25.7092 31.9203 25.3179C31.3322 25.0049 30.7441 25.0049 30.156 25.2397Z" fill="white"/>
</svg>
