<svg width="37" height="43" viewBox="0 0 37 43" fill="none" xmlns="http://www.w3.org/2000/svg">
<path d="M36.3123 20.2337L16.7525 0.629369C16.307 0.183816 15.6832 -0.0389598 15.0594 0.00559546L3.20772 0.80759C2.09384 0.896701 1.24729 1.74325 1.15818 2.85713L0.356181 14.7088C0.311626 15.3326 0.534402 15.9564 0.979955 16.4019L3.65327 19.0752C5.92559 17.5604 8.64346 16.6693 11.5395 16.6693C19.3367 16.6693 25.6636 22.9961 25.6636 30.7933C25.6636 32.0408 25.4853 33.2438 25.1735 34.4022L36.3123 23.308C37.1588 22.4614 37.1588 21.0802 36.3123 20.2337ZM9.80189 9.45131C8.77712 10.4761 7.12858 10.4761 6.10381 9.45131C5.07904 8.42654 5.07904 6.77799 6.10381 5.75322C7.12858 4.72845 8.77712 4.72845 9.80189 5.75322C10.8267 6.77799 10.8267 8.42654 9.80189 9.45131Z" fill="white"/>
<path d="M11.5844 19.209C5.21296 19.209 0 24.3774 0 30.7933C0 37.2093 5.16841 42.3777 11.5844 42.3777C18.0003 42.3777 23.1687 37.2093 23.1687 30.7933C23.1687 24.3774 17.9558 19.209 11.5844 19.209ZM12.7874 37.0311V38.546C12.7874 38.7242 12.6091 38.9024 12.4309 38.9024H10.7378C10.5596 38.9024 10.3814 38.7242 10.3814 38.546V37.0311C8.59916 36.8974 7.12884 35.4716 6.95062 33.734C6.90606 33.5112 7.08428 33.333 7.30706 33.333H9.00016C9.17838 33.333 9.31205 33.4667 9.3566 33.6003C9.49027 34.2241 10.0249 34.6697 10.6933 34.6697H12.4755C13.2775 34.6697 13.9012 34.0013 13.8121 33.1993C13.723 32.4864 13.0992 31.9963 12.3864 31.9963H10.8269C8.91105 31.9963 7.1734 30.6151 6.95062 28.6993C6.68329 26.516 8.28728 24.6893 10.3814 24.5111V22.9516C10.3814 22.7734 10.5596 22.5952 10.7378 22.5952H12.4309C12.6091 22.5952 12.7874 22.7734 12.7874 22.9516V24.4665C14.5696 24.6002 16.0399 26.0259 16.2181 27.7636C16.2627 27.9864 16.0844 28.1646 15.8617 28.1646H14.1686C13.9903 28.1646 13.8567 28.0309 13.8121 27.8973C13.6785 27.2735 13.1438 26.8279 12.4755 26.8279H10.7824C10.0695 26.8279 9.44571 27.318 9.3566 28.0309C9.26749 28.8329 9.89127 29.5458 10.6933 29.5458H12.3418C14.2577 29.5458 15.9953 30.927 16.2181 32.8429C16.4854 35.0261 14.8815 36.8974 12.7874 37.0311Z" fill="white"/>
</svg>
