<svg width="69" height="69" viewBox="0 0 69 69" fill="none" xmlns="http://www.w3.org/2000/svg">
<path d="M50.7669 21.9355H17.2461V23.5939H50.7669V21.9355Z" fill="white"/>
<path d="M54.6285 23.5948C55.4306 23.5971 56.1418 24.3118 56.1453 25.1081L56.1453 27.3138L57.8028 27.3144L57.8028 25.111C57.8022 24.2755 57.4639 23.4576 56.8729 22.8666C56.2819 22.2756 55.464 21.9373 54.6285 21.9367L52.4251 21.9367L52.4251 23.5948L54.6285 23.5948Z" fill="white"/>
<path d="M44.9032 30.5298C44.9032 29.9682 44.6845 29.4399 44.2876 29.043C43.4685 28.2239 42.134 28.2239 41.3144 29.0435C40.9169 29.4411 40.6987 29.9687 40.6982 30.5299L40.6987 37.483C40.6993 38.0441 40.918 38.5723 41.315 38.9693C42.134 39.7884 43.4685 39.7884 44.2882 38.9687C44.6857 38.5712 44.9038 38.0435 44.9044 37.4824L44.9032 30.5298Z" fill="white"/>
<path d="M27.9004 33.0762H24.8682V34.936H27.9004V33.0762Z" fill="white"/>
<path d="M57.8029 28.9746H56.1445V39.0424H57.8029V28.9746Z" fill="white"/>
<path d="M13.5268 25.2535L13.5268 42.7609H54.4869L54.4869 25.2535H13.5268ZM18.419 40.6994C17.6621 40.6988 16.9515 40.4045 16.4174 39.8703C15.882 39.335 15.5871 38.6238 15.5883 37.8686L15.5877 37.5256L17.2458 37.5256L17.2464 37.8686C17.2458 38.4895 17.7958 39.0419 18.419 39.0413L20.2788 39.0413L20.2788 36.0088C20.2788 35.3862 19.7265 34.8362 19.1062 34.8362L18.419 34.8362C16.9058 34.8356 15.5889 33.5188 15.5883 32.0055L15.5883 27.3149L19.1062 27.3149C20.6154 27.3138 21.9363 28.6312 21.9369 30.1457L21.9369 30.4893H20.2788L20.2788 30.1457C20.2782 29.5224 19.7265 28.973 19.1062 28.973L17.2464 28.973L17.2464 32.0055C17.247 32.6322 17.7917 33.1781 18.419 33.1781L19.1062 33.1781C20.6148 33.1763 21.9358 34.4938 21.9369 36.0088V40.6994L18.419 40.6994ZM23.2104 36.5952L23.2104 31.4192L29.559 31.4192L29.559 36.5952L23.2104 36.5952ZM30.8325 40.6994L30.8325 38.4467L35.268 31.7926C35.4345 31.5429 35.5225 31.2521 35.5225 30.9519V30.2882C35.5225 29.8883 35.3612 29.4984 35.0786 29.2158C34.4876 28.6248 33.5261 28.6248 32.9345 29.2164C32.6483 29.5025 32.49 29.8836 32.4895 30.2887L32.49 31.6625L30.8319 31.6625L30.8313 30.2887C30.8325 29.4398 31.1626 28.643 31.7618 28.0437C33.0001 26.8054 35.0141 26.806 36.2513 28.0432C36.8516 28.6435 37.1812 29.4398 37.1806 30.2882L37.1812 30.9513C37.1806 31.5804 36.9965 32.189 36.6476 32.7126L32.49 38.948L32.4906 39.0413H37.5247V40.6994H30.8325ZM40.1426 40.143C39.4326 39.4329 39.0415 38.4884 39.0415 37.4834L39.0409 30.5303C39.0409 29.5265 39.4314 28.5826 40.142 27.8719C41.6084 26.4056 43.9941 26.405 45.4605 27.8714C46.1705 28.5814 46.5622 29.5265 46.5616 30.5309L46.5622 37.484C46.5622 38.4878 46.1717 39.4318 45.4611 40.1424C43.9947 41.6087 41.609 41.6093 40.1426 40.143ZM50.181 40.4566L50.181 29.7693L48.7896 32.0881L47.3684 31.2356L49.3683 27.9013L51.8391 27.9013L51.8391 40.4566L50.181 40.4566Z" fill="white"/>
<path d="M13.3843 44.4178C12.9833 44.4166 12.5934 44.2542 12.3125 43.9734C12.0311 43.6919 11.8693 43.3026 11.8681 42.9039V40.6982L10.21 40.6982L10.21 42.9016C10.2106 43.7371 10.5489 44.555 11.1399 45.146C11.7309 45.737 12.5488 46.0753 13.3843 46.0759L15.5877 46.0759L15.5877 44.4178L13.3843 44.4178Z" fill="white"/>
<path d="M11.869 25.111C11.8701 24.71 12.0325 24.3201 12.3134 24.0392C12.5942 23.7584 12.9841 23.596 13.3828 23.5948L15.5885 23.5948L15.5885 21.9367L13.3852 21.9367C12.5374 21.9367 11.74 22.2674 11.1407 22.8666C10.5415 23.4658 10.2108 24.2632 10.2108 25.111L10.2108 27.3144L11.8689 27.3144L11.869 25.111Z" fill="white"/>
<path d="M57.8037 42.9016L57.8037 40.6982L56.1456 40.6982L56.1456 42.9016C56.1444 43.3026 55.982 43.6925 55.7011 43.9734C55.4203 44.2542 55.0304 44.4166 54.6317 44.4178L52.426 44.4178L52.426 46.0759L54.6293 46.0759C55.4772 46.0759 56.2745 45.7452 56.8738 45.146C57.473 44.5468 57.8037 43.7494 57.8037 42.9016Z" fill="white"/>
<path d="M50.7659 44.4199H17.2451V46.0783H50.7659V44.4199Z" fill="white"/>
<path d="M11.8678 28.9727H10.2095V39.0404H11.8678V28.9727Z" fill="white"/>
</svg>
