<svg width="33" height="41" viewBox="0 0 33 41" fill="none" xmlns="http://www.w3.org/2000/svg">
<path d="M17.1845 19.1663L18.5685 17.8005V18.0578C18.5787 18.2308 18.6266 18.3996 18.7089 18.5527C18.1886 18.7264 17.6795 18.9314 17.1845 19.1663ZM26.4963 3.95896V18.5873C25.2348 18.1911 23.9189 17.9891 22.595 17.9885C22.0922 17.9905 21.5898 18.0219 21.0907 18.0826C21.0934 18.0463 21.0934 18.0099 21.0907 17.9737L20.9804 14.7669C20.9669 14.4375 20.8229 14.1265 20.5792 13.9009C20.458 13.7905 20.3158 13.7049 20.1609 13.6488C20.006 13.5928 19.8415 13.5674 19.6766 13.5743L16.4273 13.6832C16.0948 13.6884 15.7781 13.8238 15.5467 14.0595C15.3154 14.2952 15.1884 14.612 15.1937 14.9401C15.1991 15.2683 15.3362 15.5808 15.5751 15.8091C15.814 16.0375 16.1349 16.1628 16.4674 16.1575H16.7031L14.3664 18.4587L12.2703 16.3901C12.0353 16.1589 11.7171 16.0291 11.3853 16.0291C11.0535 16.0291 10.7352 16.1589 10.5002 16.3901L5.78164 21.0468C5.60587 21.2199 5.48611 21.4405 5.43756 21.6808C5.389 21.9211 5.41383 22.1702 5.5089 22.3965C5.60397 22.6228 5.76499 22.8162 5.97156 22.9521C6.17813 23.088 6.42093 23.1604 6.6692 23.1599C6.8333 23.1609 6.99593 23.1295 7.14751 23.0674C7.29909 23.0054 7.43654 22.914 7.55174 22.7987L11.3878 19.0179L13.4938 21.0765C13.6081 21.1899 13.7446 21.2792 13.895 21.3388C12.5696 22.5308 11.5112 23.9828 10.7875 25.602C10.0639 27.2212 9.69107 28.9717 9.6929 30.7413C9.69499 31.8437 9.83991 32.9414 10.1241 34.0075H4.01155C2.94762 34.0075 1.92727 33.5904 1.17496 32.8479C0.422644 32.1055 0 31.0985 0 30.0485V3.95896C0 2.90898 0.422644 1.902 1.17496 1.15955C1.92727 0.417104 2.94762 0 4.01155 0H22.4847C23.0115 0 23.5332 0.102401 24.0199 0.301358C24.5066 0.500314 24.9488 0.79193 25.3213 1.15955C25.6938 1.52718 25.9893 1.96361 26.1909 2.44393C26.3925 2.92426 26.4963 3.43906 26.4963 3.95896ZM21.0857 8.90766L20.9754 5.69596C20.9637 5.37562 20.8265 5.07226 20.5926 4.84979C20.3588 4.62733 20.0466 4.50311 19.7218 4.50332H19.6766L16.4273 4.61219C16.0948 4.61744 15.7781 4.75282 15.5467 4.98855C15.3154 5.22428 15.1884 5.54104 15.1937 5.86916C15.1991 6.19728 15.3362 6.50987 15.5751 6.73818C15.814 6.96648 16.1349 7.09179 16.4674 7.08654H16.5025H16.6931L14.3563 9.39264L12.2603 7.32408C12.145 7.20782 12.0073 7.11545 11.8553 7.05238C11.7033 6.98932 11.5401 6.95684 11.3752 6.95684C11.2104 6.95684 11.0472 6.98932 10.8952 7.05238C10.7432 7.11545 10.6055 7.20782 10.4902 7.32408L5.77162 11.9808C5.60368 12.1556 5.49111 12.375 5.4477 12.612C5.40429 12.849 5.43193 13.0934 5.52724 13.3152C5.62255 13.5369 5.78137 13.7264 5.98423 13.8603C6.18708 13.9942 6.42514 14.0668 6.6692 14.0692C6.8333 14.0702 6.99593 14.0387 7.14751 13.9767C7.29909 13.9146 7.43654 13.8232 7.55174 13.7079L11.3878 9.9271L13.4938 12.0056C13.7288 12.2367 14.0471 12.3665 14.3789 12.3665C14.7107 12.3665 15.029 12.2367 15.2639 12.0056L18.5785 8.73446V8.99179C18.5902 9.31213 18.7274 9.61549 18.9612 9.83795C19.1951 10.0604 19.5073 10.1846 19.8321 10.1844H19.8722C20.0369 10.1793 20.1989 10.1422 20.349 10.0753C20.4991 10.0083 20.6344 9.91283 20.7471 9.79425C20.8598 9.67568 20.9477 9.53634 21.0058 9.38422C21.0639 9.23209 21.0911 9.07015 21.0857 8.90766ZM33 30.7314C33 32.7624 32.3898 34.7477 31.2464 36.4363C30.1031 38.125 28.4781 39.4411 26.5769 40.2183C24.6756 40.9956 22.5835 41.1989 20.5651 40.8027C18.5468 40.4065 16.6928 39.4285 15.2376 37.9924C13.7825 36.5563 12.7915 34.7266 12.39 32.7347C11.9885 30.7428 12.1946 28.6782 12.9821 26.8018C13.7696 24.9255 15.1033 23.3218 16.8144 22.1934C18.5254 21.0651 20.5371 20.4629 22.595 20.4629C25.3538 20.4655 27.9988 21.5482 29.9495 23.4734C31.9003 25.3985 32.9973 28.0089 33 30.7314ZM26.5966 31.7212L23.8487 29.905V25.5947C23.8487 25.2666 23.7166 24.9519 23.4815 24.7199C23.2464 24.4879 22.9275 24.3575 22.595 24.3575C22.2626 24.3575 21.9437 24.4879 21.7086 24.7199C21.4735 24.9519 21.3414 25.2666 21.3414 25.5947V30.578C21.3413 30.7815 21.392 30.982 21.4891 31.1615C21.5862 31.3411 21.7266 31.4942 21.898 31.6074L25.2076 33.7897C25.4842 33.9602 25.8172 34.0175 26.136 33.9496C26.4548 33.8817 26.7342 33.6939 26.9149 33.426C27.0957 33.1581 27.1635 32.8313 27.1041 32.5148C27.0446 32.1984 26.8626 31.9172 26.5966 31.7311V31.7212Z" fill="white"/>
</svg>
