<svg width="36" height="36" viewBox="0 0 36 36" fill="none" xmlns="http://www.w3.org/2000/svg">
<path d="M18 0C8.07158 0 0 8.07158 0 18C0 27.9284 8.07158 36 18 36C27.9284 36 36 27.9284 36 18C36 8.07158 27.9284 0 18 0ZM28.08 19.7053H25.3516L22.6989 25.0105C22.3579 25.5789 21.7895 25.9579 21.1453 25.9579C20.5011 25.9579 19.8947 25.5789 19.6295 25.0105L14.8547 15.5747L13.2632 18.7579C12.96 19.3263 12.3916 19.7053 11.7474 19.7053H7.95789C7.01053 19.7053 6.25263 18.9474 6.25263 18C6.25263 17.0526 7.01053 16.2947 7.95789 16.2947H10.6863L13.3389 10.9895C13.9074 9.85263 15.8021 9.85263 16.3705 10.9895L21.1074 20.4253L22.7368 17.2042C23.04 16.6358 23.6084 16.2568 24.2526 16.2568H28.0421C28.9895 16.2568 29.7474 17.0147 29.7474 17.9621C29.7474 18.9095 29.0274 19.7053 28.08 19.7053Z" fill="white"/>
</svg>
