<svg width="40" height="39" viewBox="0 0 40 39" fill="none" xmlns="http://www.w3.org/2000/svg">
<path d="M20 1.25926e-06C16.2319 -0.00133587 12.5402 1.06221 9.35032 3.06802C6.16048 5.07384 3.60241 7.94027 1.971 11.3369C0.339589 14.7335 -0.298734 18.522 0.129611 22.2656C0.557956 26.0093 2.03553 29.5557 4.392 32.496C4.46652 32.5903 4.5613 32.6665 4.66933 32.7192C4.77735 32.7718 4.89584 32.7994 5.016 32.8H34.984C35.1042 32.7994 35.2227 32.7718 35.3307 32.7192C35.4387 32.6666 35.5335 32.5903 35.608 32.496C37.9645 29.5557 39.4421 26.0093 39.8704 22.2656C40.2987 18.522 39.6604 14.7335 38.029 11.3369C36.3976 7.94027 33.8395 5.07384 30.6497 3.06802C27.4598 1.06221 23.7681 -0.00133587 20 1.25926e-06ZM20 4C24.2422 4.00426 28.3094 5.69133 31.309 8.69099C34.3087 11.6907 35.9958 15.7578 36 20H35.2C35.2098 16.7556 34.1685 13.5952 32.232 10.992C32.1649 10.8976 32.0778 10.8192 31.9768 10.7625C31.8758 10.7057 31.7635 10.6721 31.648 10.664C31.5336 10.6571 31.419 10.6742 31.3115 10.7142C31.2041 10.7541 31.1062 10.8161 31.024 10.896L26.104 15.824C25.9742 15.9552 25.8937 16.1272 25.8762 16.3109C25.8587 16.4946 25.9053 16.6787 26.008 16.832C26.6384 17.7807 27.0308 18.8674 27.152 20H26.352C26.1566 18.4532 25.4035 17.0309 24.234 15.9999C23.0646 14.9689 21.5591 14.4 20 14.4C18.4409 14.4 16.9354 14.9689 15.766 15.9999C14.5965 17.0309 13.8434 18.4532 13.648 20H12.848C12.9678 18.8646 13.3603 17.775 13.992 16.824C14.0947 16.6707 14.1413 16.4866 14.1238 16.3029C14.1063 16.1192 14.0258 15.9472 13.896 15.816L8.976 10.896C8.89385 10.8161 8.79592 10.7541 8.68847 10.7142C8.58103 10.6742 8.46643 10.6571 8.352 10.664C8.23739 10.6723 8.12591 10.7052 8.02514 10.7604C7.92437 10.8156 7.83667 10.8919 7.768 10.984C5.82916 13.589 4.7877 16.7527 4.8 20H4C4.00427 15.7578 5.69134 11.6907 8.691 8.691C11.6907 5.69134 15.7578 4.00426 20 4ZM20 16.8C20.7911 16.8 21.5645 17.0346 22.2223 17.4741C22.8801 17.9136 23.3928 18.5384 23.6955 19.2693C23.9983 20.0002 24.0775 20.8044 23.9231 21.5804C23.7688 22.3563 23.3878 23.069 22.8284 23.6284C22.269 24.1878 21.5563 24.5688 20.7804 24.7231C20.0044 24.8775 19.2002 24.7983 18.4693 24.4955C17.7384 24.1928 17.1136 23.6801 16.6741 23.0223C16.2346 22.3645 16 21.5911 16 20.8C16.0004 19.7393 16.4219 18.7221 17.172 17.972C17.9221 17.2219 18.9393 16.8004 20 16.8ZM3.2 23.2C3.20063 22.988 3.28512 22.7849 3.43502 22.635C3.58491 22.4851 3.78802 22.4006 4 22.4H12.8C13.0122 22.4 13.2157 22.4843 13.3657 22.6343C13.5157 22.7843 13.6 22.9878 13.6 23.2C13.6 23.4122 13.5157 23.6157 13.3657 23.7657C13.2157 23.9157 13.0122 24 12.8 24H4C3.78802 23.9994 3.58491 23.9149 3.43502 23.765C3.28512 23.6151 3.20063 23.412 3.2 23.2ZM27.2 23.2C27.2006 22.988 27.2851 22.7849 27.435 22.635C27.5849 22.4851 27.788 22.4006 28 22.4H36C36.2122 22.4 36.4157 22.4843 36.5657 22.6343C36.7157 22.7843 36.8 22.9878 36.8 23.2C36.8 23.4122 36.7157 23.6157 36.5657 23.7657C36.4157 23.9157 36.2122 24 36 24H28C27.788 23.9994 27.5849 23.9149 27.435 23.765C27.2851 23.6151 27.2006 23.412 27.2 23.2Z" fill="white"/>
<path d="M31.9997 34.4004H7.99971C7.78753 34.4004 7.58405 34.4847 7.43402 34.6347C7.28399 34.7847 7.19971 34.9882 7.19971 35.2004C7.19971 35.4126 7.28399 35.616 7.43402 35.7661C7.58405 35.9161 7.78753 36.0004 7.99971 36.0004H31.9997C32.2119 36.0004 32.4154 35.9161 32.5654 35.7661C32.7154 35.616 32.7997 35.4126 32.7997 35.2004C32.7997 34.9882 32.7154 34.7847 32.5654 34.6347C32.4154 34.4847 32.2119 34.4004 31.9997 34.4004Z" fill="white"/>
<path d="M26.4003 36.8008H13.6003C13.3881 36.8008 13.1846 36.8851 13.0346 37.0351C12.8846 37.1851 12.8003 37.3886 12.8003 37.6008C12.8003 37.813 12.8846 38.0164 13.0346 38.1665C13.1846 38.3165 13.3881 38.4008 13.6003 38.4008H26.4003C26.6125 38.4008 26.816 38.3165 26.966 38.1665C27.116 38.0164 27.2003 37.813 27.2003 37.6008C27.2003 37.3886 27.116 37.1851 26.966 37.0351C26.816 36.8851 26.6125 36.8008 26.4003 36.8008Z" fill="white"/>
<path d="M15.0238 14.6952C15.176 14.8432 15.3796 14.9264 15.5918 14.9272C15.7487 14.9264 15.9019 14.8791 16.0319 14.7912C16.7993 14.2825 17.6576 13.9267 18.5599 13.7432C18.7414 13.708 18.9049 13.6103 19.0218 13.4671C19.1387 13.3238 19.2018 13.1441 19.1999 12.9592V5.68721C19.1996 5.57558 19.1759 5.46525 19.1305 5.3633C19.085 5.26135 19.0187 5.17003 18.9359 5.09521C18.8516 5.02022 18.7525 4.96369 18.645 4.92925C18.5376 4.89481 18.4241 4.88322 18.3119 4.89521C15.253 5.22663 12.3704 6.49197 10.0559 8.51921C9.97302 8.59107 9.90604 8.6794 9.85921 8.77857C9.81238 8.87774 9.78672 8.98558 9.78387 9.09521C9.78158 9.20432 9.8009 9.31279 9.84072 9.41439C9.88054 9.516 9.94007 9.60872 10.0159 9.68721L15.0238 14.6952Z" fill="white"/>
<path d="M21.4403 13.7426C22.3434 13.9231 23.2023 14.2792 23.9683 14.7906C24.0966 14.8819 24.2508 14.9296 24.4083 14.9266C24.6205 14.9257 24.8242 14.8425 24.9763 14.6946L29.9923 9.67856C30.0688 9.59892 30.1287 9.50486 30.1685 9.40185C30.2084 9.29885 30.2273 9.18895 30.2243 9.07856C30.2191 8.96858 30.1916 8.86082 30.1434 8.7618C30.0953 8.66278 30.0276 8.57458 29.9443 8.50256C27.6213 6.49129 24.7423 5.23308 21.6883 4.89456C21.5759 4.87813 21.4613 4.8876 21.3531 4.92227C21.245 4.95693 21.1462 5.01586 21.0643 5.09456C20.9814 5.16937 20.9152 5.26069 20.8697 5.36264C20.8242 5.46459 20.8006 5.57493 20.8003 5.68656V12.9586C20.8009 13.1428 20.8648 13.3213 20.9813 13.464C21.0978 13.6068 21.2599 13.7051 21.4403 13.7426Z" fill="white"/>
</svg>
