<svg width="31" height="36" viewBox="0 0 31 36" fill="none" xmlns="http://www.w3.org/2000/svg">
<path d="M10.2744 21.7481H10.6435L10.459 21.207L10.2744 21.7481Z" fill="white"/>
<path d="M20.69 26.6632V16.3386C20.6899 16.1312 20.6075 15.9324 20.4609 15.7857C20.3143 15.6391 20.1154 15.5567 19.9081 15.5566H0.781935C0.574576 15.5567 0.375732 15.6391 0.229108 15.7857C0.0824827 15.9324 7.54375e-05 16.1312 0 16.3386V26.6632C7.54375e-05 26.8706 0.0824827 27.0694 0.229108 27.2161C0.375732 27.3627 0.574576 27.4451 0.781935 27.4452H19.9081C20.1154 27.4451 20.3143 27.3627 20.4609 27.2161C20.6075 27.0694 20.6899 26.8706 20.69 26.6632ZM6.68398 24.4144H5.98649C5.88797 24.4143 5.79198 24.3831 5.71222 24.3253C5.63247 24.2674 5.57302 24.1859 5.54235 24.0922L3.94721 19.2005C3.92435 19.1303 3.91841 19.0557 3.92988 18.9827C3.94135 18.9098 3.96991 18.8407 4.01322 18.7809C4.05652 18.7211 4.11336 18.6724 4.17907 18.6388C4.24479 18.6052 4.31753 18.5876 4.39135 18.5874H5.07319C5.17309 18.587 5.27046 18.6188 5.35098 18.6779C5.4315 18.737 5.49091 18.8204 5.52046 18.9158L6.28363 21.3242C6.31804 21.4274 6.34931 21.5306 6.38059 21.6338C6.41499 21.5275 6.45253 21.4212 6.48693 21.3211L7.31265 18.9033C7.34495 18.8112 7.405 18.7314 7.48454 18.6748C7.56407 18.6182 7.65919 18.5877 7.75679 18.5874H8.43239C8.50752 18.5875 8.58155 18.6055 8.64842 18.6397C8.71529 18.674 8.7731 18.7236 8.8171 18.7845C8.86046 18.846 8.88823 18.9171 8.89804 18.9918C8.90784 19.0664 8.89939 19.1423 8.8734 19.213L7.12499 24.1048C7.09213 24.1954 7.03219 24.2737 6.9533 24.3291C6.8744 24.3845 6.78038 24.4143 6.68398 24.4144ZM12.9051 24.2174C12.8622 24.2787 12.805 24.3286 12.7386 24.363C12.6721 24.3973 12.5983 24.4149 12.5235 24.4144H11.8479C11.7498 24.4141 11.6544 24.3832 11.5747 24.326C11.4951 24.2688 11.4353 24.1882 11.4037 24.0954L11.1379 23.3103H9.78983L9.53022 24.0922C9.49971 24.186 9.4403 24.2676 9.36051 24.3255C9.28072 24.3834 9.18465 24.4145 9.08608 24.4144H8.43239C8.35764 24.4146 8.28395 24.3968 8.21753 24.3625C8.15111 24.3282 8.09393 24.2784 8.0508 24.2174C8.00788 24.1569 7.97985 24.0871 7.96898 24.0137C7.95811 23.9403 7.96471 23.8654 7.98825 23.7951L9.64908 18.9064C9.68068 18.8137 9.74046 18.733 9.82008 18.6758C9.8997 18.6187 9.99519 18.5877 10.0932 18.5874H10.8564C10.954 18.5877 11.0491 18.6182 11.1286 18.6748C11.2082 18.7314 11.2682 18.8112 11.3005 18.9033L12.9676 23.7951C12.9918 23.8653 12.9987 23.9404 12.9879 24.0139C12.977 24.0873 12.9486 24.1571 12.9051 24.2174ZM16.7678 19.5914C16.7679 19.6531 16.7558 19.7141 16.7323 19.7711C16.7087 19.828 16.6742 19.8798 16.6306 19.9234C16.587 19.9669 16.5352 20.0015 16.4783 20.025C16.4213 20.0486 16.3603 20.0607 16.2987 20.0606H15.2728V23.9452C15.2728 24.0069 15.2608 24.0679 15.2372 24.1249C15.2137 24.1818 15.1791 24.2336 15.1355 24.2772C15.0919 24.3208 15.0402 24.3553 14.9832 24.3789C14.9263 24.4024 14.8652 24.4145 14.8036 24.4144H14.1655C14.1039 24.4145 14.0429 24.4024 13.9859 24.3789C13.9289 24.3553 13.8772 24.3208 13.8336 24.2772C13.79 24.2336 13.7555 24.1818 13.7319 24.1249C13.7084 24.0679 13.6963 24.0069 13.6964 23.9452V20.0606H12.6799C12.6182 20.0607 12.5572 20.0486 12.5002 20.025C12.4433 20.0015 12.3915 19.9669 12.3479 19.9234C12.3043 19.8798 12.2698 19.828 12.2462 19.7711C12.2227 19.7141 12.2106 19.6531 12.2107 19.5914V19.0566C12.2106 18.9949 12.2227 18.9339 12.2462 18.8769C12.2698 18.82 12.3043 18.7682 12.3479 18.7247C12.3915 18.6811 12.4433 18.6465 12.5002 18.623C12.5572 18.5994 12.6182 18.5873 12.6799 18.5874H16.2987C16.3603 18.5873 16.4213 18.5994 16.4783 18.623C16.5352 18.6465 16.587 18.6811 16.6306 18.7247C16.6742 18.7682 16.7087 18.82 16.7323 18.8769C16.7558 18.9339 16.7679 18.9949 16.7678 19.0566V19.5914Z" fill="white"/>
<path d="M5.45157 1.56387H22.2725V0H4.66963C4.46227 7.54375e-05 4.26343 0.0824815 4.1168 0.229106C3.97018 0.375731 3.88777 0.574576 3.8877 0.781935V14.7754H5.45157V1.56387Z" fill="white"/>
<path d="M30.849 5.78944C30.8271 5.75504 25.4318 0.181393 25.4005 0.156387C25.2639 0.0549059 25.0983 7.31565e-05 24.9282 0H23.0547V7.35332C23.0548 7.56068 23.1372 7.75952 23.2838 7.90614C23.4304 8.05277 23.6293 8.13518 23.8366 8.13525H30.9898V6.23671C30.9897 6.07674 30.9406 5.92063 30.849 5.78944Z" fill="white"/>
<path d="M29.4257 33.9368H5.45157V28.2286H3.8877V34.7187C3.88777 34.9261 3.97018 35.1249 4.1168 35.2715C4.26343 35.4181 4.46227 35.5005 4.66963 35.5006H30.2076C30.3104 35.5009 30.4122 35.4808 30.5071 35.4416C30.6021 35.4023 30.6884 35.3448 30.761 35.2721C30.8337 35.1995 30.8913 35.1132 30.9305 35.0182C30.9697 34.9232 30.9898 34.8214 30.9896 34.7187V8.91797H29.4257V33.9368Z" fill="white"/>
</svg>
