<svg width="42" height="40" viewBox="0 0 42 40" fill="none" xmlns="http://www.w3.org/2000/svg">
<path fill-rule="evenodd" clip-rule="evenodd" d="M28.4138 28.4091C28.4339 28.3062 28.4862 28.2122 28.5632 28.1405C28.5727 28.1315 28.5827 28.1226 28.5927 28.1146C28.6377 28.0379 28.6814 27.9602 28.7236 27.8826C28.7327 27.8627 28.7431 27.8435 28.755 27.8252C29.5151 26.4038 29.8915 24.8116 29.8478 23.2034C29.8041 21.5951 29.3417 20.0253 28.5055 18.6466C27.6693 17.2679 26.4878 16.1271 25.0756 15.335C23.6635 14.543 22.0688 14.1265 20.4464 14.1262C18.824 14.1259 17.2291 14.5417 15.8167 15.3332C14.4042 16.1247 13.2222 17.2651 12.3855 18.6434C11.5487 20.0218 11.0857 21.5914 11.0413 23.1996C10.997 24.8079 11.3728 26.4002 12.1323 27.8219C12.1448 27.8417 12.1559 27.8623 12.1655 27.8835C13.3237 30.0074 15.2666 31.6038 17.5862 32.3374C19.9059 33.0711 22.422 32.8851 24.6063 31.8184C24.6129 31.8113 24.6196 31.8047 24.6267 31.7981C24.7023 31.7275 24.7981 31.6818 24.901 31.6673C26.3345 30.8988 27.5439 29.7766 28.4124 28.4091H28.4138ZM14.8603 17.5655L14.8722 17.5561C16.4469 16.0926 18.5427 15.3085 20.6998 15.3756C22.8569 15.4427 24.899 16.3557 26.3781 17.9142L26.3881 17.9259C26.8702 18.4356 27.2838 19.005 27.6185 19.62C27.6332 19.6426 27.646 19.6664 27.6569 19.691C28.5834 21.4438 28.8317 23.4721 28.3549 25.3938C28.3501 25.4227 28.3428 25.4512 28.3331 25.4789C28.0611 26.5257 27.5787 27.5071 26.9148 28.3644C26.9013 28.3847 26.8864 28.4041 26.8702 28.4223C26.6138 28.7473 26.3329 29.0525 26.0298 29.3352L26.018 29.3451C24.4412 30.811 22.3418 31.5957 20.1816 31.5266C18.0214 31.4575 15.9774 30.5403 14.4992 28.9767C14.3303 28.7972 14.171 28.6127 14.0214 28.4233C14.0041 28.4047 13.9882 28.3849 13.9739 28.364C13.3096 27.5063 12.8268 26.5243 12.5546 25.4771C12.5455 25.4509 12.5385 25.4239 12.5338 25.3966C12.0552 23.4742 12.3026 21.4445 13.2294 19.6905C13.2398 19.6664 13.2522 19.6431 13.2664 19.6209C13.6824 18.8553 14.2204 18.1616 14.8598 17.5664L14.8603 17.5655ZM4.8609 7.01637H2.05559C2.04322 7.01608 2.03092 7.01826 2.01943 7.02279C2.00793 7.02732 1.99747 7.0341 1.98868 7.04272C1.97998 7.05144 1.97315 7.06181 1.96858 7.07321C1.96402 7.08461 1.96181 7.09681 1.96211 7.10907V8.08549C1.96323 8.36924 2.07736 8.64106 2.27964 8.84174C2.48192 9.04243 2.75597 9.15573 3.0421 9.15697H4.21699L4.8628 7.01449L4.8609 7.01637ZM37.7849 9.15885H38.9598C39.2459 9.15736 39.5198 9.04399 39.722 8.84335C39.9242 8.64272 40.0384 8.37105 40.0398 8.08738V7.11095C40.0397 7.09858 40.0371 7.08635 40.0322 7.07497C40.0273 7.06358 40.0202 7.05327 40.0113 7.0446C40.0025 7.03598 39.9921 7.0292 39.9806 7.02467C39.9691 7.02015 39.9568 7.01796 39.9444 7.01825H37.1391L37.7849 9.16073V9.15885ZM36.9365 9.8294L37.1761 10.6247H4.82389L5.06114 9.8294C5.06768 9.81136 5.07322 9.79298 5.07775 9.77435L6.00874 6.68698C6.01512 6.66924 6.02051 6.65118 6.02488 6.63286L7.3445 2.25662C7.53389 1.59981 7.93594 1.02304 8.48862 0.615274C9.0413 0.207506 9.71392 -0.00860876 10.4027 0.000262609H31.5973C32.2856 -0.00811789 32.9576 0.208169 33.5098 0.615807C34.062 1.02345 34.4638 1.59982 34.6531 2.25615L35.9728 6.63239C35.9771 6.65071 35.9825 6.66877 35.9889 6.68651L36.9199 9.77388C36.9242 9.79257 36.9297 9.81096 36.9365 9.82893V9.8294ZM6.77318 17.0949C6.45285 16.7774 6.03139 16.5798 5.58063 16.5358C5.12986 16.4919 4.67767 16.6042 4.30109 16.8538C3.92452 17.1034 3.64687 17.4748 3.51543 17.9047C3.384 18.3345 3.40693 18.7962 3.5803 19.2112C3.75367 19.6262 4.06677 19.9687 4.46624 20.1804C4.86572 20.3921 5.32686 20.4599 5.77109 20.3723C6.21532 20.2846 6.61517 20.0469 6.9025 19.6997C7.18983 19.3525 7.34687 18.9172 7.34687 18.468C7.34718 18.2129 7.29665 17.9603 7.1982 17.7247C7.09975 17.489 6.95531 17.275 6.77318 17.0949ZM5.38856 15.5289C6.0748 15.5288 6.73982 15.7648 7.27031 16.1965C7.8008 16.6282 8.16393 17.229 8.29783 17.8964C8.43174 18.5639 8.32813 19.2567 8.00466 19.8569C7.68119 20.4571 7.15787 20.9275 6.52388 21.1879C5.88988 21.4484 5.18443 21.4828 4.52773 21.2852C3.87103 21.0877 3.30372 20.6705 2.92244 20.1047C2.54117 19.5388 2.36953 18.8594 2.43678 18.1821C2.50402 17.5049 2.80598 16.8717 3.29121 16.3905C3.56626 16.1168 3.89317 15.8998 4.25312 15.752C4.61306 15.6041 4.99895 15.5283 5.38856 15.5289ZM37.9951 17.0968C37.6748 16.7789 37.2532 16.581 36.8022 16.5368C36.3512 16.4926 35.8987 16.6048 35.5218 16.8544C35.1449 17.104 34.8669 17.4755 34.7352 17.9055C34.6036 18.3356 34.6264 18.7976 34.7997 19.2128C34.9731 19.6281 35.2863 19.9709 35.6859 20.1828C36.0856 20.3947 36.547 20.4627 36.9915 20.375C37.436 20.2874 37.8361 20.0496 38.1236 19.7022C38.4112 19.3549 38.5683 18.9193 38.5683 18.4699C38.5686 18.2149 38.5182 17.9623 38.4198 17.7267C38.3214 17.491 38.1771 17.277 37.9951 17.0968ZM36.6114 15.5289C37.2977 15.5287 37.9628 15.7646 38.4933 16.1962C39.0239 16.6279 39.3871 17.2286 39.5211 17.8961C39.6551 18.5635 39.5516 19.2564 39.2282 19.8566C38.9047 20.4569 38.3814 20.9273 37.7475 21.1878C37.1135 21.4483 36.408 21.4828 35.7513 21.2853C35.0945 21.0878 34.5272 20.6706 34.1459 20.1047C33.7646 19.5389 33.5929 18.8595 33.6601 18.1822C33.7274 17.5049 34.0293 16.8717 34.5146 16.3905C34.7896 16.1169 35.1164 15.8999 35.4763 15.7521C35.8361 15.6042 36.2219 15.5284 36.6114 15.5289ZM2.37351 28.5884V31.4617C2.37451 31.6413 2.44693 31.8133 2.57505 31.9402C2.70317 32.0672 2.87663 32.1389 3.05775 32.1398H7.17699C7.35812 32.1387 7.53151 32.0668 7.65959 31.9398C7.78767 31.8128 7.86012 31.6408 7.86124 31.4612V28.5884H2.37351ZM34.1388 28.5884V31.4617C34.14 31.6412 34.2125 31.8131 34.3406 31.94C34.4686 32.0669 34.642 32.1387 34.823 32.1398H38.9422C39.1234 32.1389 39.297 32.0671 39.4251 31.9401C39.5532 31.813 39.6256 31.6409 39.6265 31.4612V28.5884H34.1388ZM13.7091 25.8121H27.1791C26.9537 26.4451 26.6381 27.0428 26.2419 27.5871H14.6472C14.2507 27.0429 13.9348 26.4451 13.7091 25.8121ZM14.0019 20.3874H26.8868C27.5503 21.7631 27.7499 23.3139 27.4562 24.8107H13.4344C13.1403 23.3139 13.34 21.763 14.0038 20.3874H14.0019ZM15.5725 18.2699C16.9556 16.9901 18.7942 16.3068 20.6847 16.37C22.5753 16.4332 24.3633 17.2376 25.6564 18.6068L25.6664 18.6186C25.8941 18.8601 26.1046 19.1171 26.2965 19.3875H14.5917C14.8756 18.9864 15.2005 18.6153 15.5611 18.2803L15.573 18.2704L15.5725 18.2699ZM13.3243 15.9171C11.756 17.3769 10.6815 19.2822 10.2482 21.3715C9.81496 23.4609 10.0441 25.632 10.9043 27.5871H0.508202C0.373611 27.5865 0.24471 27.5332 0.149538 27.4388C0.054367 27.3444 0.000623985 27.2166 0 27.0831V15.9632C0.0032543 14.8133 0.465255 13.7114 1.28508 12.8983C2.10491 12.0851 3.21594 11.6267 4.37547 11.6232H37.6245C38.7839 11.6267 39.8948 12.0849 40.7146 12.8979C41.5344 13.7109 41.9965 14.8125 42 15.9623V27.085C41.9994 27.2185 41.9456 27.3463 41.8505 27.4407C41.7553 27.535 41.6264 27.5883 41.4918 27.589H29.9854C30.9447 25.4107 31.1168 22.9709 30.4728 20.6813C29.8287 18.3917 28.4079 16.3926 26.4501 15.0213C24.4923 13.65 22.1174 12.9904 19.7261 13.154C17.3349 13.3175 15.0737 14.2941 13.3243 15.919V15.9171ZM28.4584 33.7369C28.5942 33.6528 28.7213 33.5557 28.838 33.447L29.9507 32.4118L29.9626 32.4024C30.0759 32.2959 30.1786 32.1788 30.2691 32.0527L35.8204 37.9277C36.0454 38.1661 36.1656 38.4834 36.1547 38.8098C36.1437 39.1361 36.0025 39.4448 35.7621 39.6679C35.5216 39.8909 35.2017 40.0102 34.8726 39.9993C34.5435 39.9885 34.2323 39.8484 34.0073 39.61L28.4584 33.7369ZM29.6527 31.0641C29.5804 31.302 29.446 31.5167 29.2632 31.6866L29.2513 31.6965L28.1499 32.7205C27.9681 32.8892 27.7447 33.0076 27.5022 33.064C27.4922 33.0657 27.4822 33.0679 27.4723 33.0706C27.358 33.0944 27.2413 33.1045 27.1245 33.1007C26.937 33.0947 26.7524 33.0522 26.5814 32.9755C26.4105 32.8988 26.2564 32.7894 26.1281 32.6536L25.8006 32.3073C27.0679 31.5508 28.1597 30.5373 29.0045 29.3333L29.3315 29.6792L29.3414 29.691C29.594 29.9647 29.7281 30.3258 29.7149 30.6966C29.7111 30.8097 29.6939 30.922 29.6636 31.0311C29.6598 31.042 29.6565 31.0532 29.6537 31.0641H29.6527ZM15.1692 21.9756C15.1692 21.8431 15.2223 21.7159 15.3168 21.6222C15.4113 21.5285 15.5395 21.4759 15.6731 21.4759C15.8068 21.4759 15.935 21.5285 16.0295 21.6222C16.124 21.7159 16.1771 21.8431 16.1771 21.9756V23.6061C16.1771 23.7386 16.124 23.8658 16.0295 23.9595C15.935 24.0532 15.8068 24.1058 15.6731 24.1058C15.5395 24.1058 15.4113 24.0532 15.3168 23.9595C15.2223 23.8658 15.1692 23.7386 15.1692 23.6061V21.9756ZM18.301 21.9756C18.301 21.8431 18.3541 21.7159 18.4486 21.6222C18.5431 21.5285 18.6713 21.4759 18.8049 21.4759C18.9386 21.4759 19.0667 21.5285 19.1612 21.6222C19.2557 21.7159 19.3088 21.8431 19.3088 21.9756V23.6061C19.3088 23.7386 19.2557 23.8658 19.1612 23.9595C19.0667 24.0532 18.9386 24.1058 18.8049 24.1058C18.6713 24.1058 18.5431 24.0532 18.4486 23.9595C18.3541 23.8658 18.301 23.7386 18.301 23.6061V21.9756ZM21.4328 21.9756C21.4328 21.8431 21.4858 21.7159 21.5804 21.6222C21.6749 21.5285 21.803 21.4759 21.9367 21.4759C22.0703 21.4759 22.1985 21.5285 22.293 21.6222C22.3875 21.7159 22.4406 21.8431 22.4406 21.9756V23.6061C22.4406 23.7386 22.3875 23.8658 22.293 23.9595C22.1985 24.0532 22.0703 24.1058 21.9367 24.1058C21.803 24.1058 21.6749 24.0532 21.5804 23.9595C21.4858 23.8658 21.4328 23.7386 21.4328 23.6061V21.9756ZM24.5645 21.9756C24.5686 21.8457 24.6234 21.7224 24.7175 21.6319C24.8117 21.5413 24.9376 21.4907 25.0687 21.4907C25.1998 21.4907 25.3258 21.5413 25.4199 21.6319C25.514 21.7224 25.5689 21.8457 25.5729 21.9756V23.6061C25.5689 23.736 25.514 23.8593 25.4199 23.9498C25.3258 24.0404 25.1998 24.091 25.0687 24.091C24.9376 24.091 24.8117 24.0404 24.7175 23.9498C24.6234 23.8593 24.5686 23.736 24.5645 23.6061V21.9756Z" fill="white"/>
</svg>
