<svg width="39" height="43" viewBox="0 0 39 43" fill="none" xmlns="http://www.w3.org/2000/svg">
<path d="M34.241 20.83C34.001 21.5818 33.4728 22.7317 32.8485 23.97C33.1846 24.8102 33.1847 25.9158 32.5124 27.1099C32.3683 27.4195 32.1283 27.6848 31.8882 27.9944C31.312 28.7462 30.4476 29.5865 29.5353 30.5152C29.4873 30.5594 29.3912 30.6479 29.3432 30.6921C29.1031 30.9132 28.767 30.9574 28.4789 30.8248C28.1428 30.6036 28.0948 30.1614 28.3349 29.896C28.3829 29.8076 28.4789 29.7634 28.5269 29.6749C29.6794 28.4809 30.7838 27.3752 31.2639 26.535C32.1283 24.9429 31.552 23.8815 30.6877 23.4393C30.0155 23.0855 29.0551 23.0412 28.5269 23.7931C27.8067 24.8102 26.7503 25.9158 25.7419 26.9772C24.5895 28.1713 23.437 29.4538 22.7648 30.471C22.0445 31.6208 21.0842 34.2743 20.8921 37.1047C20.7961 38.4756 20.748 40.0677 20.748 41.0406C20.748 41.5271 21.1802 41.9251 21.7084 41.9251H27.7586C28.2868 41.9251 28.719 41.5271 28.719 41.0406V39.4486C28.719 39.0948 28.9111 38.741 29.2472 38.5198C31.408 37.1489 33.4247 35.5126 34.5291 34.3185C36.9781 31.665 37.8904 23.8373 38.0344 21.4934C38.2265 19.1937 34.9613 18.663 34.241 20.83Z" fill="white"/>
<path d="M15.3223 30.5142C14.65 29.4971 13.4976 28.2146 12.3452 27.0205C11.3368 25.9591 10.2804 24.8977 9.56016 23.8363C9.03196 23.1287 8.07161 23.1287 7.39936 23.4825C6.53504 23.9248 5.95883 24.9862 6.82315 26.5783C7.30332 27.4185 8.40773 28.5241 9.56016 29.7182C9.60818 29.8067 9.70421 29.8509 9.75223 29.9393C10.0403 30.2047 9.99232 30.6469 9.60818 30.868C9.32007 31.0449 8.98395 30.9565 8.74386 30.7354C8.69584 30.6911 8.5998 30.6027 8.55179 30.5585C7.63945 29.6298 6.82315 28.8337 6.19892 28.0377C5.95883 27.7281 5.76676 27.4185 5.57468 27.1532C4.90244 25.9149 4.85442 24.8535 5.23856 24.0132C4.61433 22.7749 4.08613 21.6251 3.84604 20.8733C3.12578 18.7063 -0.13943 19.237 0.00462283 21.5809C0.148676 23.9248 1.013 31.7525 3.50992 34.406C4.61433 35.6001 6.67909 37.2364 8.79188 38.6073C9.128 38.8285 9.32007 39.1823 9.32007 39.5361V41.1281C9.32007 41.6146 9.75223 42.0126 10.2804 42.0126H16.3307C16.8589 42.0126 17.291 41.6146 17.291 41.1281C17.243 40.1552 17.195 38.6073 17.147 37.1922C16.9549 34.3176 16.0426 31.6641 15.3223 30.5142Z" fill="white"/>
<path d="M22.4286 21.9796L24.9735 22.8199C25.4537 22.9968 26.0299 22.6872 26.126 22.2007L26.6061 19.7242C26.6542 19.4146 26.9423 19.1492 27.2784 19.105L29.9674 18.6628C30.4956 18.5743 30.7837 18.0879 30.6396 17.6014L29.7273 15.2575C29.5832 14.9479 29.7273 14.5941 29.9674 14.373L32.0322 12.7809C32.4163 12.4713 32.4163 11.8964 32.0322 11.5868L29.9674 9.99476C29.6793 9.77363 29.5832 9.41984 29.7273 9.11026L30.6396 6.76636C30.8317 6.32412 30.4956 5.79342 29.9674 5.70497L27.2784 5.26273C26.9423 5.2185 26.6542 4.95315 26.6061 4.64358L26.126 2.167C26.0299 1.68053 25.5017 1.41519 24.9735 1.54786L22.4286 2.38813C22.0925 2.5208 21.7083 2.38813 21.4682 2.167L19.7396 0.265348C19.4035 -0.0884492 18.7793 -0.0884492 18.4431 0.265348L16.6665 2.167C16.4264 2.38813 16.0422 2.47658 15.7061 2.38813L13.1612 1.54786C12.681 1.37096 12.1048 1.68053 12.0087 2.167L11.5286 4.64358C11.4806 4.95315 11.1924 5.2185 10.8563 5.26273L8.16732 5.70497C7.63913 5.79342 7.35102 6.27989 7.49507 6.76636L8.40741 9.11026C8.55147 9.41984 8.40741 9.77363 8.16732 9.99476L6.10256 11.5868C5.71842 11.8964 5.71842 12.4713 6.10256 12.7809L8.16732 14.373C8.45543 14.5941 8.55147 14.9479 8.40741 15.2575L7.49507 17.6014C7.303 18.0436 7.63913 18.5743 8.16732 18.6628L10.8563 19.105C11.1924 19.1492 11.4806 19.4146 11.5286 19.7242L12.0087 22.2007C12.1048 22.6872 12.633 22.9526 13.1612 22.8199L15.7061 21.9796C16.0422 21.8469 16.4264 21.9796 16.6665 22.2007L18.3951 24.1024C18.7312 24.4562 19.3555 24.4562 19.6916 24.1024L21.4202 22.2007C21.7083 21.9354 22.0925 21.8469 22.4286 21.9796ZM19.0674 18.4859C15.274 18.4859 12.2008 15.6555 12.2008 12.1618C12.2008 8.66802 15.274 5.83765 19.0674 5.83765C22.8608 5.83765 25.9339 8.66802 25.9339 12.1618C25.9339 15.6555 22.8608 18.4859 19.0674 18.4859Z" fill="white"/>
<path d="M22.0925 9.10808C21.9004 8.93118 21.5643 8.93118 21.3722 9.1523L18.2991 12.2038L16.7625 10.6559C16.5705 10.479 16.2343 10.4348 16.0423 10.6117L14.9379 11.5404C14.7458 11.7173 14.6978 12.0269 14.8899 12.2038L17.915 15.2111C18.107 15.4322 18.4432 15.4322 18.6352 15.2111L23.1969 10.6559C23.389 10.479 23.389 10.1695 23.1489 9.99257L22.0925 9.10808Z" fill="white"/>
</svg>
