<svg width="35" height="35" viewBox="0 0 35 35" fill="none" xmlns="http://www.w3.org/2000/svg">
<g clip-path="url(#clip0_164_534)">
<path d="M19.4235 11.6667H25.7848C27.2882 11.6687 28.7544 12.1344 29.9834 13.0004C31.2124 13.8663 32.1443 15.0903 32.6521 16.5054L33.896 19.9879C34.113 20.607 34.298 21.2369 34.4502 21.875H10.7581C10.9103 21.2369 11.0953 20.607 11.3123 19.9879L12.5562 16.5054C13.064 15.0903 13.9959 13.8663 15.2249 13.0004C16.4539 12.1344 17.9201 11.6687 19.4235 11.6667ZM35 26.3652C35 25.8373 34.9767 25.3138 34.9329 24.7917H30.625V26.25C30.625 26.6368 30.4714 27.0077 30.1979 27.2812C29.9244 27.5547 29.5534 27.7083 29.1667 27.7083C28.7799 27.7083 28.409 27.5547 28.1355 27.2812C27.862 27.0077 27.7083 26.6368 27.7083 26.25V24.7917H17.5V26.25C17.5 26.6368 17.3464 27.0077 17.0729 27.2812C16.7994 27.5547 16.4284 27.7083 16.0417 27.7083C15.6549 27.7083 15.284 27.5547 15.0105 27.2812C14.737 27.0077 14.5833 26.6368 14.5833 26.25V24.7917H10.2754C10.0153 26.0408 10.1498 27.34 10.6603 28.5094C11.1708 29.6788 12.0321 30.6607 13.125 31.3192V32.0833C13.125 32.8569 13.4323 33.5987 13.9793 34.1457C14.5263 34.6927 15.2681 35 16.0417 35C16.8152 35 17.5571 34.6927 18.1041 34.1457C18.651 33.5987 18.9583 32.8569 18.9583 32.0833H26.25C26.25 32.8569 26.5573 33.5987 27.1043 34.1457C27.6513 34.6927 28.3931 35 29.1667 35C29.9402 35 30.6821 34.6927 31.2291 34.1457C31.776 33.5987 32.0833 32.8569 32.0833 32.0833V31.3192C32.9648 30.8259 33.6994 30.1072 34.2119 29.2368C34.7243 28.3663 34.9963 27.3753 35 26.3652ZM23.205 8.32125L21.9625 4.83875C21.4544 3.42389 20.5224 2.20012 19.2935 1.33422C18.0646 0.468319 16.5985 0.00241359 15.0952 0L8.7325 0C7.22917 0.00241359 5.76315 0.468319 4.53424 1.33422C3.30533 2.20012 2.37332 3.42389 1.86521 4.83875L0.622708 8.32125C0.571667 8.45833 0.5425 8.60417 0.495833 8.75H23.3333C23.2852 8.60417 23.256 8.45833 23.205 8.32125ZM7.29167 11.6667V13.125C7.29167 13.5118 7.13802 13.8827 6.86453 14.1562C6.59104 14.4297 6.22011 14.5833 5.83333 14.5833C5.44656 14.5833 5.07563 14.4297 4.80214 14.1562C4.52865 13.8827 4.375 13.5118 4.375 13.125V11.6667H0.0670833C0.0233333 12.1888 0 14.1706 0 14.6985C0.00288777 15.7094 0.274514 16.7013 0.787038 17.5726C1.29956 18.4439 2.03455 19.1632 2.91667 19.6569V20.4167C2.92227 20.951 3.07403 21.4736 3.3555 21.9278C3.63698 22.382 4.03742 22.7504 4.51342 22.9933C4.98941 23.2361 5.52279 23.3439 6.05573 23.3052C6.58867 23.2664 7.10082 23.0825 7.53667 22.7733L7.92604 21.1838C8.10051 20.4476 8.31422 19.7213 8.56625 19.0079L9.81021 15.5254C10.3332 14.0667 11.1827 12.7469 12.2938 11.6667H7.29167Z" fill="white"/>
</g>
<defs>
<clipPath id="clip0_164_534">
<rect width="35" height="35" fill="white"/>
</clipPath>
</defs>
</svg>
