<svg width="145" height="195" viewBox="0 0 145 195" fill="none" xmlns="http://www.w3.org/2000/svg">
<path opacity="0.3" d="M129.831 82.6654L127.218 80.9851L76.6577 159.56L73.0356 157.209L130 69.4525L127.393 67.7592L124.506 72.2069L113.183 66.3065L111.748 69.0609L122.806 74.8247L120.477 78.4111L98.449 66.1538L96.9378 68.8691L118.783 81.0241L116.441 84.6316L83.6907 65.9896L82.1519 68.6904L114.746 87.243L112.409 90.844L70.499 65.8336L68.9065 68.5003L110.718 93.4521L108.373 97.0629L57.2959 65.6711L55.6692 68.3166L106.68 99.6694L104.333 103.285L44.0895 65.5038L42.4385 68.1379L102.641 105.893L100.293 109.51L30.8799 65.338L29.211 67.9591L98.6017 112.117L96.252 115.737L17.667 65.1706L15.9868 67.7836L94.5604 118.344L92.209 121.966L4.45412 65L2.76087 67.6065L7.2085 70.4941L1.30812 81.8171L4.0625 83.252L9.82637 72.1939L13.4127 74.5209L1.15537 96.551L3.87075 98.0623L16.0258 76.2158L19.6332 78.5574L0.988 111.309L3.68875 112.848L22.243 80.2539L25.844 82.5906L0.833624 124.501L3.50025 126.094L28.4521 84.2822L32.0629 86.6271L0.671125 137.704L3.31662 139.331L34.6694 88.3204L38.285 90.6669L0.503749 150.912L3.13787 152.563L40.8915 92.3601L44.5087 94.7082L0.337999 164.122L2.95913 165.791L47.1169 96.3999L50.7374 98.7496L0.170624 177.335L2.78362 179.015L53.3439 100.441L56.966 102.793L0 190.548L2.6065 192.241L5.4925 187.793L16.8155 193.693L18.2504 190.939L7.19062 185.177L9.51925 181.591L31.5494 193.848L33.0606 191.133L11.2141 178.977L13.5558 175.37L46.3076 194.012L47.8465 191.311L15.2539 172.757L17.5906 169.156L59.501 194.166L61.0935 191.5L19.2823 166.548L21.6255 162.937L72.7009 194.329L74.3275 191.683L23.3204 160.332L25.6669 156.717L85.9105 194.496L87.5615 191.862L27.3601 154.108L29.7083 150.491L99.1201 194.662L100.789 192.041L31.3999 147.883L33.7496 144.263L112.333 194.829L114.013 192.216L35.4413 141.658L37.791 138.037L125.546 195L127.239 192.394L122.793 189.508L128.695 178.185L125.941 176.75L120.177 187.809L116.59 185.482L128.848 163.451L126.132 161.939L113.979 183.786L110.372 181.444L129.015 148.692L126.314 147.153L107.757 179.748L104.156 177.411L129.168 135.499L126.501 133.906L101.55 175.718L97.9388 173.373L129.33 122.296L126.685 120.669L95.3306 171.681L91.715 169.335L129.495 109.089L126.86 107.439L89.1085 167.642L85.4913 165.293L129.664 95.8783L127.043 94.2094L82.8831 163.602L79.2626 161.252L129.831 82.6654ZM59.5725 104.484L90.5174 124.571L70.4291 155.517L39.4843 135.429L59.5725 104.484Z" fill="#815FF2"/>
<g opacity="0.45">
<path d="M139.593 36.5985L115.687 52.2454C113.05 53.971 109.502 53.2301 107.776 50.5936L92.1294 26.6875C90.4037 24.051 91.1447 20.5025 93.7812 18.7769L117.687 3.12999C120.324 1.40436 123.872 2.14533 125.598 4.78183L141.245 28.6879C142.97 31.3244 142.229 34.8729 139.593 36.5985Z" fill="#815FF2"/>
</g>
</svg>
