<svg width="35" height="35" viewBox="0 0 35 35" fill="none" xmlns="http://www.w3.org/2000/svg">
<path d="M26.25 0C21.4171 0 17.5 3.91708 17.5 8.75C17.5 13.5829 21.4171 17.5 26.25 17.5C31.0829 17.5 35 13.5829 35 8.75C35 3.91708 31.0829 0 26.25 0ZM27.1527 12.2704C26.6015 12.8217 25.8694 13.125 25.0906 13.125H25.0877C24.309 13.125 23.5769 12.8202 23.0271 12.269L20.0929 9.33479L22.155 7.27271L25.0906 10.2083L30.3625 4.93646L32.4246 6.99854L27.1527 12.2704ZM4.375 2.1875V7.29167H0V2.1875C0 0.98 0.98 0 2.1875 0C3.395 0 4.375 0.98 4.375 2.1875ZM29.1667 24.7917H14.5833V31.3542C14.5833 33.4921 12.7444 35.1998 10.5613 34.981C8.66396 34.7915 7.29167 33.0531 7.29167 31.1456V2.1875C7.29167 1.40583 7.11375 0.663542 6.79875 0H18.5427C16.116 2.13937 14.5833 5.26896 14.5833 8.75C14.5833 15.1827 19.8173 20.4167 26.25 20.4167C27.2563 20.4167 28.2348 20.2883 29.1667 20.0477V24.7917ZM17.5 27.7083H35V29.8958C35 32.7104 32.7104 35 29.8958 35H16.3917C17.0917 33.9558 17.5 32.7017 17.5 31.3542V27.7083Z" fill="white"/>
</svg>
