<svg width="131" height="149" viewBox="0 0 131 149" fill="none" xmlns="http://www.w3.org/2000/svg">
<g opacity="0.3">
<path d="M126.312 148.963H130L80.9626 50.9072L80.9452 50.9405L80.9366 50.9205L49.7048 113.372H45.409L78.7872 46.6246L76.9456 42.9408L41.7242 113.372H37.427L74.7977 38.6433L72.956 34.9594L33.7422 113.372H29.4479L70.8067 30.6635L68.965 26.9797L25.7631 113.372H21.4673L66.8157 22.6872L64.9726 19L15.938 117.056H15.9712L15.9597 117.08H78.4218L80.5682 121.372L13.8089 121.375L11.9687 125.059H82.4128L84.5607 129.355H9.82222L7.982 133.036L86.4052 133.039L88.5517 137.331H5.83122L3.991 141.015L90.3948 141.019L92.5398 145.311H1.84311L0 149H98.072L98.0547 148.965H98.0763L66.8446 86.5115L68.991 82.219L102.371 148.967L106.055 148.963L70.8356 78.5318L72.982 74.2359L110.351 148.968L114.037 148.965L74.8266 70.5521L76.9744 66.2595L118.333 148.968L122.017 148.965L78.8161 62.5707L80.964 58.2782L126.312 148.963ZM76.6032 113.396H53.378L64.9899 90.172L76.6032 113.396Z" fill="#34CAE8"/>
</g>
<path opacity="0.45" d="M85.6973 17.6755L109.874 55.3005L130.3 20.9087L85.6952 17.6791C85.6973 17.6755 85.6973 17.6755 85.6952 17.6791C85.6974 17.6755 85.6953 17.6792 85.6973 17.6755Z" fill="#34CAE8"/>
</svg>
